<?xml version="1.0" encoding="utf-8"?>
<!-- Generator: Adobe Illustrator 27.5.0, SVG Export Plug-In . SVG Version: 6.00 Build 0)  -->
<svg version="1.1" id="Layer_1" xmlns="http://www.w3.org/2000/svg" xmlns:xlink="http://www.w3.org/1999/xlink" x="0px" y="0px"
	 viewBox="0 0 1024 1024" style="enable-background:new 0 0 1024 1024;" xml:space="preserve">
<style type="text/css">
	.st0{fill:#E42527;}
</style>
<path class="st0" d="M1011.2,830l-193-332.6l133.9-230.7l12.2,46c3.6,13.4,15.7,22.3,29,22.3c2.5,0,5.1-0.3,7.7-1
	c16-4.3,25.5-20.7,21.3-36.7l-30.8-116c-1.4-5.4-4.2-10-7.9-13.6l0,0c-0.3-0.3-0.7-0.7-1-1l0,0c-2.3-2-4.8-3.7-7.6-4.9
	c-0.1,0-0.2-0.1-0.3-0.1c-0.4-0.2-0.7-0.3-1.1-0.5c-0.2-0.1-0.3-0.1-0.5-0.2c-0.3-0.1-0.6-0.2-0.8-0.3s-0.4-0.1-0.7-0.2
	c-0.2-0.1-0.5-0.2-0.7-0.2c-0.2-0.1-0.5-0.1-0.7-0.2c-0.2-0.1-0.5-0.1-0.7-0.2c-0.2-0.1-0.5-0.1-0.7-0.2c-0.2-0.1-0.5-0.1-0.7-0.1
	s-0.5-0.1-0.7-0.1c-0.3,0-0.5-0.1-0.8-0.1c-0.2,0-0.4,0-0.6-0.1c-0.3,0-0.6-0.1-0.9-0.1c-0.2,0-0.4,0-0.6,0c-0.3,0-0.6,0-0.9,0
	c-0.2,0-0.3,0-0.5,0c-0.3,0-0.6,0-1,0c-0.2,0-0.3,0-0.5,0c-0.3,0-0.6,0-1,0c-0.2,0-0.4,0-0.5,0c-0.3,0-0.6,0.1-0.9,0.1
	c-0.2,0-0.4,0.1-0.6,0.1c-0.3,0-0.5,0.1-0.8,0.1s-0.6,0.1-0.9,0.2c-0.2,0-0.4,0.1-0.6,0.1c-0.5,0.1-1,0.2-1.5,0.4L838.9,191
	c-16,4.3-25.5,20.7-21.3,36.7c4.3,16,20.7,25.5,36.7,21.3l46-12.2l-116.6,201L590,103.8C573.7,75.7,544.6,59,512.2,59
	s-61.6,16.8-77.8,44.8L12.8,830c-16.3,28.2-16.4,61.9-0.1,90.1c16.3,28.2,45.4,45.1,78,45.1h107.2c16.6,0,30-13.4,30-30
	s-13.4-30-30-30H90.7c-15.7,0-23.4-10.5-26-15s-7.8-16.5,0.1-30L486,133.8c7.8-13.5,20.8-15,26-15s18.1,1.5,26,15l210.9,363.6
	L647.6,671.9l-83.7-144.4c-10.9-18.7-30.3-29.9-51.9-29.9s-41,11.2-51.9,29.9L284.6,830c-16.3,28.2-16.4,61.8-0.1,90.1
	c16.3,28.2,45.4,45.1,78,45.1h570.8c32.6,0,61.7-16.8,78-45.1C1027.6,891.9,1027.5,858.2,1011.2,830z M959.3,890.2
	c-2.6,4.5-10.3,15-26,15H362.5c-15.7,0-23.4-10.5-26-15s-7.8-16.5,0-30L512,557.6L595.7,702c10.9,18.7,30.3,29.9,51.9,29.9
	s41-11.2,51.9-29.9l84-144.8l175.7,303C967.1,873.7,961.9,885.7,959.3,890.2z"/>
</svg>
