<?xml version="1.0" encoding="utf-8"?>
<!-- Generator: Adobe Illustrator 27.5.0, SVG Export Plug-In . SVG Version: 6.00 Build 0)  -->
<svg version="1.1" id="Layer_1" xmlns="http://www.w3.org/2000/svg" xmlns:xlink="http://www.w3.org/1999/xlink" x="0px" y="0px"
	 viewBox="0 0 1024 1024" style="enable-background:new 0 0 1024 1024;" xml:space="preserve">
<style type="text/css">
	.st0{fill:#E42527;}
</style>
<path class="st0" d="M983.3,312.9C903.3,123.8,717.9,0.8,512.5,0.7C229.9,0.5,0.7,229.4,0.5,512c0,22.8,1.5,45.7,4.5,68.3
	c2.2,16.5,17.3,28,33.7,25.8c16.5-2.2,28-17.3,25.8-33.7c-2.7-20-4-40.2-4-60.4c-0.1-124.3,51.1-243.1,141.4-328.7
	c181.4-171.5,467.5-163.6,639,17.8s163.6,467.5-17.8,639s-467.5,163.6-639-17.8c-1.7-1.8-2.6-4.2-2.6-6.7V676.1c0-5.5,4.5-10,10-10
	h70.9c5,0,9.2,3.8,9.9,8.7v141.1c0,16.6,13.4,30,30,30c0,0,0,0,0.1,0l0,0c16.6,0,30-13.4,30-30V676.1c0-1.2,0-2.5-0.1-3.7V474.6
	c0-5.5,4.5-10,10-10h70.8c5.5,0,10,4.5,10,10v340.8l0,0v0.5c0,16.6,13.4,30,30,30s30-13.4,30-30V313.6c0-5.5,4.5-10,10-10H564
	c5.5,0,10,4.5,10,10v502.3c0,16.6,13.4,30,30,30s30-13.4,30-30V313.6c0-38.6-31.4-70-70-70h-70.9c-38.6,0-70,31.4-70,70v91.7
	c-3.3-0.5-6.6-0.7-10-0.7h-70.8c-38.6,0-70,31.4-70,70v132.2c-3.2-0.5-6.5-0.7-9.9-0.7h-70.8c-38.7,0-70,31.3-70,70v139.6
	c-0.1,17.8,6.7,35,19,48c96.5,102.1,230.9,160,371.4,159.8c68.6,0,136.4-13.7,199.6-40.4C971.7,873.1,1093.3,573,983.3,312.9z"/>
</svg>
