<?xml version="1.0" encoding="utf-8"?>
<!-- Generator: Adobe Illustrator 27.3.1, SVG Export Plug-In . SVG Version: 6.00 Build 0)  -->
<svg version="1.1" id="Layer_1" xmlns="http://www.w3.org/2000/svg" xmlns:xlink="http://www.w3.org/1999/xlink" x="0px" y="0px"
	 viewBox="0 0 822 296" style="enable-background:new 0 0 822 296;" xml:space="preserve">
<style type="text/css">
	.st0{fill:#FFFFFF;}
</style>
<g>
	<g>
		<path class="st0" d="M396.7,140.8h28.8L464,255.7h-23l-8.5-26.5h-45.1l-8.3,26.5H358L396.7,140.8z M427.5,213.2L410,158.8
			l-17.6,54.5L427.5,213.2L427.5,213.2z"/>
		<path class="st0" d="M486.8,230.6c0.8,2,1.9,3.8,3.3,5.4c1.4,1.5,3,2.8,4.9,3.8c1.8,1,3.8,1.7,6,2.2s4.4,0.8,6.6,0.8
			c1.6,0,3.3-0.1,5-0.4s3.3-0.8,4.7-1.6s2.6-1.8,3.5-3.1s1.4-2.9,1.4-4.9c0-2.1-0.5-3.8-1.6-5.2c-1-1.4-2.5-2.5-4.3-3.4
			s-3.9-1.7-6.2-2.3s-4.8-1.2-7.4-1.7c-3.4-0.7-6.7-1.6-10.2-2.5c-3.4-0.9-6.5-2.2-9.2-4s-4.9-4.1-6.7-7c-1.7-2.9-2.6-6.8-2.6-11.5
			c0-4.3,0.9-8.1,2.8-11.3c1.8-3.2,4.2-5.8,7.2-7.9c3-2.1,6.3-3.7,10-4.7c3.7-1.1,7.5-1.6,11.3-1.6c3.4,0,6.7,0.3,10.2,1
			s6.7,1.7,9.8,3.2s5.8,3.4,8.3,5.7s4.4,5.1,5.8,8.4l-14.9,6.4c-0.8-1.9-1.9-3.5-3.3-4.8c-1.4-1.3-2.9-2.3-4.5-3.2s-3.4-1.4-5.3-1.8
			c-1.8-0.4-3.6-0.6-5.3-0.6c-1.7,0-3.3,0.2-4.9,0.5s-3,0.9-4.2,1.6s-2.2,1.7-2.9,2.9s-1.1,2.7-1.1,4.4c0,1.9,0.5,3.5,1.5,4.8
			s2.3,2.2,3.9,3.1c1.6,0.8,3.6,1.5,5.9,2s4.6,1,7.1,1.5c3.5,0.7,7,1.5,10.5,2.4c3.6,0.9,6.8,2.2,9.7,4s5.3,4.2,7.1,7.2
			s2.8,7,2.8,11.9s-1,9.1-2.9,12.5s-4.5,6.2-7.6,8.3c-3.2,2.1-6.8,3.6-10.9,4.6s-8.3,1.4-12.7,1.4c-3.7,0-7.4-0.3-11.1-1
			c-3.7-0.7-7.2-1.8-10.4-3.4c-3.2-1.6-6.1-3.6-8.7-6.2s-4.5-5.7-5.8-9.5L486.8,230.6z"/>
		<path class="st0" d="M566.3,230.6c0.8,2,1.9,3.8,3.3,5.4c1.4,1.5,3,2.8,4.9,3.8c1.8,1,3.8,1.7,6,2.2s4.4,0.8,6.6,0.8
			c1.6,0,3.3-0.1,5-0.4c1.7-0.3,3.3-0.8,4.7-1.6s2.6-1.8,3.5-3.1s1.4-2.9,1.4-4.9c0-2.1-0.5-3.8-1.6-5.2c-1-1.4-2.5-2.5-4.3-3.4
			s-3.9-1.7-6.2-2.3s-4.8-1.2-7.4-1.7c-3.3-0.7-6.7-1.6-10.2-2.5c-3.4-0.9-6.5-2.2-9.2-4s-4.9-4.1-6.7-7c-1.7-2.9-2.6-6.8-2.6-11.5
			c0-4.3,0.9-8.1,2.8-11.3c1.8-3.2,4.2-5.8,7.2-7.9c3-2.1,6.3-3.7,10-4.7s7.5-1.6,11.3-1.6c3.3,0,6.8,0.3,10.2,1s6.7,1.7,9.8,3.2
			s5.8,3.4,8.3,5.7s4.4,5.1,5.8,8.4l-14.9,6.4c-0.8-1.9-1.9-3.5-3.3-4.8c-1.4-1.3-2.9-2.3-4.5-3.2s-3.4-1.4-5.3-1.8
			c-1.8-0.4-3.6-0.6-5.3-0.6s-3.3,0.2-4.9,0.5s-3,0.9-4.2,1.6c-1.2,0.8-2.2,1.7-2.9,2.9s-1.1,2.7-1.1,4.4c0,1.9,0.5,3.5,1.5,4.8
			c1,1.2,2.3,2.2,3.9,3.1c1.7,0.8,3.6,1.5,5.8,2s4.6,1,7.1,1.5c3.5,0.7,7,1.5,10.5,2.4c3.6,0.9,6.8,2.2,9.7,4s5.3,4.2,7.1,7.2
			s2.8,7,2.8,11.9s-1,9.1-2.9,12.5s-4.5,6.2-7.6,8.3c-3.2,2.1-6.8,3.6-10.9,4.6s-8.3,1.4-12.7,1.4c-3.7,0-7.4-0.3-11.1-1
			s-7.2-1.8-10.4-3.4c-3.2-1.6-6.1-3.6-8.7-6.2s-4.5-5.7-5.8-9.5L566.3,230.6z"/>
		<path class="st0" d="M635.6,147.5c0-1.7,0.3-3.2,0.9-4.6s1.5-2.6,2.6-3.6s2.4-1.8,3.8-2.4s3-0.8,4.6-0.8s3.1,0.3,4.5,0.9
			c1.4,0.6,2.7,1.4,3.7,2.4c1.1,1,1.9,2.2,2.5,3.6c0.6,1.4,0.9,2.9,0.9,4.6c0,1.6-0.3,3.1-0.9,4.6s-1.4,2.6-2.4,3.6
			s-2.2,1.8-3.7,2.4c-1.4,0.6-3,0.9-4.6,0.9s-3.2-0.3-4.6-0.9c-1.5-0.6-2.8-1.4-3.8-2.4s-2-2.2-2.6-3.6
			C636,150.6,635.6,149.1,635.6,147.5z M637.4,171.8h20.1v83.9h-20.1V171.8z"/>
		<path class="st0" d="M689.2,230.6c0.8,2,1.9,3.8,3.3,5.4c1.4,1.5,3,2.8,4.9,3.8c1.8,1,3.8,1.7,6,2.2s4.4,0.8,6.6,0.8
			c1.6,0,3.3-0.1,5-0.4c1.7-0.3,3.3-0.8,4.7-1.6s2.6-1.8,3.5-3.1s1.4-2.9,1.4-4.9c0-2.1-0.5-3.8-1.6-5.2c-1-1.4-2.5-2.5-4.3-3.4
			s-3.9-1.7-6.2-2.3s-4.8-1.2-7.4-1.7c-3.3-0.7-6.7-1.6-10.2-2.5c-3.4-0.9-6.5-2.2-9.2-4s-4.9-4.1-6.7-7c-1.7-2.9-2.6-6.8-2.6-11.5
			c0-4.3,0.9-8.1,2.8-11.3c1.8-3.2,4.2-5.8,7.2-7.9c3-2.1,6.3-3.7,10-4.7s7.5-1.6,11.3-1.6c3.3,0,6.8,0.3,10.2,1s6.7,1.7,9.8,3.2
			s5.8,3.4,8.3,5.7s4.4,5.1,5.8,8.4l-14.9,6.4c-0.8-1.9-1.9-3.5-3.3-4.8c-1.4-1.3-2.9-2.3-4.5-3.2s-3.4-1.4-5.3-1.8
			c-1.8-0.4-3.6-0.6-5.3-0.6s-3.3,0.2-4.9,0.5s-3,0.9-4.2,1.6c-1.2,0.8-2.2,1.7-2.9,2.9s-1.1,2.7-1.1,4.4c0,1.9,0.5,3.5,1.5,4.8
			c1,1.2,2.3,2.2,3.9,3.1c1.7,0.8,3.6,1.5,5.8,2s4.6,1,7.1,1.5c3.5,0.7,7,1.5,10.5,2.4c3.6,0.9,6.8,2.2,9.7,4s5.3,4.2,7.1,7.2
			s2.8,7,2.8,11.9s-1,9.1-2.9,12.5s-4.5,6.2-7.6,8.3c-3.2,2.1-6.8,3.6-10.9,4.6s-8.3,1.4-12.7,1.4c-3.7,0-7.4-0.3-11.1-1
			s-7.2-1.8-10.4-3.4c-3.2-1.6-6.1-3.6-8.7-6.2s-4.5-5.7-5.8-9.5L689.2,230.6z"/>
		<path class="st0" d="M802.3,255.1c-2.2,0.6-4.4,1.1-6.7,1.5s-4.6,0.5-7.1,0.5c-8,0-14.3-2.1-18.8-6.2c-4.5-4.2-6.8-10.4-6.8-18.8
			v-45.7h-11.3v-14.8H763v-17.3l20.1-8.7v26.1h18.5v14.8h-18.5v43.9c0,3.3,0.8,5.9,2.3,7.8s4.2,2.9,7.9,2.9c1.4,0,2.9-0.1,4.4-0.4
			s3.1-0.7,4.6-1.2V255.1L802.3,255.1z"/>
	</g>
	<g>
		<g>
			<path class="st0" d="M367.1,104.4l37-53.4h-33.2V40.5h50.6v5.2l-36.1,53.4h35v10.5h-53.3V104.4z"/>
			<path class="st0" d="M424.8,84.5c0-4,0.8-7.6,2.3-10.8c1.5-3.3,3.6-6.1,6.2-8.4c2.6-2.3,5.6-4.1,9-5.4s7-1.9,10.9-1.9
				c3.8,0,7.4,0.6,10.7,1.9c3.3,1.3,6.2,3.1,8.6,5.4s4.4,5.1,5.7,8.3c1.4,3.2,2.1,6.8,2.1,10.7c0,4-0.7,7.6-2.2,10.8
				c-1.5,3.2-3.4,6-5.9,8.3s-5.4,4.1-8.8,5.3c-3.4,1.3-7,1.9-10.8,1.9s-7.5-0.6-10.9-1.9s-6.3-3.1-8.8-5.4s-4.5-5.1-5.9-8.2
				C425.5,91.9,424.8,88.3,424.8,84.5z M453,101.3c2.5,0,4.7-0.5,6.5-1.4s3.3-2.2,4.5-3.8c1.2-1.6,2-3.4,2.6-5.4
				c0.5-2.1,0.8-4.2,0.8-6.4c0-2.3-0.3-4.5-0.9-6.6s-1.5-3.9-2.7-5.4c-1.2-1.6-2.7-2.8-4.6-3.7s-4-1.3-6.5-1.3s-4.7,0.5-6.5,1.4
				s-3.3,2.2-4.4,3.8c-1.1,1.6-2,3.4-2.5,5.5s-0.8,4.3-0.8,6.6c0,2.2,0.3,4.4,0.9,6.4s1.5,3.8,2.7,5.3s2.7,2.7,4.5,3.6
				C448.4,100.9,450.5,101.3,453,101.3z"/>
			<path class="st0" d="M489.2,36.1h12.1v31c0.8-1.6,1.8-2.9,3-4.1c1.2-1.2,2.5-2.1,4-2.8s3-1.3,4.7-1.7c1.7-0.4,3.4-0.5,5.1-0.5
				c3,0,5.7,0.5,7.9,1.5s4.2,2.4,5.7,4.2s2.7,3.9,3.4,6.3c0.8,2.4,1.1,5.1,1.1,8v31.7H524V79.2c0-3.7-0.9-6.4-2.8-8.4
				s-4.5-2.9-8.1-2.9c-3.9,0-6.9,1.1-9,3.3s-3.1,5.1-3.1,8.7v29.7h-12.1L489.2,36.1L489.2,36.1z"/>
			<path class="st0" d="M544.2,84.5c0-4,0.8-7.6,2.3-10.8c1.5-3.3,3.6-6.1,6.2-8.4c2.6-2.3,5.6-4.1,9-5.4s7-1.9,10.8-1.9
				s7.4,0.6,10.7,1.9c3.3,1.3,6.2,3.1,8.6,5.4s4.4,5.1,5.7,8.3c1.4,3.2,2.1,6.8,2.1,10.7c0,4-0.7,7.6-2.2,10.8
				c-1.5,3.2-3.4,6-5.9,8.3s-5.4,4.1-8.8,5.3c-3.4,1.3-7,1.9-10.8,1.9s-7.5-0.6-10.8-1.9c-3.4-1.3-6.3-3.1-8.8-5.4s-4.5-5.1-5.9-8.2
				C544.9,91.9,544.2,88.3,544.2,84.5z M572.3,101.3c2.5,0,4.7-0.5,6.5-1.4s3.3-2.2,4.5-3.8c1.2-1.6,2-3.4,2.6-5.4
				c0.5-2.1,0.8-4.2,0.8-6.4c0-2.3-0.3-4.5-0.9-6.6c-0.6-2.1-1.5-3.9-2.7-5.4c-1.2-1.6-2.7-2.8-4.6-3.7s-4-1.3-6.5-1.3
				s-4.7,0.5-6.5,1.4s-3.3,2.2-4.4,3.8c-1.1,1.6-2,3.4-2.5,5.5s-0.8,4.3-0.8,6.6c0,2.2,0.3,4.4,0.9,6.4s1.5,3.8,2.7,5.3
				s2.7,2.7,4.5,3.6C567.7,100.9,569.9,101.3,572.3,101.3z"/>
		</g>
	</g>
</g>
<g>
	<path class="st0" d="M293.5,168.9L222.6,98c-12.2-12.2-31.9-12.2-44.1,0l-20.9,20.9L136.8,98c-12.2-12.2-31.9-12.2-44.1,0
		l-70.9,70.9c-12.2,12.2-12.2,31.9,0,44.1l70.9,70.9c5.8,5.8,13.7,9.1,22,9.1s16.2-3.3,22.1-9.2l20.8-20.8l21,20.9
		c5.8,5.8,13.7,9.1,22,9.1c8.2,0,16.2-3.3,22-9.1l70.9-70.9C305.7,200.8,305.7,181.1,293.5,168.9z M124.7,271.8
		c-5.5,5.5-14.5,5.5-20,0l-70.9-70.9c-5.5-5.5-5.5-14.5,0-20l70.9-70.9c5.5-5.5,14.5-5.5,20,0l20.9,20.9l-38,38
		c-12.2,12.2-12.2,31.9,0,44.1l38,38L124.7,271.8z M281.5,200.9l-70.9,70.9c-5.5,5.5-14.5,5.5-20,0l-70.9-70.9
		c-5.5-5.5-5.5-14.5,0-20l70.9-70.9c2.6-2.7,6.2-4.2,10-4.2c3.7,0,7.3,1.5,10,4.2l70.9,70.9C287,186.4,287,195.4,281.5,200.9z"/>
	<path class="st0" d="M157.6,77.6c20.6,0,37.3-16.7,37.3-37.3c0-20.6-16.7-37.3-37.3-37.3c-20.5,0-37.3,16.7-37.3,37.3
		C120.3,60.9,137,77.6,157.6,77.6z M157.6,20c11.3,0,20.3,9.1,20.3,20.3s-9.1,20.3-20.3,20.3c-11.2,0-20.3-9.1-20.3-20.3
		S146.4,20,157.6,20z"/>
</g>
</svg>
