<?xml version="1.0" encoding="utf-8"?>
<!-- Generator: Adobe Illustrator 27.5.0, SVG Export Plug-In . SVG Version: 6.00 Build 0)  -->
<svg version="1.1" id="Layer_1" xmlns="http://www.w3.org/2000/svg" xmlns:xlink="http://www.w3.org/1999/xlink" x="0px" y="0px"
	 viewBox="0 0 1024 1024" style="enable-background:new 0 0 1024 1024;" xml:space="preserve">
<style type="text/css">
	.st0{fill:#226DB4;}
	.st1{fill:#089949;}
</style>
<path class="st0" d="M360.4,1024c-29.2,0.1-57.2-11.5-77.8-32.2L32.2,741.4c-43-43-43-112.6,0-155.6c0,0,0,0,0,0l250.4-250.4
	c43-42.9,112.6-42.9,155.6,0l94.1,94.1c11.7,11.7,11.7,30.7,0,42.4s-30.7,11.7-42.4,0l-94.1-94.1c-19.5-19.5-51.2-19.5-70.7,0
	L74.7,628.2c-19.5,19.5-19.5,51.2,0,70.7l250.4,250.4c19.5,19.5,51.2,19.5,70.7,0l94.1-94.1c11.8-11.6,30.8-11.5,42.4,0.3
	c11.5,11.7,11.5,30.4,0,42.1l-94.1,94.1C417.6,1012.5,389.6,1024.1,360.4,1024z"/>
<path class="st1" d="M663.6,1024c-29.2,0.1-57.2-11.5-77.8-32.2L335.4,741.4c-43-43-43-112.6,0-155.6c0,0,0,0,0,0l250.4-250.4
	c43-43,112.6-43,155.6,0c0,0,0,0,0,0l250.4,250.4c43,43,43,112.6,0,155.6c0,0,0,0,0,0L741.4,991.8
	C720.8,1012.5,692.8,1024.1,663.6,1024z M663.6,363.2c-13.3,0-26,5.2-35.4,14.6L377.8,628.2c-19.5,19.5-19.5,51.2,0,70.7
	l250.4,250.4c19.5,19.5,51.2,19.5,70.7,0l250.4-250.4c19.5-19.5,19.5-51.2,0-70.7L698.9,377.8C689.6,368.4,676.8,363.1,663.6,363.2
	L663.6,363.2z"/>
<path class="st1" d="M512,263.3c-72.6,0-131.6-59.1-131.6-131.6S439.4,0,512,0s131.7,59.1,131.7,131.6S584.6,263.3,512,263.3z
	 M512,60c-39.6,0-71.6,32.1-71.6,71.7c0,39.6,32.1,71.6,71.7,71.6c39.6,0,71.6-32.1,71.6-71.7C583.6,92.1,551.6,60,512,60z"/>
</svg>
