<?xml version="1.0" encoding="UTF-8"?>
<svg id="Layer_1" data-name="Layer 1" xmlns="http://www.w3.org/2000/svg" viewBox="0 0 782 296">
  <defs>
    <style>
      .cls-1 {
        fill: #fff;
      }
    </style>
  </defs>
  <g>
    <path class="cls-1" d="m337.13,25.71h51.84c23.99,0,43.75,7.64,43.75,34.95,0,14.29-7.37,23.99-21.2,27.94,17.88,3.59,26.68,13.48,26.68,31.71,0,28.03-21.02,36.93-45.73,36.93h-55.34V25.71Zm48.7,55.16c14.29,0,22.37-4.22,22.37-19.68,0-14.38-10.24-17.61-22.73-17.61h-23.45v37.29h23.81Zm3.5,58.49c14.55,0,23.81-5.66,23.81-20.75,0-16.71-11.41-20.84-25.52-20.84h-25.61v41.6h27.31Z"/>
    <path class="cls-1" d="m469.38,20.32c7.46,0,13.39,5.48,13.39,13.12s-5.75,13.03-13.3,13.03-13.75-5.57-13.75-13.12,6.2-13.03,13.66-13.03Zm-11.59,40.88h23v96.04h-23V61.2Z"/>
    <path class="cls-1" d="m521.67,161.46c4.76,10.69,15.9,13.84,26.59,13.84,17.07,0,27.4-8.18,27.4-25.61v-14.38c-6.56,11.14-19.41,18.06-32.25,18.06-27.22,0-43.04-21.38-43.04-46.45s16.89-47.98,43.57-47.98c13.03,0,24.98,5.3,31.71,16.8v-14.73h23.09v89.04c0,30.28-22.64,42.5-50.49,42.5-17.88,0-37.02-5.03-44.74-23.18l18.15-7.91Zm54.89-55.79c0-16.44-8.89-29.02-26.32-29.02-18.42,0-26.23,14.02-26.23,30.73,0,15,9.43,28.3,25.43,28.3,17.97,0,27.13-13.3,27.13-30.01Z"/>
    <path class="cls-1" d="m636.22,20.32c7.46,0,13.39,5.48,13.39,13.12s-5.75,13.03-13.3,13.03-13.75-5.57-13.75-13.12,6.2-13.03,13.66-13.03Zm-11.59,40.88h23v96.04h-23V61.2Z"/>
    <path class="cls-1" d="m673.69,61.02h23v15.27c6.2-11.86,19.14-17.34,32.52-17.34,23.09,0,33.51,16.26,33.51,38.09v60.2h-23.36v-57.95c0-13.48-6.02-21.38-19.68-21.38-14.46,0-23,8.98-23,22.82v56.51h-23V61.02Z"/>
  </g>
  <g>
    <path class="cls-1" d="m337.06,210.73h5.81v22.73c.66-1.03,1.48-1.96,2.46-2.8.98-.84,2.04-1.56,3.2-2.15,1.15-.59,2.35-1.05,3.61-1.37,1.25-.32,2.48-.48,3.69-.48,2.76,0,5.18.5,7.26,1.5,2.09,1,3.83,2.36,5.25,4.07,1.41,1.71,2.48,3.7,3.2,5.96.72,2.27,1.08,4.66,1.08,7.16s-.37,4.99-1.11,7.31-1.82,4.36-3.25,6.12c-1.42,1.75-3.17,3.15-5.25,4.19-2.07,1.04-4.44,1.55-7.11,1.55-1.3,0-2.58-.14-3.84-.41-1.27-.27-2.46-.68-3.59-1.23-1.13-.55-2.17-1.24-3.13-2.08-.96-.84-1.78-1.82-2.46-2.94v6.05h-5.81v-53.18Zm18.12,48.95c2.19,0,4.02-.39,5.49-1.18,1.47-.79,2.64-1.83,3.52-3.14.88-1.31,1.5-2.83,1.86-4.56.36-1.73.55-3.54.55-5.43,0-1.75-.23-3.46-.68-5.13-.46-1.66-1.15-3.14-2.08-4.43-.93-1.29-2.12-2.32-3.55-3.11-1.44-.79-3.13-1.18-5.09-1.18-2.14,0-4,.38-5.57,1.14-1.57.76-2.87,1.79-3.9,3.09s-1.79,2.81-2.29,4.53c-.5,1.72-.75,3.54-.75,5.45s.27,3.86.8,5.57,1.33,3.18,2.38,4.43c1.05,1.24,2.35,2.21,3.91,2.9,1.56.7,3.37,1.04,5.42,1.04Z"/>
    <path class="cls-1" d="m390.42,260.12l-14.15-32.81h6.22l11.01,26.25,10.15-26.25h5.95l-20.23,49.36h-5.88l6.94-16.54Z"/>
    <path class="cls-1" d="m427.33,261.39l29.19-42.55h-26.66v-4.96h34.25v2.5l-28.44,42.35h27.99v5.2h-36.33v-2.53Z"/>
    <path class="cls-1" d="m487.45,264.53c-2.73,0-5.21-.49-7.43-1.47-2.22-.98-4.11-2.32-5.67-4.02-1.56-1.7-2.76-3.69-3.61-5.98-.84-2.29-1.26-4.75-1.26-7.37s.45-5.23,1.35-7.55,2.15-4.33,3.76-6.03c1.61-1.7,3.54-3.03,5.79-4s4.73-1.45,7.42-1.45,5.22.49,7.45,1.47c2.23.98,4.14,2.32,5.71,4.03s2.79,3.71,3.64,6c.86,2.29,1.28,4.75,1.28,7.37s-.45,5.2-1.35,7.52-2.17,4.34-3.79,6.03c-1.63,1.7-3.57,3.03-5.83,4-2.26.97-4.74,1.45-7.45,1.45Zm.1-4.85c2.1,0,3.92-.39,5.47-1.16,1.55-.77,2.83-1.81,3.84-3.11s1.77-2.8,2.26-4.5c.49-1.7.74-3.47.74-5.31s-.26-3.72-.77-5.42c-.51-1.7-1.29-3.19-2.32-4.48-1.04-1.29-2.33-2.31-3.88-3.06-1.55-.75-3.35-1.13-5.4-1.13s-3.87.38-5.38,1.14c-1.52.76-2.76,1.79-3.74,3.09-.98,1.3-1.7,2.8-2.17,4.49-.47,1.7-.7,3.49-.7,5.38s.25,3.83.75,5.54c.5,1.71,1.26,3.2,2.27,4.46,1.01,1.27,2.27,2.26,3.78,2.97,1.5.72,3.26,1.08,5.26,1.08Z"/>
    <path class="cls-1" d="m514.66,210.73h5.81v22.39c1.16-2.26,2.77-3.9,4.82-4.92s4.33-1.54,6.84-1.54c2.26,0,4.24.38,5.95,1.14,1.71.76,3.13,1.82,4.27,3.18,1.14,1.36,2,2.96,2.58,4.8.58,1.85.87,3.85.87,6.02v22.11h-5.81v-22.52c0-3.17-.78-5.57-2.32-7.21-1.55-1.64-3.84-2.46-6.87-2.46-3.26,0-5.79.89-7.61,2.68-1.81,1.79-2.72,4.23-2.72,7.33v22.18h-5.81v-53.18Z"/>
    <path class="cls-1" d="m572.22,264.53c-2.73,0-5.21-.49-7.43-1.47-2.22-.98-4.11-2.32-5.67-4.02-1.56-1.7-2.76-3.69-3.61-5.98-.84-2.29-1.26-4.75-1.26-7.37s.45-5.23,1.35-7.55,2.15-4.33,3.76-6.03c1.61-1.7,3.54-3.03,5.79-4s4.73-1.45,7.42-1.45,5.22.49,7.45,1.47c2.23.98,4.14,2.32,5.71,4.03s2.79,3.71,3.64,6c.86,2.29,1.28,4.75,1.28,7.37s-.45,5.2-1.35,7.52-2.17,4.34-3.79,6.03c-1.63,1.7-3.57,3.03-5.83,4-2.26.97-4.74,1.45-7.45,1.45Zm.1-4.85c2.1,0,3.92-.39,5.47-1.16,1.55-.77,2.83-1.81,3.84-3.11s1.77-2.8,2.26-4.5c.49-1.7.74-3.47.74-5.31s-.26-3.72-.77-5.42c-.51-1.7-1.29-3.19-2.32-4.48-1.04-1.29-2.33-2.31-3.88-3.06-1.55-.75-3.35-1.13-5.4-1.13s-3.87.38-5.38,1.14c-1.52.76-2.76,1.79-3.74,3.09-.98,1.3-1.7,2.8-2.17,4.49-.47,1.7-.7,3.49-.7,5.38s.25,3.83.75,5.54c.5,1.71,1.26,3.2,2.27,4.46,1.01,1.27,2.27,2.26,3.78,2.97,1.5.72,3.26,1.08,5.26,1.08Z"/>
    <path class="cls-1" d="m656.33,249.63c-.84,2.12-1.96,4.08-3.35,5.9-1.39,1.81-2.99,3.38-4.79,4.72-1.8,1.33-3.77,2.38-5.9,3.14-2.13.76-4.36,1.14-6.68,1.14-3.87,0-7.3-.65-10.27-1.96-2.97-1.31-5.47-3.12-7.5-5.42-2.03-2.3-3.56-5.04-4.6-8.2-1.04-3.17-1.55-6.6-1.55-10.29,0-3.42.55-6.67,1.66-9.76,1.1-3.09,2.68-5.8,4.72-8.13,2.04-2.33,4.51-4.19,7.42-5.55,2.91-1.37,6.15-2.05,9.72-2.05,2.23,0,4.41.33,6.54.97,2.13.65,4.11,1.58,5.93,2.79,1.82,1.21,3.44,2.67,4.85,4.38,1.41,1.71,2.52,3.62,3.32,5.74l-4.96,2.15c-.64-1.66-1.47-3.18-2.5-4.56s-2.21-2.56-3.54-3.54c-1.33-.98-2.81-1.74-4.43-2.29-1.62-.55-3.34-.82-5.16-.82-3.03,0-5.63.6-7.81,1.79-2.18,1.2-3.96,2.77-5.37,4.72-1.4,1.95-2.44,4.18-3.11,6.68-.67,2.51-1.01,5.07-1.01,7.69,0,2.8.37,5.46,1.11,7.96.74,2.51,1.85,4.71,3.33,6.6,1.48,1.89,3.33,3.39,5.55,4.5,2.22,1.11,4.81,1.66,7.78,1.66,1.8,0,3.53-.32,5.18-.96,1.65-.64,3.17-1.5,4.56-2.6,1.39-1.09,2.61-2.36,3.67-3.81,1.06-1.45,1.91-2.98,2.55-4.6l4.61,2.02Z"/>
    <path class="cls-1" d="m665.46,213.88h16.51c2.3,0,4.51.25,6.61.75,2.11.5,3.96,1.3,5.57,2.41,1.61,1.11,2.89,2.54,3.84,4.31s1.44,3.92,1.44,6.48c0,2.01-.31,3.79-.92,5.35s-1.47,2.92-2.56,4.07c-1.09,1.15-2.4,2.1-3.91,2.85-1.52.75-3.19,1.32-5.01,1.71l15.35,22.18h-6.8l-14.87-21.77h-9.13v21.77h-6.12v-50.11Zm16.92,23.45c1.59,0,3.06-.17,4.41-.51,1.34-.34,2.5-.89,3.47-1.64.97-.75,1.72-1.73,2.26-2.94.53-1.21.8-2.68.8-4.41s-.28-3.21-.84-4.38-1.33-2.09-2.31-2.79c-.98-.7-2.14-1.18-3.47-1.47-1.33-.28-2.78-.43-4.32-.43h-10.8v18.56h10.8Z"/>
    <path class="cls-1" d="m710.71,213.88h8.48l16.03,39.68,15.83-39.68h8.41v50.04h-6.08v-42.14l-16.95,42.14h-2.6l-17.5-42.14v42.14h-5.61v-50.04Z"/>
  </g>
  <path class="cls-1" d="m136.54,292.99c-10.96,0-19.84-8.88-19.84-19.84v-59.25c0-.5-.13-.99-.38-1.42L12.61,32.75c-3.59-6.13-3.59-13.72,0-19.84,3.51-6.17,10.08-9.96,17.18-9.92h0l190.95.07c7.1-.04,13.66,3.75,17.17,9.92,3.59,6.12,3.59,13.7.02,19.82l-14.29,24.83h29.03c10.96,0,19.84,8.9,19.83,19.86,0,3.48-.92,6.9-2.66,9.91l-72.57,125.58c-.25.43-.38.92-.38,1.42v43.99c-.02,8.33-5.22,15.77-13.04,18.64l-40.54,14.77c-2.17.79-4.46,1.2-6.78,1.2ZM29.79,20.01c-1.57,0-2.83,1.27-2.83,2.84,0,.5.13.98.38,1.41l103.7,179.73c1.74,3.02,2.66,6.44,2.66,9.92v59.25c0,1.57,1.28,2.83,2.84,2.83.33,0,.65-.06.96-.17l40.54-14.77c1.12-.41,1.86-1.47,1.86-2.66v-43.99c0-3.48.92-6.91,2.66-9.92l72.57-125.58c.78-1.36.32-3.09-1.04-3.87-.43-.25-.92-.38-1.41-.38h-43.18c-.38.03-.76.03-1.13,0l-89.04-.02,37.35,64.74,26.33-45.6c2.35-4.07,7.55-5.47,11.62-3.12s5.47,7.55,3.12,11.62h0l-28.8,49.86c-2.51,4.41-7.2,7.12-12.27,7.09h0c-5.07.03-9.76-2.68-12.27-7.09l-42.3-73.29c-3.91-6.78-1.59-15.45,5.19-19.36,2.16-1.24,4.6-1.9,7.09-1.9h0l89.62.03,19.17-33.31c.78-1.36.32-3.09-1.04-3.87-.43-.25-.92-.38-1.41-.38l-190.93-.03Z"/>
</svg>