<?xml version="1.0" encoding="utf-8"?>
<!-- Generator: Adobe Illustrator 27.8.0, SVG Export Plug-In . SVG Version: 6.00 Build 0)  -->
<svg version="1.1" id="Layer_1" xmlns="http://www.w3.org/2000/svg" xmlns:xlink="http://www.w3.org/1999/xlink" x="0px" y="0px"
	 viewBox="0 0 836 296" style="enable-background:new 0 0 836 296;" xml:space="preserve">
<style type="text/css">
	.st0{fill:#FFFFFF;}
	.st1{fill:#089949;}
</style>
<g>
	<g>
		<g>
			<path class="st0" d="M365.8,140.8h45.3c21,0,38.2,6.7,38.2,30.5c0,12.5-6.4,21-18.5,24.4c15.6,3.1,23.3,11.8,23.3,27.7
				c0,24.5-18.4,32.3-39.9,32.3h-48.3V140.8z M408.4,189c12.5,0,19.5-3.7,19.5-17.2c0-12.6-8.9-15.4-19.9-15.4h-20.5V189H408.4z
				 M411.4,240.1c12.7,0,20.8-4.9,20.8-18.1c0-14.6-10-18.2-22.3-18.2h-22.4v36.3H411.4z"/>
			<path class="st0" d="M481.3,136.1c6.5,0,11.7,4.8,11.7,11.5c0,6.6-5,11.4-11.6,11.4c-6.5,0-12-4.9-12-11.5
				C469.4,140.8,474.8,136.1,481.3,136.1z M471.2,171.8h20.1v83.9h-20.1V171.8z"/>
			<path class="st0" d="M514.6,137.6l20.1-8.7v126.8h-20.1V137.6z"/>
			<path class="st0" d="M557.8,137.6l20.1-8.7v126.8h-20.1V137.6z"/>
			<path class="st0" d="M611.2,136.1c6.5,0,11.7,4.8,11.7,11.5c0,6.6-5,11.4-11.6,11.4c-6.5,0-12-4.9-12-11.5
				C599.3,140.8,604.7,136.1,611.2,136.1z M601.1,171.8h20.1v83.9h-20.1V171.8z"/>
			<path class="st0" d="M643.9,171.6H664V185c5.4-10.4,16.7-15.1,28.4-15.1c20.2,0,29.3,14.2,29.3,33.3v52.6h-20.4v-50.6
				c0-11.8-5.3-18.7-17.2-18.7c-12.6,0-20.1,7.8-20.1,19.9v49.4h-20.1V171.6z"/>
			<path class="st0" d="M755.8,259.4c4.2,9.3,13.9,12.1,23.2,12.1c14.9,0,23.9-7.1,23.9-22.4v-12.6c-5.7,9.7-17,15.8-28.2,15.8
				c-23.8,0-37.6-18.7-37.6-40.6c0-22.6,14.8-41.9,38.1-41.9c11.4,0,21.8,4.6,27.7,14.7v-12.9h20.2v77.8c0,26.4-19.8,37.1-44.1,37.1
				c-15.6,0-32.3-4.4-39.1-20.2L755.8,259.4z M803.7,210.6c0-14.4-7.8-25.3-23-25.3c-16.1,0-22.9,12.2-22.9,26.8
				c0,13.1,8.2,24.7,22.2,24.7C795.7,236.8,803.7,225.2,803.7,210.6z"/>
		</g>
		<g>
			<path class="st0" d="M366,104.4L403,51h-33.2V40.5h50.6v5.2l-36.1,53.4h35v10.5H366V104.4z"/>
			<path class="st0" d="M452,58c15.4,0,27.2,10.8,27.2,26.3c0,15.9-12.4,26.4-27.7,26.4c-15.4,0-27.8-10.7-27.8-26.1
				C423.7,68.6,436.8,58,452,58z M466.2,84.3c0-9.3-4.7-17.1-14.7-17.1c-10.2,0-14.3,8.1-14.3,17.4c0,9,4.8,16.6,14.6,16.6
				C461.9,101.3,466.2,93.2,466.2,84.3z"/>
			<path class="st0" d="M488,36.1h12.1v31c3.3-6.3,9.9-9.1,16.9-9.1c12.1,0,18.2,8.5,18.2,20v31.7H523V79.2
				c0-7.3-3.8-11.3-10.8-11.3c-7.8,0-12.1,4.8-12.1,12v29.7H488V36.1z"/>
			<path class="st0" d="M571.4,58c15.4,0,27.2,10.8,27.2,26.3c0,15.9-12.4,26.4-27.7,26.4c-15.4,0-27.8-10.7-27.8-26.1
				C543.1,68.6,556.2,58,571.4,58z M585.6,84.3c0-9.3-4.7-17.1-14.7-17.1c-10.2,0-14.3,8.1-14.3,17.4c0,9,4.8,16.6,14.6,16.6
				C581.3,101.3,585.6,93.2,585.6,84.3z"/>
		</g>
	</g>
	<g>
		<g>
			<path class="st0" d="M138,293c-0.4,0-0.8,0-1.3-0.1c-23-3.4-54-15.6-78.7-30.9c-13.5-8.4-24.3-17.1-32.2-25.8
				c-9.6-10.7-14.5-21.3-14.5-31.3v-117c0-8.7,4.4-18,13.1-27.7c7.2-8.1,17.5-16.5,29.8-24.3C79.2,20,109.9,7.7,136.5,3.1
				c3.1-0.5,6.2,0.7,8.1,3.1c1.9,2.4,2.4,5.8,1.2,8.6L93,138.9c16.3,7.5,33,13.3,46.7,16.2c3.9,0.8,6.8,4.3,6.8,8.3l0,121.1
				c0,2.5-1.1,4.8-3,6.4C142,292.3,140,293,138,293z M28.3,118v86.8c0,5.7,3.5,12.6,10.1,20c6.7,7.5,16.6,15.4,28.5,22.8
				c19.6,12.1,43,22,62.5,26.6l0-104c-22.5-5.7-49.4-17.2-72-30.8C45.6,132.2,35.8,125.1,28.3,118z M123.6,23.5
				c-20.4,5.6-42,15.1-60.3,26.7C37.5,66.6,28.3,80.7,28.3,87.8c0,6.5,9.9,20.2,37.9,37c3.7,2.2,7.5,4.4,11.5,6.5L123.6,23.5z"/>
		</g>
		<g>
			<g>
				<path class="st0" d="M174.6,293c-2.6,0-5-1.2-6.7-3.2c-1.9-2.4-2.4-5.8-1.2-8.6l52.8-124c-16.3-7.5-33-13.3-46.7-16.2
					c-3.9-0.8-6.8-4.3-6.8-8.3l0-121.1c0-2.5,1.1-4.8,3-6.4c1.9-1.6,4.4-2.3,6.8-2c23,3.4,54,15.6,78.7,30.9
					c13.5,8.4,24.3,17.1,32.2,25.8c9.6,10.7,14.5,21.3,14.5,31.3v117c0,8.7-4.4,18-13.1,27.7c-7.2,8.1-17.5,16.5-29.8,24.3
					c-24.9,15.9-55.7,28.1-82.3,32.7C175.5,292.9,175,293,174.6,293z M234.8,164.7l-45.9,107.8c20.4-5.6,42-15.1,60.3-26.7
					c25.9-16.4,35.1-30.5,35.1-37.6c0-6.5-9.9-20.2-37.9-37C242.6,169,238.8,166.8,234.8,164.7z M183.1,125.8
					c22.5,5.7,49.4,17.2,72,30.8c11.9,7.1,21.7,14.3,29.1,21.4V91.2c0-5.7-3.5-12.6-10.1-20c-6.7-7.5-16.6-15.4-28.5-22.8
					c-19.6-12.1-43-22-62.5-26.6L183.1,125.8z"/>
			</g>
		</g>
	</g>
</g>
</svg>
