<?xml version="1.0" encoding="utf-8"?>
<!-- Generator: Adobe Illustrator 27.5.0, SVG Export Plug-In . SVG Version: 6.00 Build 0)  -->
<svg version="1.1" id="Layer_1" xmlns="http://www.w3.org/2000/svg" xmlns:xlink="http://www.w3.org/1999/xlink" x="0px" y="0px"
	 viewBox="0 0 1024 1024" style="enable-background:new 0 0 1024 1024;" xml:space="preserve">
<style type="text/css">
	.st0{fill:#226DB4;}
</style>
<g>
	<g>
		<path class="st0" d="M729.5,1024H30c-16.6,0-30-13.4-30-30V739.8c0-55.5,35.3-104.9,87.8-123l775.3-266.1
			C923.4,330.1,964,273.3,964,209.4C964,127,897,60,814.6,60H60v495c0,16.6-13.4,30-30,30S0,571.5,0,555V30C0,13.4,13.4,0,30,0
			h784.6C930,0,1024,93.9,1024,209.4c0,89.5-56.8,169.1-141.5,198.1L107.3,673.6C79,683.3,60,709.9,60,739.8V964h669.5
			c62.6,0,121.5-24.4,165.8-68.7C939.6,851,964,792.2,964,729.5c0-44.3-12.5-87.6-36.1-125c-23.4-37.1-56.5-66.8-95.9-85.9
			c-14.9-7.2-21.1-25.2-13.9-40.1c7.2-14.9,25.2-21.1,40.1-13.9c49.4,24,91.1,61.3,120.5,107.9c29.7,47.1,45.4,101.4,45.4,157
			c0,78.7-30.6,152.6-86.2,208.2C882.1,993.4,808.2,1024,729.5,1024z"/>
	</g>
	<g>
		<path class="st0" d="M337.5,419.8c-66.2,0-120-53.8-120-120s53.8-120,120-120s120,53.8,120,120S403.7,419.8,337.5,419.8z
			 M337.5,239.8c-33.1,0-60,26.9-60,60s26.9,60,60,60s60-26.9,60-60S370.6,239.8,337.5,239.8z"/>
	</g>
	<g>
		<path class="st0" d="M638.3,843.5c-66.2,0-120-53.8-120-120s53.8-120,120-120s120,53.8,120,120S704.5,843.5,638.3,843.5z
			 M638.3,663.5c-33.1,0-60,26.9-60,60s26.9,60,60,60s60-26.9,60-60S671.4,663.5,638.3,663.5z"/>
	</g>
</g>
</svg>
