<?xml version="1.0" encoding="utf-8"?>
<!-- Generator: Adobe Illustrator 27.3.1, SVG Export Plug-In . SVG Version: 6.00 Build 0)  -->
<svg version="1.1" id="Layer_1" xmlns="http://www.w3.org/2000/svg" xmlns:xlink="http://www.w3.org/1999/xlink" x="0px" y="0px"
	 viewBox="0 0 824 296" style="enable-background:new 0 0 824 296;" xml:space="preserve">
<style type="text/css">
	.st0{fill:#FFFFFF;}
</style>
<g>
	<g>
		<path class="st0" d="M362.4,140.8h45.3c21,0,38.2,6.7,38.2,30.5c0,12.5-6.4,20.9-18.5,24.4c15.6,3.1,23.3,11.8,23.3,27.7
			c0,24.5-18.4,32.2-39.9,32.2h-48.3L362.4,140.8L362.4,140.8z M405,189c12.5,0,19.5-3.7,19.5-17.2c0-12.6-9-15.4-19.9-15.4h-20.5
			V189H405z M408,240.1c12.7,0,20.8-4.9,20.8-18.1c0-14.6-10-18.2-22.3-18.2h-22.4v36.3H408L408,240.1z"/>
		<path class="st0" d="M506,169.8c25.5,0,45.1,17.9,45.1,43.6c0,26.4-20.6,43.8-46,43.8c-25.6,0-46.1-17.7-46.1-43.4
			C459,187.5,480.8,169.8,506,169.8z M529.6,213.6c0-15.5-7.8-28.3-24.3-28.3c-17,0-23.7,13.5-23.7,28.9c0,14.9,7.9,27.6,24.2,27.6
			C522.5,241.8,529.6,228.3,529.6,213.6z"/>
		<path class="st0" d="M604.6,169.8c25.5,0,45.1,17.9,45.1,43.6c0,26.4-20.6,43.8-46,43.8c-25.6,0-46.1-17.7-46.1-43.4
			C557.6,187.5,579.3,169.8,604.6,169.8z M628.2,213.6c0-15.5-7.8-28.3-24.3-28.3c-17,0-23.7,13.5-23.7,28.9
			c0,14.9,7.9,27.6,24.2,27.6C621.1,241.8,628.2,228.3,628.2,213.6z"/>
		<path class="st0" d="M664.4,133.6h20.1v74.7l30.5-36.6h22l-33.3,38.5l35.9,45.5h-23.2l-31.9-41v41h-20.1V133.6z"/>
		<path class="st0" d="M760.1,230.6c3.1,8.2,11.7,12.2,20.8,12.2c6.5,0,14.6-2,14.6-10c0-8.4-9.1-10.4-19.5-12.6
			c-13.5-2.8-28.6-6.1-28.6-25c0-17.3,16.1-25.5,31.3-25.5c13.3,0,28.6,5,34.1,18.3l-14.9,6.4c-3.3-7.5-11.5-10.3-18.4-10.3
			c-6.7,0-13.1,2.7-13.1,9.5c0,7.7,8.2,9.3,18.4,11.3c13.7,2.7,30.1,5.8,30.1,25.4c0,19.8-16.6,26.8-34.1,26.8
			c-14.8,0-30.8-5-36-20.1L760.1,230.6z"/>
	</g>
	<g>
		<path class="st0" d="M362.6,104.4l37-53.4h-33.2V40.5H417v5.2l-36.1,53.4h35v10.5h-53.3V104.4L362.6,104.4z"/>
		<path class="st0" d="M448.6,58c15.4,0,27.2,10.8,27.2,26.3c0,15.9-12.4,26.4-27.7,26.4c-15.4,0-27.8-10.7-27.8-26.1
			C420.3,68.6,433.4,58,448.6,58z M462.8,84.3c0-9.3-4.7-17.1-14.6-17.1c-10.2,0-14.3,8.1-14.3,17.4c0,9,4.8,16.6,14.6,16.6
			C458.6,101.3,462.8,93.2,462.8,84.3z"/>
		<path class="st0" d="M484.7,36.1h12.1v31c3.3-6.3,9.9-9.1,16.9-9.1c12.1,0,18.2,8.5,18.2,20v31.7h-12.2V79.2
			c0-7.3-3.8-11.2-10.8-11.2c-7.8,0-12,4.8-12,12v29.7h-12.1L484.7,36.1L484.7,36.1z"/>
		<path class="st0" d="M568,58c15.4,0,27.2,10.8,27.2,26.3c0,15.9-12.4,26.4-27.7,26.4c-15.4,0-27.8-10.7-27.8-26.1
			C539.7,68.6,552.8,58,568,58z M582.2,84.3c0-9.3-4.7-17.1-14.7-17.1c-10.2,0-14.3,8.1-14.3,17.4c0,9,4.8,16.6,14.6,16.6
			C577.9,101.3,582.2,93.2,582.2,84.3z"/>
	</g>
</g>
<g>
	<g>
		<path class="st0" d="M214.6,293H16.5c-4.7,0-8.5-3.8-8.5-8.5v-72c0-15.7,10-29.7,24.9-34.8l219.6-75.4c17.1-5.9,28.6-22,28.6-40
			c0-23.3-19-42.3-42.3-42.3H25v140.2c0,4.7-3.8,8.5-8.5,8.5S8,164.9,8,160.2V11.5C8,6.8,11.8,3,16.5,3h222.2
			C271.4,3,298,29.6,298,62.3c0,25.3-16.1,47.9-40.1,56.1L38.4,193.8c-8,2.8-13.4,10.3-13.4,18.8V276h189.6c17.7,0,34.4-6.9,47-19.5
			c12.5-12.5,19.5-29.2,19.5-46.9c0-12.6-3.5-24.8-10.2-35.4c-6.6-10.5-16-18.9-27.2-24.3c-4.2-2.1-6-7.1-3.9-11.4
			c2-4.2,7.1-6,11.4-3.9c14,6.8,25.8,17.4,34.1,30.6c8.4,13.3,12.9,28.7,12.9,44.5c0,22.3-8.7,43.2-24.4,59
			C257.8,284.3,236.9,293,214.6,293z"/>
	</g>
	<g>
		<path class="st0" d="M103.6,121.9c-18.7,0-34-15.2-34-34s15.2-34,34-34s34,15.2,34,34S122.3,121.9,103.6,121.9z M103.6,70.9
			c-9.4,0-17,7.6-17,17s7.6,17,17,17s17-7.6,17-17S112.9,70.9,103.6,70.9z"/>
	</g>
	<g>
		<path class="st0" d="M188.8,241.9c-18.7,0-34-15.2-34-34s15.2-34,34-34s34,15.2,34,34S207.5,241.9,188.8,241.9z M188.8,190.9
			c-9.4,0-17,7.6-17,17s7.6,17,17,17s17-7.6,17-17S198.1,190.9,188.8,190.9z"/>
	</g>
</g>
</svg>
