<?xml version="1.0" encoding="utf-8"?>
<!-- Generator: Adobe Illustrator 27.3.1, SVG Export Plug-In . SVG Version: 6.00 Build 0)  -->
<svg version="1.1" id="Layer_1" xmlns="http://www.w3.org/2000/svg" xmlns:xlink="http://www.w3.org/1999/xlink" x="0px" y="0px"
	 viewBox="0 0 672 296" style="enable-background:new 0 0 672 296;" xml:space="preserve">
<style type="text/css">
	.st0{fill:#FFFFFF;}
</style>
<g>
	<g>
		<path class="st0" d="M470,224.1c-1.8,5.4-4.3,10.2-7.7,14.4s-7.2,7.6-11.6,10.4c-4.4,2.8-9.2,4.9-14.4,6.3
			c-5.2,1.4-10.6,2.1-16.2,2.1c-9.3,0-17.5-1.4-24.6-4.2s-13.1-6.8-18-12s-8.5-11.4-11.1-18.8s-3.8-15.5-3.8-24.5
			c0-8.3,1.4-16,4.1-23.1c2.8-7.1,6.6-13.3,11.6-18.6s11-9.4,17.9-12.4c7-3,14.7-4.5,23.2-4.5c5.4,0,10.7,0.7,15.7,2
			c5,1.3,9.6,3.3,13.9,5.9c4.3,2.6,8.1,5.8,11.5,9.7s6.1,8.4,8.3,13.5l-18.4,7.8c-1.2-3.1-2.8-6-4.8-8.7c-2-2.6-4.3-4.9-6.9-6.8
			c-2.6-1.9-5.4-3.4-8.5-4.4c-3.1-1.1-6.4-1.6-9.9-1.6c-6.1,0-11.3,1.2-15.6,3.6c-4.3,2.4-7.9,5.5-10.7,9.5
			c-2.8,3.9-4.8,8.4-6.1,13.5s-2,10.2-2,15.5c0,5.6,0.7,10.8,2.1,15.7c1.4,4.9,3.5,9.3,6.4,13s6.5,6.7,10.9,8.9
			c4.4,2.2,9.6,3.3,15.5,3.3c3.8,0,7.3-0.6,10.5-1.6c3.3-1.1,6.2-2.6,8.9-4.7c2.6-2,5-4.4,7-7.3c2-2.8,3.6-6,4.9-9.4L470,224.1z"/>
		<path class="st0" d="M485.4,137.6l20.1-8.7v126.8h-20.1V137.6z"/>
		<path class="st0" d="M526.9,147.5c0-1.7,0.3-3.2,0.9-4.6s1.5-2.6,2.6-3.6c1.1-1,2.4-1.8,3.8-2.4s3-0.8,4.6-0.8
			c1.6,0,3.1,0.3,4.5,0.9c1.4,0.6,2.7,1.4,3.7,2.4c1.1,1,1.9,2.2,2.5,3.6c0.6,1.4,0.9,2.9,0.9,4.6c0,1.6-0.3,3.1-0.9,4.6
			s-1.4,2.6-2.4,3.6c-1,1-2.2,1.8-3.7,2.4c-1.4,0.6-3,0.9-4.6,0.9c-1.6,0-3.2-0.3-4.6-0.9c-1.5-0.6-2.8-1.4-3.8-2.4s-2-2.2-2.6-3.6
			C527.2,150.6,526.9,149.1,526.9,147.5z M528.7,171.8h20.1v83.9h-20.1V171.8z"/>
		<path class="st0" d="M632.9,241.9c-1.4,2.4-3.2,4.6-5.4,6.4c-2.2,1.9-4.6,3.5-7.2,4.8c-2.6,1.3-5.3,2.4-8.2,3.1
			c-2.8,0.7-5.6,1.1-8.3,1.1c-6.4,0-12-1.2-16.8-3.5c-4.7-2.3-8.7-5.5-11.8-9.4c-3.1-3.9-5.4-8.6-6.9-13.9
			c-1.5-5.3-2.3-10.9-2.3-16.8c0-5.8,0.8-11.3,2.5-16.6c1.7-5.3,4.2-10,7.4-14c3.3-4,7.3-7.2,12-9.6c4.8-2.4,10.2-3.6,16.4-3.6
			c5.9,0,11.3,1.2,16.4,3.6s9.1,6.1,12.1,11.2v-12.9h20v112.8h-20L632.9,241.9L632.9,241.9z M609.3,241.6c4.3,0,8-0.8,11.1-2.3
			s5.5-3.6,7.5-6.2c1.9-2.6,3.3-5.7,4.2-9.1s1.3-7.1,1.3-10.9c0-3.8-0.4-7.3-1.3-10.7c-0.9-3.4-2.2-6.2-4.1-8.7
			c-1.9-2.5-4.2-4.4-7.2-5.9s-6.5-2.2-10.7-2.2c-4.4,0-8.1,0.8-11.1,2.4c-3,1.6-5.4,3.7-7.3,6.4s-3.2,5.8-4,9.3
			c-0.8,3.5-1.2,7.2-1.2,11.1c0,3.5,0.5,6.9,1.4,10.1c0.9,3.2,2.3,6.1,4.2,8.6c1.9,2.5,4.2,4.5,7.1,6S605.4,241.6,609.3,241.6z"/>
	</g>
	<g>
		<g>
			<path class="st0" d="M368.7,104.4l37-53.4h-33.2V40.5H423v5.2L387,99.1h35v10.5h-53.3L368.7,104.4L368.7,104.4z"/>
			<path class="st0" d="M426.4,84.5c0-4,0.8-7.6,2.3-10.8c1.5-3.3,3.6-6.1,6.2-8.4c2.6-2.3,5.6-4.1,9-5.4s7-1.9,10.9-1.9
				c3.8,0,7.4,0.6,10.7,1.9c3.3,1.3,6.2,3.1,8.6,5.4s4.4,5.1,5.7,8.3c1.4,3.2,2.1,6.8,2.1,10.7c0,4-0.7,7.6-2.2,10.8
				c-1.5,3.2-3.4,6-5.9,8.3c-2.5,2.3-5.4,4.1-8.8,5.3c-3.4,1.3-7,1.9-10.8,1.9c-3.8,0-7.5-0.6-10.9-1.9c-3.4-1.3-6.3-3.1-8.8-5.4
				c-2.5-2.3-4.5-5.1-5.9-8.2C427.1,91.9,426.4,88.3,426.4,84.5z M454.5,101.3c2.5,0,4.7-0.5,6.5-1.4s3.3-2.2,4.5-3.8
				c1.2-1.6,2-3.4,2.6-5.4c0.5-2.1,0.8-4.2,0.8-6.4c0-2.3-0.3-4.5-0.9-6.6c-0.6-2.1-1.5-3.9-2.7-5.4c-1.2-1.6-2.7-2.8-4.6-3.7
				s-4-1.3-6.5-1.3c-2.5,0-4.7,0.5-6.5,1.4s-3.3,2.2-4.4,3.8c-1.1,1.6-2,3.4-2.5,5.5c-0.5,2.1-0.8,4.3-0.8,6.6
				c0,2.2,0.3,4.4,0.9,6.4s1.5,3.8,2.7,5.3c1.2,1.5,2.7,2.7,4.5,3.6C449.9,100.9,452,101.3,454.5,101.3z"/>
			<path class="st0" d="M490.7,36.1h12.1v31c0.8-1.6,1.8-2.9,3-4.1c1.2-1.2,2.5-2.1,4-2.8c1.5-0.7,3-1.3,4.7-1.7s3.4-0.5,5.1-0.5
				c3,0,5.7,0.5,7.9,1.5s4.2,2.4,5.7,4.2c1.5,1.8,2.7,3.9,3.4,6.3c0.8,2.4,1.1,5.1,1.1,8v31.7h-12.2V79.2c0-3.7-0.9-6.4-2.8-8.4
				s-4.5-2.9-8.1-2.9c-3.9,0-6.9,1.1-9,3.3s-3.1,5.1-3.1,8.7v29.7h-12.1L490.7,36.1L490.7,36.1z"/>
			<path class="st0" d="M545.8,84.5c0-4,0.8-7.6,2.3-10.8c1.5-3.3,3.6-6.1,6.2-8.4c2.6-2.3,5.6-4.1,9-5.4s7-1.9,10.8-1.9
				c3.8,0,7.4,0.6,10.7,1.9c3.3,1.3,6.2,3.1,8.6,5.4s4.4,5.1,5.7,8.3c1.4,3.2,2.1,6.8,2.1,10.7c0,4-0.7,7.6-2.2,10.8
				c-1.5,3.2-3.4,6-5.9,8.3c-2.5,2.3-5.4,4.1-8.8,5.3c-3.4,1.3-7,1.9-10.8,1.9c-3.8,0-7.5-0.6-10.8-1.9c-3.4-1.3-6.3-3.1-8.8-5.4
				c-2.5-2.3-4.5-5.1-5.9-8.2C546.5,91.9,545.8,88.3,545.8,84.5z M573.9,101.3c2.5,0,4.7-0.5,6.5-1.4s3.3-2.2,4.5-3.8
				c1.2-1.6,2-3.4,2.6-5.4c0.5-2.1,0.8-4.2,0.8-6.4c0-2.3-0.3-4.5-0.9-6.6c-0.6-2.1-1.5-3.9-2.7-5.4c-1.2-1.6-2.7-2.8-4.6-3.7
				s-4-1.3-6.5-1.3c-2.5,0-4.7,0.5-6.5,1.4s-3.3,2.2-4.4,3.8c-1.1,1.6-2,3.4-2.5,5.5c-0.5,2.1-0.8,4.3-0.8,6.6
				c0,2.2,0.3,4.4,0.9,6.4s1.5,3.8,2.7,5.3c1.2,1.5,2.7,2.7,4.5,3.6C569.3,100.9,571.4,101.3,573.9,101.3z"/>
		</g>
	</g>
</g>
<g>
	<g>
		<g>
			<path class="st0" d="M147.9,287.9c-1.6,0-3.1-0.4-4.6-1.3c-4-2.5-5.1-7.8-2.6-11.7l39.4-61.5c1.6-2.4,4.2-3.9,7.2-3.9h85.5
				c7.8,0,14.2-6.3,14.2-14.2V39c0-7.8-6.3-14.2-14.2-14.2h-89.5c-4.7,0-8.5-3.8-8.5-8.5s3.8-8.5,8.5-8.5h89.5
				c17.2,0,31.1,14,31.1,31.2v156.4c0,17.2-14,31.1-31.1,31.1H192L155.1,284C153.5,286.5,150.8,287.9,147.9,287.9z M108.6,226.5
				H45.2c-17.2,0-31.1-14-31.1-31.1V39C14,21.8,28,7.8,45.2,7.8h80.5c4.7,0,8.5,3.8,8.5,8.5s-3.8,8.5-8.5,8.5H45.2
				C37.3,24.8,31,31.1,31,39v156.3c0,7.8,6.3,14.2,14.2,14.2h63.5c4.7,0,8.5,3.8,8.5,8.5C117.1,222.7,113.3,226.5,108.6,226.5z"/>
		</g>
		<g>
			<path class="st0" d="M147.9,287.9c-1.6,0-3.1-0.4-4.6-1.3c-4-2.5-5.1-7.8-2.6-11.7l39.4-61.5c1.6-2.4,4.2-3.9,7.2-3.9h85.5
				c7.8,0,14.2-6.3,14.2-14.2V39c0-7.8-6.3-14.2-14.2-14.2h-89.5c-4.7,0-8.5-3.8-8.5-8.5s3.8-8.5,8.5-8.5h89.5
				c17.2,0,31.1,14,31.1,31.2v156.4c0,17.2-14,31.1-31.1,31.1H192L155.1,284C153.5,286.5,150.8,287.9,147.9,287.9z M108.6,226.5
				H45.2c-17.2,0-31.1-14-31.1-31.1V39C14,21.8,28,7.8,45.2,7.8h80.5c4.7,0,8.5,3.8,8.5,8.5s-3.8,8.5-8.5,8.5H45.2
				C37.3,24.8,31,31.1,31,39v156.3c0,7.8,6.3,14.2,14.2,14.2h63.5c4.7,0,8.5,3.8,8.5,8.5C117.1,222.7,113.3,226.5,108.6,226.5z"/>
		</g>
	</g>
	<g>
		<g>
			<g>
				<circle class="st0" cx="221.3" cy="117.4" r="15.6"/>
			</g>
			<g>
				<ellipse class="st0" cx="159" cy="117.4" rx="15.6" ry="15.6"/>
			</g>
			<g>
				<circle class="st0" cx="96.7" cy="117.4" r="15.6"/>
			</g>
		</g>
		<g>
			<g>
				<circle class="st0" cx="221.3" cy="117.4" r="15.6"/>
			</g>
			<g>
				<ellipse class="st0" cx="159" cy="117.4" rx="15.6" ry="15.6"/>
			</g>
			<g>
				<circle class="st0" cx="96.7" cy="117.4" r="15.6"/>
			</g>
		</g>
	</g>
</g>
</svg>
