<?xml version="1.0" encoding="UTF-8"?>
<svg id="Layer_2" data-name="Layer 2" xmlns="http://www.w3.org/2000/svg" viewBox="0 0 288 226.75">
  <defs>
    <style>
      .cls-1 {
        fill: #009d54;
      }

      .cls-2 {
        fill: #007ac1;
      }
    </style>
  </defs>
  <g id="Layer_1" data-name="Layer 1">
    <g>
      <path class="cls-1" d="M224.85,66.36c-1.64-8.29-4.53-16.13-8.46-23.34l-17.63,18.42c1.96,5.1,3.22,10.53,3.67,16.19.01.09.03.17.03.26.12,1.49.17,2.99.17,4.51,0,32.33-26.31,58.63-58.63,58.63s-58.62-26.3-58.62-58.63c0-8.28,1.73-16.16,4.85-23.31h0s-19.7-13.99-19.7-13.99c-3.37,6.62-5.88,13.77-7.36,21.27-1.03,5.18-1.57,10.54-1.57,16.03,0,3.05.17,6.07.49,9.03,4.51,41.21,39.52,73.39,81.91,73.39s77.43-32.2,81.93-73.43c.33-2.95.49-5.95.49-8.99,0-5.48-.54-10.85-1.57-16.04ZM144.01,23.79c7.39,0,14.46,1.37,20.97,3.88l18.05-17.83c-11.62-6.28-24.91-9.84-39.02-9.84-27.76,0-52.35,13.8-67.29,34.9l19.39,13.77c10.61-15.04,28.13-24.88,47.9-24.88Z"/>
      <path class="cls-2" d="M288,145.55c0,21.7-8.44,42.09-23.79,57.41-15.32,15.33-35.7,23.79-57.4,23.79h-125.61C36.43,226.75,0,190.32,0,145.55c0-21.68,8.46-42.07,23.8-57.41,10.84-10.84,24.58-18.38,39.38-21.76-1.03,5.18-1.57,10.54-1.57,16.03,0,3.05.17,6.07.49,9.03-8.02,2.81-15.39,7.44-21.49,13.53-10.84,10.85-16.82,25.27-16.82,40.59,0,31.66,25.77,57.41,57.42,57.41h125.61c15.34,0,29.76-5.97,40.58-16.82,10.85-10.84,16.82-25.25,16.82-40.59,0-24.9-15.75-46.29-38.28-54.16.33-2.95.49-5.95.49-8.99,0-5.48-.54-10.85-1.57-16.04,36.59,8.23,63.15,40.78,63.15,79.19Z"/>
      <polygon class="cls-1" points="194.43 17.27 177.08 34.04 132.11 77.47 148.94 94.3 192.24 49.12 208.93 31.7 194.43 17.27"/>
    </g>
  </g>
</svg>