<?xml version="1.0" encoding="UTF-8"?>
<svg id="Layer_2" data-name="Layer 2" xmlns="http://www.w3.org/2000/svg" viewBox="0 0 1821.01 243.11">
  <defs>
    <style>
      .cls-1 {
        fill: #231f20;
      }

      .cls-2 {
        fill: #009d54;
      }

      .cls-3 {
        fill: #007ac1;
      }
    </style>
  </defs>
  <g id="Layer_1" data-name="Layer 1">
    <g>
      <g>
        <path class="cls-1" d="M564.62,152.22c-2.68,8.19-6.53,15.39-11.57,21.6-5.04,6.22-10.86,11.45-17.47,15.7-6.61,4.17-13.85,7.32-21.72,9.44-7.87,2.12-15.98,3.19-24.32,3.19-13.93,0-26.26-2.12-37-6.37-10.74-4.25-19.77-10.27-27.09-18.06-7.32-7.79-12.87-17.21-16.64-28.27-3.78-11.06-5.67-23.35-5.67-36.89,0-12.43,2.07-24,6.2-34.7,4.13-10.7,9.93-20.03,17.41-27.98,7.47-7.87,16.47-14.06,26.97-18.59,10.5-4.52,22.13-6.79,34.88-6.79,8.18,0,16.03.98,23.55,2.95,7.51,1.97,14.5,4.88,20.95,8.73,6.45,3.94,12.22,8.81,17.29,14.64,5.08,5.82,9.23,12.59,12.45,20.3l-27.62,11.69c-1.81-4.72-4.21-9.07-7.2-13.04-2.99-3.97-6.45-7.38-10.39-10.21-3.86-2.83-8.13-5.04-12.81-6.61-4.68-1.57-9.62-2.36-14.81-2.36-9.13,0-16.96,1.79-23.49,5.37-6.53,3.58-11.88,8.32-16.05,14.22-4.17,5.9-7.24,12.65-9.21,20.24-1.97,7.59-2.95,15.37-2.95,23.31,0,8.34,1.04,16.23,3.13,23.67,2.08,7.44,5.29,13.99,9.62,19.65,4.33,5.59,9.8,10.03,16.41,13.34,6.61,3.3,14.4,4.96,23.37,4.96,5.67,0,10.96-.84,15.88-2.54,4.92-1.69,9.34-4.03,13.28-7.02,4.01-3.07,7.51-6.71,10.5-10.92,2.99-4.21,5.47-8.91,7.44-14.11l26.68,11.45Z"/>
        <path class="cls-1" d="M587.87,199.79V22.15l30.22-13.1v190.75h-30.22Z"/>
        <path class="cls-1" d="M659.99,183.97c-6.3-5.74-11.25-12.61-14.87-20.6-3.62-7.99-5.43-16.82-5.43-26.5s1.91-18.95,5.72-27.09c3.82-8.14,8.95-15.13,15.4-20.95,6.45-5.74,13.95-10.21,22.49-13.4,8.54-3.19,17.57-4.78,27.09-4.78s18.53,1.59,26.79,4.78c8.26,3.19,15.42,7.69,21.48,13.52,6.14,5.75,10.94,12.65,14.4,20.72,3.46,8.07,5.19,16.94,5.19,26.62s-1.81,18.93-5.43,27.03c-3.62,8.11-8.58,15.03-14.87,20.77-6.22,5.75-13.54,10.19-21.96,13.34-8.42,3.15-17.39,4.72-26.91,4.72s-18.63-1.59-27.09-4.78c-8.46-3.19-15.8-7.65-22.01-13.4ZM682.54,166.51c3.07,3.78,6.86,6.79,11.39,9.03,4.52,2.24,9.86,3.36,15.99,3.36s11.7-1.18,16.23-3.54c4.52-2.36,8.24-5.47,11.15-9.33,2.91-3.93,5.06-8.46,6.43-13.57,1.38-5.11,2.07-10.43,2.07-15.94,0-5.82-.75-11.31-2.24-16.47-1.5-5.15-3.74-9.66-6.73-13.52-3.07-3.93-6.89-7.02-11.45-9.27-4.57-2.24-9.96-3.36-16.17-3.36s-11.82,1.18-16.35,3.54c-4.53,2.36-8.2,5.51-11.04,9.44-2.83,4.01-4.92,8.64-6.26,13.87-1.34,5.23-2.01,10.76-2.01,16.58s.75,10.9,2.24,15.93c1.49,5.04,3.74,9.44,6.73,13.22Z"/>
        <path class="cls-1" d="M885.09,199.79v-19.83c-1.97,3.86-4.43,7.18-7.38,9.97-2.95,2.79-6.24,5.1-9.86,6.9-3.62,1.81-7.5,3.15-11.63,4.01-4.13.86-8.4,1.3-12.81,1.3-7.24,0-13.63-1.14-19.18-3.42-5.55-2.28-10.17-5.51-13.87-9.68-3.78-4.25-6.61-9.3-8.5-15.17-1.89-5.86-2.83-12.37-2.83-19.54v-80.97h30.22v77.31c0,8.66,2.05,15.46,6.14,20.42,4.09,4.96,10.54,7.44,19.36,7.44,4.72,0,8.95-.73,12.69-2.18,3.74-1.46,6.94-3.52,9.62-6.2,2.6-2.6,4.58-5.76,5.96-9.5,1.38-3.74,2.07-7.85,2.07-12.33v-74.95h30.1v126.42h-30.1Z"/>
        <path class="cls-1" d="M1040.66,199.79v-21.25c-2.12,3.62-4.82,6.91-8.09,9.86-3.27,2.95-6.87,5.41-10.8,7.38-3.86,2.05-7.93,3.62-12.22,4.72-4.29,1.1-8.52,1.65-12.69,1.65-9.68,0-18.08-1.75-25.2-5.25-7.12-3.5-13-8.24-17.65-14.22-4.72-5.9-8.22-12.83-10.5-20.77-2.28-7.95-3.42-16.37-3.42-25.26s1.26-16.98,3.78-24.96c2.52-7.99,6.22-15.01,11.1-21.07,4.96-6.06,11.02-10.9,18.18-14.52,7.16-3.62,15.38-5.43,24.67-5.43,4.41,0,8.69.43,12.87,1.3,4.17.87,8.1,2.24,11.8,4.13,3.7,1.81,7.1,4.11,10.21,6.91,3.11,2.79,5.76,6.08,7.97,9.86V16.13h30.1v183.67h-30.1ZM979.17,166.15c2.83,3.78,6.47,6.79,10.92,9.03,4.44,2.24,9.74,3.36,15.88,3.36s11.57-1.16,16.05-3.48c4.49-2.32,8.14-5.45,10.98-9.38,2.91-3.93,5.04-8.5,6.37-13.69,1.34-5.19,2.01-10.7,2.01-16.52s-.65-11.11-1.95-16.11c-1.3-5-3.36-9.34-6.2-13.04-2.83-3.78-6.47-6.73-10.92-8.85-4.45-2.12-9.82-3.19-16.11-3.19-6.61,0-12.16,1.18-16.64,3.54-4.49,2.36-8.11,5.55-10.86,9.56-2.83,4.01-4.84,8.66-6.02,13.93-1.18,5.27-1.77,10.82-1.77,16.64,0,5.27.67,10.37,2.01,15.29,1.34,4.92,3.42,9.23,6.26,12.92Z"/>
        <path class="cls-1" d="M1118.45,147.74c1.81,4.96,4.21,9.29,7.2,12.98,2.99,3.7,6.45,6.81,10.39,9.33,3.93,2.52,8.26,4.41,12.98,5.67,4.72,1.26,9.72,1.89,14.99,1.89,4.01,0,7.97-.53,11.86-1.59,3.89-1.06,7.38-2.69,10.45-4.9,3.07-2.12,5.57-4.86,7.5-8.2,1.93-3.34,2.89-7.26,2.89-11.74,0-4.8-1.1-8.69-3.3-11.69-2.2-2.99-5.12-5.39-8.74-7.2-3.7-1.89-7.95-3.36-12.75-4.43-4.8-1.06-9.84-2.07-15.11-3.01-4.49-.79-8.97-1.67-13.46-2.66-4.49-.98-8.81-2.22-12.98-3.72-4.17-1.49-8.07-3.38-11.69-5.67-3.62-2.28-6.77-5.15-9.44-8.62-2.68-3.46-4.78-7.61-6.31-12.45s-2.3-10.56-2.3-17.17c0-8.26,1.71-15.52,5.13-21.78s7.93-11.47,13.51-15.64c5.59-4.25,11.94-7.42,19.06-9.5,7.12-2.08,14.42-3.13,21.9-3.13,6.92,0,13.57.73,19.95,2.18,6.37,1.46,12.31,3.72,17.82,6.79,5.43,3.15,10.29,7.12,14.58,11.92,4.29,4.8,7.77,10.58,10.45,17.35l-24.55,11.1c-3.7-7.63-8.85-13.61-15.46-17.94-6.61-4.33-14.32-6.49-23.13-6.49-3.54,0-6.98.4-10.33,1.18-3.35.79-6.36,2.09-9.03,3.9-2.6,1.81-4.7,4.15-6.32,7.02-1.61,2.87-2.42,6.43-2.42,10.68,0,4.64,1.02,8.42,3.07,11.33,2.05,2.91,4.8,5.27,8.26,7.08,3.54,1.81,7.63,3.25,12.28,4.31,4.64,1.06,9.6,2.07,14.87,3.01,4.49.79,9.05,1.65,13.69,2.6,4.64.94,9.13,2.17,13.46,3.66,4.33,1.5,8.38,3.4,12.16,5.72,3.78,2.32,7.08,5.21,9.92,8.68,2.83,3.46,5.06,7.63,6.67,12.51,1.61,4.88,2.42,10.7,2.42,17.47,0,5.82-.87,11.19-2.6,16.11-1.73,4.92-4.09,9.38-7.08,13.4-2.99,3.94-6.53,7.42-10.62,10.45-4.09,3.03-8.54,5.53-13.34,7.5-4.8,2.05-9.82,3.58-15.05,4.6-5.23,1.02-10.53,1.53-15.88,1.53-7.79,0-15.44-.75-22.96-2.24-7.52-1.49-14.5-3.93-20.95-7.32-6.45-3.38-12.1-7.83-16.94-13.34-4.84-5.51-8.44-12.28-10.8-20.3l26.09-11.21Z"/>
        <path class="cls-1" d="M1254.07,243.11V73.37h30.22v20.42c2.2-3.7,4.9-6.98,8.09-9.86,3.19-2.87,6.71-5.29,10.56-7.26,3.78-1.97,7.77-3.46,11.98-4.49,4.21-1.02,8.44-1.53,12.69-1.53,9.68,0,18.1,1.79,25.26,5.37,7.16,3.58,13.1,8.4,17.82,14.46,4.72,6.06,8.26,13.02,10.62,20.89,2.36,7.87,3.54,16.13,3.54,24.79s-1.24,17.33-3.72,25.32c-2.48,7.99-6.08,14.97-10.8,20.95-4.8,6.06-10.7,10.86-17.71,14.4-7,3.54-15.07,5.31-24.2,5.31-4.41,0-8.79-.45-13.16-1.36-4.37-.91-8.48-2.26-12.33-4.07-3.94-1.81-7.5-4.11-10.68-6.91-3.19-2.79-5.84-6.08-7.97-9.86v63.15h-30.22ZM1291.85,166.62c2.91,3.7,6.63,6.61,11.15,8.73,4.52,2.12,9.93,3.19,16.23,3.19,6.69,0,12.23-1.16,16.64-3.48,4.41-2.32,7.95-5.45,10.62-9.38,2.6-3.93,4.45-8.5,5.55-13.69,1.1-5.19,1.65-10.7,1.65-16.52,0-5.35-.69-10.51-2.07-15.46-1.38-4.96-3.48-9.33-6.31-13.1-2.91-3.85-6.59-6.92-11.04-9.21-4.45-2.28-9.78-3.42-15.99-3.42s-11.55,1.16-15.99,3.48c-4.45,2.32-8.09,5.45-10.92,9.38-2.83,3.86-4.9,8.38-6.2,13.57-1.3,5.19-1.95,10.62-1.95,16.29s.69,11.37,2.07,16.41c1.38,5.04,3.56,9.44,6.55,13.22Z"/>
        <path class="cls-1" d="M1431.96,143.25c0,5.35.77,10.29,2.3,14.81,1.53,4.53,3.79,8.4,6.79,11.63,3.07,3.31,6.79,5.88,11.15,7.73,4.37,1.85,9.42,2.77,15.17,2.77,6.92,0,13.1-1.46,18.53-4.37,5.43-2.91,9.8-7.59,13.1-14.05l23.61,10.51c-2.6,5.59-5.92,10.29-9.97,14.11-4.05,3.82-8.52,6.87-13.4,9.15-4.96,2.36-10.25,4.05-15.88,5.08-5.63,1.02-11.35,1.53-17.17,1.53-9.99,0-19-1.59-27.03-4.78s-14.83-7.69-20.42-13.52c-5.67-5.74-10.01-12.67-13.04-20.77-3.03-8.1-4.54-17.07-4.54-26.91,0-9.28,1.53-17.92,4.6-25.91,3.07-7.99,7.4-14.89,12.98-20.72,5.59-5.9,12.28-10.52,20.07-13.87,7.79-3.34,16.45-5.02,25.97-5.02,20.46,0,35.71,6,45.74,18,10.03,12,15.05,30.2,15.05,54.59h-93.6ZM1495.46,123.42c-.24-4.8-1.12-9.11-2.66-12.92-1.53-3.82-3.6-7.02-6.2-9.62-2.6-2.67-5.71-4.72-9.33-6.14-3.62-1.42-7.67-2.12-12.16-2.12-4.72,0-8.97.79-12.75,2.36-3.78,1.58-7.04,3.74-9.8,6.49-2.68,2.76-4.88,6-6.61,9.74-1.73,3.74-2.91,7.81-3.54,12.22h63.03Z"/>
        <path class="cls-1" d="M1549.88,199.79v-126.42h30.22v20.07c2.04-3.93,4.6-7.32,7.67-10.15,3.07-2.83,6.45-5.19,10.15-7.08,3.7-1.89,7.67-3.28,11.92-4.19,4.25-.9,8.58-1.36,12.98-1.36,7.55,0,14.11,1.26,19.65,3.78,5.55,2.52,10.13,6.02,13.75,10.51,3.62,4.49,6.29,9.78,8.03,15.88,1.73,6.1,2.6,12.73,2.6,19.89v79.08h-30.69v-76.13c0-8.89-2.07-15.8-6.2-20.72-4.13-4.92-10.68-7.38-19.65-7.38-4.72,0-8.95.71-12.69,2.12-3.74,1.42-6.91,3.42-9.5,6.02-2.6,2.6-4.58,5.75-5.96,9.44-1.38,3.7-2.07,7.83-2.07,12.39v74.25h-30.22Z"/>
        <path class="cls-1" d="M1790.91,199.79v-21.25c-2.12,3.62-4.82,6.91-8.09,9.86-3.27,2.95-6.87,5.41-10.8,7.38-3.86,2.05-7.93,3.62-12.22,4.72-4.29,1.1-8.52,1.65-12.69,1.65-9.68,0-18.08-1.75-25.2-5.25-7.12-3.5-13-8.24-17.65-14.22-4.72-5.9-8.22-12.83-10.5-20.77-2.28-7.95-3.42-16.37-3.42-25.26s1.26-16.98,3.78-24.96c2.52-7.99,6.22-15.01,11.1-21.07,4.96-6.06,11.02-10.9,18.18-14.52,7.16-3.62,15.38-5.43,24.67-5.43,4.41,0,8.69.43,12.87,1.3,4.17.87,8.1,2.24,11.8,4.13,3.7,1.81,7.1,4.11,10.21,6.91,3.11,2.79,5.76,6.08,7.97,9.86V16.13h30.1v183.67h-30.1ZM1729.41,166.15c2.83,3.78,6.47,6.79,10.92,9.03,4.44,2.24,9.74,3.36,15.88,3.36s11.57-1.16,16.05-3.48c4.49-2.32,8.14-5.45,10.98-9.38,2.91-3.93,5.04-8.5,6.37-13.69,1.34-5.19,2.01-10.7,2.01-16.52s-.65-11.11-1.95-16.11c-1.3-5-3.36-9.34-6.2-13.04-2.83-3.78-6.47-6.73-10.92-8.85-4.45-2.12-9.82-3.19-16.11-3.19-6.61,0-12.16,1.18-16.64,3.54-4.49,2.36-8.11,5.55-10.86,9.56-2.83,4.01-4.84,8.66-6.02,13.93-1.18,5.27-1.77,10.82-1.77,16.64,0,5.27.67,10.37,2.01,15.29,1.34,4.92,3.42,9.23,6.26,12.92Z"/>
      </g>
      <g>
        <path class="cls-2" d="M224.85,66.36c-1.64-8.29-4.53-16.13-8.46-23.34l-17.63,18.42c1.96,5.1,3.22,10.53,3.67,16.19.01.09.03.17.03.26.12,1.49.17,2.99.17,4.51,0,32.33-26.31,58.63-58.63,58.63s-58.62-26.3-58.62-58.63c0-8.28,1.73-16.16,4.85-23.31h0s-19.7-13.99-19.7-13.99c-3.37,6.62-5.88,13.77-7.36,21.27-1.03,5.18-1.57,10.54-1.57,16.03,0,3.05.17,6.07.49,9.03,4.51,41.21,39.52,73.39,81.91,73.39s77.43-32.2,81.93-73.43c.33-2.95.49-5.95.49-8.99,0-5.48-.54-10.85-1.57-16.04ZM144.01,23.79c7.39,0,14.46,1.37,20.97,3.88l18.05-17.83c-11.62-6.28-24.91-9.84-39.02-9.84-27.76,0-52.35,13.8-67.29,34.9l19.39,13.77c10.61-15.04,28.13-24.88,47.9-24.88Z"/>
        <path class="cls-3" d="M288,145.55c0,21.7-8.44,42.09-23.79,57.41-15.32,15.33-35.7,23.79-57.4,23.79h-125.61C36.43,226.75,0,190.32,0,145.55c0-21.68,8.46-42.07,23.8-57.41,10.84-10.84,24.58-18.38,39.38-21.76-1.03,5.18-1.57,10.54-1.57,16.03,0,3.05.17,6.07.49,9.03-8.02,2.81-15.39,7.44-21.49,13.53-10.84,10.85-16.82,25.27-16.82,40.59,0,31.66,25.77,57.41,57.42,57.41h125.61c15.34,0,29.76-5.97,40.58-16.82,10.85-10.84,16.82-25.25,16.82-40.59,0-24.9-15.75-46.29-38.28-54.16.33-2.95.49-5.95.49-8.99,0-5.48-.54-10.85-1.57-16.04,36.59,8.23,63.15,40.78,63.15,79.19Z"/>
        <polygon class="cls-2" points="194.43 17.27 177.08 34.04 132.11 77.47 148.94 94.3 192.24 49.12 208.93 31.7 194.43 17.27"/>
      </g>
    </g>
  </g>
</svg>