<?xml version="1.0" encoding="utf-8"?>
<!-- Generator: Adobe Illustrator 27.5.0, SVG Export Plug-In . SVG Version: 6.00 Build 0)  -->
<svg version="1.1" id="Layer_1" xmlns="http://www.w3.org/2000/svg" xmlns:xlink="http://www.w3.org/1999/xlink" x="0px" y="0px"
	 viewBox="0 0 1024 1024" style="enable-background:new 0 0 1024 1024;" xml:space="preserve">
<style type="text/css">
	.st0{fill:#226DB4;}
	.st1{fill:#E42527;}
</style>
<g>
	<path class="st0" d="M532.6,1003.9L532.6,1003.9c-34.8,0-67.4-13.5-92-38.2L8.8,533.2c-11.7-11.7-11.7-30.7,0-42.4L440.7,58.3
		c24.6-24.6,57.2-38.2,92-38.2l0,0c34.8,0,67.4,13.5,92,38.2l153.6,153.9c11.7,11.7,11.7,30.7,0,42.4L521.3,512l257,257.4
		c11.7,11.7,11.7,30.7,0,42.4l-153.7,154C600,990.3,567.4,1003.9,532.6,1003.9z M72.4,512l410.7,411.3
		c13.2,13.2,30.8,20.5,49.5,20.5l0,0c18.7,0,36.3-7.3,49.5-20.5l132.6-132.7l-257-257.4c-11.7-11.7-11.7-30.7,0-42.4l257-257.4
		L582.3,100.7c-13.2-13.2-30.8-20.5-49.5-20.5s-36.3,7.3-49.5,20.5L72.4,512z"/>
</g>
<g>
	<path class="st1" d="M863.1,714.5c-8,0-15.6-3.2-21.2-8.8L669.6,533.2c-11.7-11.7-11.7-30.7,0-42.4l172.3-172.5
		c5.6-5.6,13.3-8.8,21.2-8.8c8,0,15.6,3.2,21.2,8.8L986,420.1c50.6,50.6,50.6,133.1,0,183.7L884.3,705.7
		C878.7,711.3,871,714.5,863.1,714.5z M733.2,512l129.9,130.1l80.5-80.6c27.2-27.3,27.2-71.6,0-98.9L863.1,382L733.2,512z"/>
</g>
</svg>
