<?xml version="1.0" encoding="utf-8"?>
<!-- Generator: Adobe Illustrator 27.3.1, SVG Export Plug-In . SVG Version: 6.00 Build 0)  -->
<svg version="1.1" id="Layer_1" xmlns="http://www.w3.org/2000/svg" xmlns:xlink="http://www.w3.org/1999/xlink" x="0px" y="0px"
	 viewBox="0 0 713.8 296" style="enable-background:new 0 0 713.8 296;" xml:space="preserve">
<style type="text/css">
	.st0{fill:#FFFFFF;}
</style>
<g id="w_text">
	<path class="st0" d="M458.6,224.1c-7.1,21.8-27.7,33.2-49.9,33.2c-37,0-57.4-23.5-57.4-59.6c0-33,22.9-58.5,56.8-58.5
		c21.7,0,40.7,10.4,49.4,31l-18.4,7.8c-4.9-12.6-16.2-21.4-30.1-21.4c-24.3,0-34.4,20.8-34.4,42s11,41,34.9,41
		c15.1,0,26.1-9.2,31.3-23L458.6,224.1L458.6,224.1z"/>
	<path class="st0" d="M474.9,140.8h41.6c23,0,43.2,8.5,43.2,34.5c0,16.4-9.8,27-25.4,30.8l32.3,49.5h-24l-29.9-46.3h-15.5v46.3
		h-22.3L474.9,140.8L474.9,140.8z M515.8,194c12.8,0,22.2-4.9,22.2-18.6s-10-17.6-22.2-17.6h-18.7V194H515.8z"/>
	<path class="st0" d="M581.8,140.8H610l33.1,83.7l32.9-83.7h27.5v114.9H683v-87.6l-36.2,87.6h-9.9l-35-87.6v87.6h-20.1L581.8,140.8
		L581.8,140.8z"/>
	<path class="st0" d="M357.1,104.4l37-53.4h-33.2V40.5h50.6v5.2l-36.1,53.4h35v10.5h-53.3L357.1,104.4L357.1,104.4z"/>
	<path class="st0" d="M443.1,58c15.4,0,27.2,10.8,27.2,26.3s-12.4,26.4-27.7,26.4s-27.8-10.7-27.8-26.1S427.8,58,443.1,58z
		 M457.2,84.3c0-9.3-4.7-17.1-14.6-17.1s-14.3,8.1-14.3,17.4s4.8,16.6,14.6,16.6S457.2,93.2,457.2,84.3L457.2,84.3z"/>
	<path class="st0" d="M478.5,36.1h12.1v31c3.3-6.3,9.9-9.1,16.9-9.1c12.1,0,18.1,8.5,18.1,20v31.7h-12.2V79.2
		c0-7.3-3.8-11.2-10.8-11.2c-7.8,0-12,4.8-12,12v29.7h-12.1L478.5,36.1L478.5,36.1z"/>
	<path class="st0" d="M561.3,58c15.4,0,27.2,10.8,27.2,26.3s-12.4,26.4-27.7,26.4S533,99.9,533,84.5S546.1,58,561.3,58z M575.5,84.3
		c0-9.3-4.7-17.1-14.7-17.1s-14.3,8.1-14.3,17.4s4.8,16.6,14.6,16.6S575.5,93.2,575.5,84.3L575.5,84.3z"/>
</g>
<g id="logo">
	<path class="st0" d="M204.3,239.2c-24.2,0-47-9.4-64.2-26.4l-50.2-50.2c-5.8-5.9-9.1-13.6-9-21.9c0-8.3,3.3-16,9.2-21.8
		c12-11.9,31.5-11.8,43.5,0.1l46,46c5.4,5.4,14.2,5.4,19.6,0.1c2.6-2.6,4.1-6.1,4.1-9.8c0-3.7-1.4-7.2-4.1-9.9l-50.2-50.2
		c-14-13.9-32.6-21.5-52.4-21.4c-20.1,0.1-38.9,8-52.9,22.3c-14,14.3-21.5,33.3-21.1,53.5c0.8,40.1,34.1,72.8,74.2,72.8
		c7.2,0,14.3-1,21.1-3c4.5-1.3,9.2,1.2,10.5,5.7c1.3,4.5-1.2,9.2-5.7,10.6c-8.4,2.5-17.1,3.7-25.9,3.7c-49.3,0-90.2-40.1-91.2-89.4
		c-0.5-24.8,8.7-48.1,26-65.7c17.2-17.6,40.3-27.3,65.1-27.4c24.2-0.1,47.1,9.3,64.4,26.4l50.2,50.2c5.9,5.9,9.1,13.6,9.1,21.9
		s-3.3,16.1-9.2,21.9c-12,11.9-31.6,11.9-43.6-0.1l-46-46c-5.4-5.4-14.1-5.4-19.5-0.1c-2.6,2.6-4.1,6.1-4.1,9.8
		c0,3.7,1.4,7.2,4.1,9.8l50.2,50.2c14,13.8,32.5,21.4,52.2,21.4c40.9,0,74.2-33.3,74.2-74.2c0-19.8-7.7-38.5-21.7-52.5
		c-14-14.1-32.7-21.8-52.5-21.8c-6.3,0-12.6,0.8-18.6,2.4c-0.9,0.2-1.8,0.5-2.6,0.7c-4.5,1.3-9.2-1.2-10.6-5.7
		c-1.3-4.5,1.2-9.2,5.7-10.6c1.1-0.3,2.1-0.6,3.2-0.9c7.4-1.9,15.1-2.9,22.9-2.9c24.4,0,47.3,9.5,64.5,26.8s26.7,40.2,26.7,64.6
		C295.4,198.4,254.5,239.2,204.3,239.2L204.3,239.2z"/>
</g>
</svg>
