<?xml version="1.0" encoding="utf-8"?>
<!-- Generator: Adobe Illustrator 27.3.1, SVG Export Plug-In . SVG Version: 6.00 Build 0)  -->
<svg version="1.1" id="Layer_1" xmlns="http://www.w3.org/2000/svg" xmlns:xlink="http://www.w3.org/1999/xlink" x="0px" y="0px"
	 viewBox="0 0 1024 1024" style="enable-background:new 0 0 1024 1024;" xml:space="preserve">
<style type="text/css">
	.st0{fill:#226DB4;}
</style>
<g>
	<g>
		<path class="st0" d="M80.7,825.7c-10.5,0-21-2.1-30.9-6.2c-14.2-5.9-26.3-15.5-35-27.9c-9.4-13.4-14.4-29.3-14.4-46V235.9
			c0-16.8,5-32.7,14.4-46c8.7-12.4,20.8-22,35-27.9c14.2-5.9,29.6-7.6,44.5-5c16.1,2.8,30.9,10.5,42.7,22.4l205.3,205.3
			c11.7,11.7,11.7,30.7,0,42.4s-30.7,11.7-42.4,0L94.5,221.8c-8.5-8.5-18.1-5.9-21.8-4.3c-3.7,1.5-12.3,6.4-12.3,18.5v509.7
			c0,12.1,8.6,16.9,12.3,18.5c3.7,1.5,13.3,4.2,21.8-4.3L759.6,94.7c31.1-31.1,81.8-31.2,113-0.1l15.6,15.5
			c11.7,11.7,11.8,30.7,0.1,42.4s-30.7,11.8-42.4,0.1l-15.6-15.5c-7.8-7.8-20.5-7.8-28.3,0L136.9,802.2
			c-11.8,11.8-26.6,19.6-42.7,22.4C89.7,825.3,85.2,825.7,80.7,825.7z"/>
	</g>
	<g>
		<path class="st0" d="M207.8,952.7c-20.4,0-40.9-7.8-56.5-23.3l-15.4-15.4c-11.7-11.7-11.8-30.7-0.1-42.4s30.7-11.8,42.4-0.1
			l15.4,15.4c7.8,7.8,20.5,7.8,28.3,0l665.1-665.1c11.8-11.9,26.6-19.6,42.7-22.4c14.9-2.6,30.3-0.8,44.5,5
			c14.2,5.9,26.3,15.5,35,27.9c9.4,13.4,14.4,29.3,14.4,46v509.7c0,16.8-5,32.7-14.4,46c-8.7,12.4-20.8,22-35,27.9s-29.6,7.6-44.5,5
			c-16.1-2.8-30.9-10.5-42.7-22.4L681.3,638.9c-11.7-11.7-11.7-30.7,0-42.4c11.7-11.7,30.7-11.7,42.4,0l205.8,205.8
			c8.5,8.5,18.1,5.9,21.8,4.3c3.7-1.5,12.3-6.4,12.3-18.5V278.3c0-12.1-8.6-16.9-12.3-18.5c-3.7-1.5-13.3-4.2-21.8,4.3L264.4,929.3
			C248.8,944.9,228.3,952.7,207.8,952.7z"/>
	</g>
</g>
</svg>
