<?xml version="1.0" encoding="utf-8"?>
<!-- Generator: Adobe Illustrator 27.3.1, SVG Export Plug-In . SVG Version: 6.00 Build 0)  -->
<svg version="1.1" id="Layer_1" xmlns="http://www.w3.org/2000/svg" xmlns:xlink="http://www.w3.org/1999/xlink" x="0px" y="0px"
	 viewBox="0 0 1010 296" style="enable-background:new 0 0 1010 296;" xml:space="preserve">
<style type="text/css">
	.st0{fill:#FFFFFF;}
</style>
<g>
	<g>
		<path class="st0" d="M362.7,140.8h76.4v17.3H385V189h44v16.4h-44v33h56.7v17.3h-79V140.8z"/>
		<path class="st0" d="M479.2,212.6l-27.4-41H475l17.5,27l17.3-27h21l-27.3,39.6l30.1,44.5h-23.4l-19.5-30.2l-20.1,30.2h-21
			L479.2,212.6z"/>
		<path class="st0" d="M547.7,171.6h20.1v13.6c5.8-9.8,17.6-15.4,28.8-15.4c25.7,0,38.1,20.6,38.1,43.6c0,23.6-13.2,43.9-37.5,43.9
			c-11.8,0-23.7-4.7-29.3-14.8v42h-20.1L547.7,171.6L547.7,171.6z M613.9,212.9c0-14.2-7.1-27.4-23.5-27.4
			c-16.6,0-23.3,13.3-23.3,28.4c0,15.6,7.2,27.6,23.9,27.6C608.8,241.6,613.9,228.4,613.9,212.9z"/>
		<path class="st0" d="M726.2,237.4c-7,14.8-22,19.8-37.5,19.8c-26.5,0-43.2-17.7-43.2-43.9c0-24.6,17-43.6,42.3-43.6
			c27.2,0,40.4,15.9,40.4,48.3H666c0,14.2,8.2,24.6,23.5,24.6c9.1,0,16.6-3.7,21-12.2L726.2,237.4z M708.2,204.9
			c-0.6-12.7-8.3-20.5-20.2-20.5c-12.6,0-20,8.9-21.7,20.5H708.2z"/>
		<path class="st0" d="M744.3,171.6h20.1V185c5.4-10.4,16.7-15.1,28.4-15.1c20.2,0,29.3,14.2,29.3,33.3v52.6h-20.4v-50.6
			c0-11.8-5.3-18.7-17.2-18.7c-12.6,0-20.1,7.9-20.1,19.9v49.4h-20.1V171.6L744.3,171.6z"/>
		<path class="st0" d="M852.1,230.6c3.1,8.2,11.7,12.2,20.8,12.2c6.5,0,14.6-2,14.6-10c0-8.4-9.1-10.4-19.5-12.6
			c-13.5-2.8-28.6-6.1-28.6-25c0-17.3,16.1-25.5,31.3-25.5c13.3,0,28.6,5,34.1,18.3l-14.9,6.4c-3.3-7.5-11.5-10.3-18.4-10.3
			c-6.7,0-13.1,2.7-13.1,9.5c0,7.7,8.2,9.3,18.4,11.3c13.7,2.7,30.1,5.8,30.1,25.4c0,19.8-16.6,26.8-34.1,26.8
			c-14.8,0-30.8-5-36-20.1L852.1,230.6z"/>
		<path class="st0" d="M997.8,237.4c-7,14.8-22,19.8-37.5,19.8c-26.5,0-43.2-17.7-43.2-43.9c0-24.6,17-43.6,42.3-43.6
			c27.2,0,40.4,15.9,40.4,48.3h-62.2c0,14.2,8.2,24.6,23.5,24.6c9.1,0,16.6-3.7,21-12.2L997.8,237.4z M979.8,204.9
			c-0.6-12.7-8.3-20.5-20.2-20.5c-12.6,0-20,8.9-21.7,20.5H979.8z"/>
	</g>
	<g>
		<path class="st0" d="M362.8,104.4l37-53.4h-33.2V40.5h50.6v5.2l-36.1,53.4h35v10.5h-53.3V104.4L362.8,104.4z"/>
		<path class="st0" d="M448.9,58c15.4,0,27.2,10.8,27.2,26.3c0,15.9-12.4,26.4-27.7,26.4c-15.4,0-27.8-10.7-27.8-26.1
			C420.5,68.6,433.6,58,448.9,58z M463,84.3c0-9.3-4.7-17.1-14.6-17.1c-10.2,0-14.3,8.1-14.3,17.4c0,9,4.8,16.6,14.6,16.6
			C458.8,101.3,463,93.2,463,84.3z"/>
		<path class="st0" d="M484.9,36.1H497v31c3.3-6.3,9.9-9.1,16.9-9.1c12.1,0,18.2,8.5,18.2,20v31.7h-12.2V79.2
			c0-7.3-3.8-11.2-10.8-11.2c-7.8,0-12,4.8-12,12v29.7H485L484.9,36.1L484.9,36.1z"/>
		<path class="st0" d="M568.2,58c15.4,0,27.2,10.8,27.2,26.3c0,15.9-12.4,26.4-27.7,26.4c-15.4,0-27.8-10.7-27.8-26.1
			C539.9,68.6,553,58,568.2,58z M582.4,84.3c0-9.3-4.7-17.1-14.7-17.1c-10.2,0-14.3,8.1-14.3,17.4c0,9,4.8,16.6,14.6,16.6
			C578.2,101.3,582.4,93.2,582.4,84.3z"/>
	</g>
</g>
<g>
	<path class="st0" d="M247.7,288.3c-22.3,0-44-8-62.8-23c-1.8-1.5-4.4-1.3-6.1,0.3L162.5,282c-8.4,8.3-21.9,8.3-30.2,0l-15.9-15.9
		c-1.8-1.8-4.6-1.8-6.4,0l0,0l-16.1,16c-8.2,8.1-21.4,8.1-29.5,0c-0.3-0.3-0.5-0.5-0.8-0.8C2.8,213.6-9.1,115,33.7,34.7
		c8.8-16.6,26.1-27,45-27h157.6c16,0,31,10.6,42.4,29.8c10.3,17.4,17.2,41.3,19.5,67.2c1.2,14-9.1,26.4-23.1,27.6
		c-0.8,0.1-1.5,0.1-2.2,0.1H191c0.2,4.8,0.6,9.5,1.1,14.1c0,0.1,0,0.2,0,0.4c1,14.1,3.6,28,7.9,41.4c4.1,12.7,9.6,24.4,16.3,34.7
		c6.6,10.2,14.2,18.8,22.7,25.6s17.6,11.7,27,14.6c6.4,1.9,10,8.6,8.1,15c-1.3,4.4-4.9,7.6-9.4,8.5
		C259,287.8,253.4,288.3,247.7,288.3z M78.7,24.7c-12.6,0-24.1,6.9-30,18C9.2,116.7,20.2,207.6,76.3,270c1.4,1.6,3.9,1.7,5.5,0.3
		c0.1,0,0.1-0.1,0.2-0.1l16-16c8.4-8.4,22-8.4,30.4,0l15.9,15.9c1.7,1.7,4.5,1.7,6.2,0l16.4-16.4c7.8-7.8,20.1-8.4,28.7-1.6
		c13.9,11.1,29.5,17.6,45.7,19c-4.6-2.7-9-5.7-13.1-9c-9.8-8-18.7-17.9-26.3-29.6c-15.4-23.6-24.7-52.7-26.9-84
		c-0.9-8.1-1.3-16.2-1.3-24.3c0-30.1,5.9-58.5,16.8-80c3.8-7.5,8.1-14,12.7-19.3L78.7,24.7z M190.9,115.5h81.9
		c4.7,0,8.5-3.8,8.5-8.5c0-0.2,0-0.5,0-0.8c-2-23.5-8.1-44.8-17.1-60.1c-8.2-13.8-18-21.5-27.7-21.5c-5.2,0-10.5,2.2-15.6,6.5
		c-5.5,4.6-10.7,11.7-15.1,20.4C197,68.8,191.8,91.3,190.9,115.5z"/>
	<g>
		<path class="st0" d="M131.2,132.5h-63c-4.7,0-8.5-3.8-8.5-8.5s3.8-8.5,8.5-8.5l0,0h63c4.7,0,8.5,3.8,8.5,8.5
			S135.9,132.5,131.2,132.5z"/>
	</g>
	<g>
		<path class="st0" d="M100.4,175H70c-4.7,0-8.5-3.8-8.5-8.5s3.8-8.5,8.5-8.5h30.4c4.7,0,8.5,3.8,8.5,8.5S105.1,175,100.4,175z"/>
	</g>
	<g>
		<path class="st0" d="M135.2,90.1H75.8c-4.7,0-8.5-3.8-8.5-8.5s3.8-8.5,8.5-8.5h59.3c4.7,0,8.5,3.8,8.5,8.5S139.9,90.1,135.2,90.1z
			"/>
	</g>
</g>
</svg>
