<?xml version="1.0" encoding="utf-8"?>
<!-- Generator: Adobe Illustrator 27.3.1, SVG Export Plug-In . SVG Version: 6.00 Build 0)  -->
<svg version="1.1" id="Layer_1" xmlns="http://www.w3.org/2000/svg" xmlns:xlink="http://www.w3.org/1999/xlink" x="0px" y="0px"
	 viewBox="0 0 1024 1024" style="enable-background:new 0 0 1024 1024;" xml:space="preserve">
<style type="text/css">
	.st0{fill:#E42527;}
</style>
<g>
	<path class="st0" d="M845.6,1007.3c-78.8,0-155.5-28.1-221.6-81.3c-6.4-5.1-15.6-4.6-21.3,1.1l-58,58c-29.5,29.4-77.2,29.4-106.7,0
		l-56-56c-6.2-6.2-16.4-6.3-22.6,0l0,0l-56.7,56.6c-28.8,28.8-75.5,28.8-104.3,0c-0.9-0.9-1.8-1.9-2.7-2.9
		C-19.2,743.6-61.4,395.6,89.9,111.9c31.3-58.7,92.3-95.3,158.8-95.2h556.7c56.3,0,109.5,37.4,149.5,105.2
		c36.3,61.5,60.7,145.8,68.7,237.4c4.4,49.5-32.2,93.3-81.7,97.6c-2.6,0.2-5.3,0.4-7.9,0.4H644.8c0.7,16.8,2,33.5,3.8,49.9
		c0,0.4,0.1,0.8,0.1,1.2c3.4,49.7,12.8,98.8,27.9,146.3c14.5,44.8,33.8,86,57.6,122.5c23.3,35.9,50.3,66.3,80.2,90.5
		s62,41.4,95.5,51.4c22.6,6.7,35.4,30.4,28.8,52.9c-4.6,15.4-17.4,27-33.2,29.8C885.7,1005.5,865.7,1007.3,845.6,1007.3z
		 M248.7,76.7c-44.3,0-85,24.4-105.9,63.5C3.3,401.6,42.2,722.3,240.2,942.7c5.1,5.6,13.7,6.1,19.4,1.1c0.2-0.2,0.4-0.3,0.6-0.5
		l56.6-56.6c29.7-29.6,77.8-29.6,107.5,0l56,56c6,6,15.8,6,21.9,0l58-58c27.4-27.5,71.2-29.9,101.4-5.5
		c48.9,39.3,104.2,62.3,161.2,67.1c-16.2-9.4-31.6-20.1-46.2-31.9c-34.8-28.1-66-63.2-92.8-104.5c-54.3-83.5-87.1-186.1-95-296.7
		c-3.1-28.6-4.7-57.3-4.7-86c0-106.2,21-206.6,59.2-282.6c13.4-26.6,28.4-49.4,44.8-68L248.7,76.7z M644.8,397.3h289.1
		c16.6,0,30-13.5,30-30.1c0-0.9,0-1.8-0.1-2.7c-7.2-82.9-28.7-158.2-60.5-212.1c-28.9-48.8-63.6-75.7-97.9-75.7
		c-18.5,0-37.1,7.7-55.1,22.9c-19.3,16.3-37.8,41.2-53.3,72.1C666.5,232.4,648.3,311.6,644.8,397.3z"/>
</g>
<g>
	<path class="st0" d="M434.2,457.3H211.7c-16.6,0-30-13.4-30-30s13.4-30,30-30l0,0h222.5c16.6,0,30,13.4,30,30
		S450.7,457.3,434.2,457.3z"/>
</g>
<g>
	<path class="st0" d="M325.5,607.4H218.1c-16.6,0-30-13.4-30-30s13.4-30,30-30h107.4c16.6,0,30,13.4,30,30S342.1,607.4,325.5,607.4z
		"/>
</g>
<g>
	<path class="st0" d="M448.2,307.4H238.7c-16.6,0-30-13.4-30-30s13.4-30,30-30h209.5c16.6,0,30,13.4,30,30S464.7,307.4,448.2,307.4z
		"/>
</g>
</svg>
