<?xml version="1.0" encoding="utf-8"?>
<!-- Generator: Adobe Illustrator 27.5.0, SVG Export Plug-In . SVG Version: 6.00 Build 0)  -->
<svg version="1.1" id="Layer_1" xmlns="http://www.w3.org/2000/svg" xmlns:xlink="http://www.w3.org/1999/xlink" x="0px" y="0px"
	 viewBox="0 0 1024 1024" style="enable-background:new 0 0 1024 1024;" xml:space="preserve">
<style type="text/css">
	.st0{fill:#F9B21D;}
	.st1{fill:#E42527;}
</style>
<g>
	<path class="st0" d="M527,381.9c-16.6,0-30-13.4-30-30c0-14.6,10.5-27,24.8-29.5l173.6-30.6c16.3-2.9,31.9,8,34.8,24.3
		c2.9,16.3-8,31.9-24.3,34.8l-173.6,30.6C530.5,381.8,528.8,381.9,527,381.9z"/>
</g>
<path class="st1" d="M1023.3,757.6c-10.1-52.3-60.8-86.5-113.1-76.4l-457.1,80.6c0,0,0,0,0,0c-19.8,3.5-38.7-9.8-42.2-29.6
	l-80.6-457.1c0,0,0,0,0,0c-3.5-19.8,9.7-38.8,29.6-42.2L817,152.3c19.8-3.5,38.7,9.8,42.2,29.6L933.8,605c3,16,18.2,26.6,34.3,24
	c16.4-2.7,27.5-18.1,24.8-34.4l-74.6-423.1c0,0,0,0,0,0C909.1,119,859,84,806.6,93.2l-457.1,80.6c0,0,0,0,0,0
	c-52.5,9.3-87.5,59.3-78.3,111.8l80.6,457.1c0,0,0,0,0,0c4.3,24.3,17.3,44.9,35.3,59c-18.7-12-40.8-18.9-64.7-18.9
	c-12.8,0-25.1,2-36.7,5.7L163.6,95.8c-6.2-35.6-31.8-64.7-66.4-75.4l-57.9-18c-0.2-0.1-0.4-0.1-0.5-0.2C23-2.5,6.3,6.5,1.5,22.4
	C-3.3,38.3,5.7,55,21.6,59.8l57.9,18c13.1,4,22.7,15,25.1,28.5l126.7,718.6c-18,21-28.8,48.2-28.8,78c0,66.3,53.7,120,120,120
	c7,0,14.1-0.6,21-1.8c36.1-6.4,66-28.5,83.2-58.5l517.2-91.2c1.1-0.2,2.1-0.4,3.2-0.6C999.3,860.6,1033.5,810,1023.3,757.6z
	 M333.2,961.5c-32.3,5.8-63.2-15.8-68.9-48.1c-5.8-32.3,15.8-63.2,48.1-68.9c3.5-0.6,7-0.9,10.5-0.9c28.8,0,53.4,20.7,58.4,49
	C387,924.9,365.5,955.7,333.2,961.5z M933.3,812.2l-491,86.6c-1.2-37.1-19.3-69.9-46.8-91.1c19.5,12.2,43.5,17.6,68,13.3l457.1-80.6
	c0.2,0,0.3-0.1,0.5-0.1c19.9-3.4,38.7,10,42.1,29.9C966.6,790,953.2,808.9,933.3,812.2z"/>
</svg>
