<?xml version="1.0" encoding="utf-8"?>
<!-- Generator: Adobe Illustrator 27.3.1, SVG Export Plug-In . SVG Version: 6.00 Build 0)  -->
<svg version="1.1" id="Layer_1" xmlns="http://www.w3.org/2000/svg" xmlns:xlink="http://www.w3.org/1999/xlink" x="0px" y="0px"
	 viewBox="0 0 1080 296" style="enable-background:new 0 0 1080 296;" xml:space="preserve">
<style type="text/css">
	.st0{fill:#FFFFFF;}
</style>
<g>
	<g>
		<path class="st0" d="M360.4,140.8h22.2v114.9h-22.2V140.8z"/>
		<path class="st0" d="M406.6,171.6h20.1V185c5.4-10.4,16.7-15.1,28.4-15.1c20.2,0,29.3,14.2,29.3,33.3v52.6H464v-50.6
			c0-11.8-5.3-18.7-17.2-18.7c-12.6,0-20.1,7.9-20.1,19.9v49.4h-20.1L406.6,171.6L406.6,171.6z"/>
		<path class="st0" d="M492.2,171.6h21.5l21.7,63.6l21.5-63.6h19.6l-30.3,84.1h-23.5L492.2,171.6z"/>
		<path class="st0" d="M660.8,237.4c-7,14.8-22,19.8-37.5,19.8c-26.5,0-43.2-17.7-43.2-43.9c0-24.6,17-43.6,42.3-43.6
			c27.2,0,40.4,15.9,40.4,48.3h-62.2c0,14.2,8.2,24.6,23.5,24.6c9.1,0,16.6-3.7,21-12.2L660.8,237.4z M642.8,204.9
			c-0.6-12.7-8.3-20.5-20.2-20.5c-12.6,0-20,8.9-21.7,20.5H642.8z"/>
		<path class="st0" d="M678.9,171.6H699V185c5.4-10.4,16.7-15.1,28.4-15.1c20.2,0,29.3,14.2,29.3,33.3v52.6h-20.4v-50.6
			c0-11.8-5.3-18.7-17.2-18.7c-12.6,0-20.1,7.9-20.1,19.9v49.4h-20.1V171.6L678.9,171.6z"/>
		<path class="st0" d="M820.4,255.1c-4.3,1.3-8.8,2-13.8,2c-16,0-25.5-8.3-25.5-25v-45.7h-11.3v-14.8h11.3v-17.3l20.1-8.7v26.1h18.5
			v14.8h-18.5v43.9c0,6.6,2.8,10.7,10.2,10.7c2.8,0,6-0.6,9-1.6V255.1L820.4,255.1z"/>
		<path class="st0" d="M874.3,169.8c25.5,0,45.1,17.9,45.1,43.6c0,26.4-20.6,43.8-46,43.8c-25.6,0-46.1-17.7-46.1-43.4
			C827.3,187.5,849,169.8,874.3,169.8z M897.8,213.6c0-15.5-7.8-28.3-24.3-28.3c-17,0-23.7,13.5-23.7,28.9
			c0,14.9,7.9,27.6,24.2,27.6C890.7,241.8,897.8,228.3,897.8,213.6z"/>
		<path class="st0" d="M934.1,171.6h20.1v15.8c5.7-11.5,14.8-17,27.6-17V189c-16.2,0-27.6,5.3-27.6,23.3v43.4h-20.1V171.6z"/>
		<path class="st0" d="M1022.5,247.1l-33-75.5h21.5l22.1,53.7l20.6-53.7h19.5L1027,284.5h-19.7L1022.5,247.1z"/>
	</g>
	<g>
		<path class="st0" d="M359.7,104.4l37-53.4h-33.2V40.5h50.6v5.2L378,99.1h35v10.5h-53.3V104.4L359.7,104.4z"/>
		<path class="st0" d="M445.8,58c15.4,0,27.2,10.8,27.2,26.3c0,15.9-12.4,26.4-27.7,26.4c-15.4,0-27.8-10.7-27.8-26.1
			C417.4,68.6,430.5,58,445.8,58z M459.9,84.3c0-9.3-4.7-17.1-14.6-17.1c-10.2,0-14.3,8.1-14.3,17.4c0,9,4.8,16.6,14.6,16.6
			C455.7,101.3,459.9,93.2,459.9,84.3z"/>
		<path class="st0" d="M481.8,36.1h12.1v31c3.3-6.3,9.9-9.1,16.9-9.1c12.1,0,18.2,8.5,18.2,20v31.7h-12.2V79.2
			c0-7.3-3.8-11.2-10.8-11.2c-7.8,0-12,4.8-12,12v29.7h-12.1L481.8,36.1L481.8,36.1z"/>
		<path class="st0" d="M565.1,58c15.4,0,27.2,10.8,27.2,26.3c0,15.9-12.4,26.4-27.7,26.4c-15.4,0-27.8-10.7-27.8-26.1
			C536.8,68.6,549.9,58,565.1,58z M579.3,84.3c0-9.3-4.7-17.1-14.7-17.1c-10.2,0-14.3,8.1-14.3,17.4c0,9,4.8,16.6,14.6,16.6
			C575.1,101.3,579.3,93.2,579.3,84.3z"/>
	</g>
</g>
<g>
	<g>
		<path class="st0" d="M79.6,248.1c-4.1,0-7.6-3-8.3-7L34.6,33.2c-0.7-3.8-3.4-6.9-7.1-8.1L11.2,20c-4.5-1.4-7-6.1-5.7-10.6
			s6.1-7,10.6-5.7c0,0,0.1,0,0.2,0l16.4,5.1c9.8,3,17,11.3,18.8,21.3L88.2,238c0.8,4.6-2.3,9-6.9,9.8l0,0
			C80.6,248.1,80.1,248.1,79.6,248.1z"/>
	</g>
	<path class="st0" d="M120,276.4c-4.7,0-8.5-3.8-8.5-8.5c0-4.1,3-7.6,7-8.4L269.1,233c5.6-0.9,9.4-6.3,8.5-11.9
		c-1-5.6-6.3-9.4-11.9-8.4h-0.1l-129.4,22.8c-14.9,2.6-29-7.3-31.6-22.1l0,0L81.8,83.9c-2.6-14.8,7.3-29,22.1-31.6l0,0l129.4-22.8
		c14.9-2.6,29,7.3,31.6,22.1l0,0L286,171.3c0.8,4.6-2.4,9-7,9.7c-4.5,0.7-8.8-2.3-9.7-6.8L248.2,54.6c-1-5.6-6.3-9.4-12-8.4
		L106.9,69c-5.6,1-9.4,6.3-8.4,11.9l0,0l22.8,129.4c1,5.6,6.3,9.4,11.9,8.4l0,0l129.4-22.8c14.8-2.9,29.1,6.8,32,21.6
		s-6.8,29.1-21.6,32c-0.3,0.1-0.6,0.1-0.9,0.2l-150.6,26.6C121,276.3,120.5,276.4,120,276.4z"/>
	<g>
		<path class="st0" d="M154.2,111.2c-4.7,0-8.5-3.8-8.5-8.5c0-4.1,3-7.7,7-8.4l49.1-8.7c4.6-0.8,9,2.3,9.8,6.9s-2.3,9-6.9,9.8
			l-49.1,8.7C155.2,111.2,154.7,111.2,154.2,111.2z"/>
	</g>
	<g>
		<path class="st0" d="M96.3,292.6c-18.8,0-33.9-15.2-33.9-34s15.2-33.9,34-33.9s34,15.2,34,34c0,16.5-11.8,30.5-28,33.4
			C100.3,292.4,98.3,292.6,96.3,292.6z M96.4,241.8c-1,0-2,0.1-3,0.3c-9.1,1.6-15.2,10.4-13.6,19.5s10.4,15.2,19.5,13.6
			s15.2-10.4,13.6-19.5C111.5,247.7,104.5,241.8,96.4,241.8z"/>
	</g>
</g>
</svg>
