<?xml version="1.0" encoding="utf-8"?>
<!-- Generator: Adobe Illustrator 27.3.1, SVG Export Plug-In . SVG Version: 6.00 Build 0)  -->
<svg version="1.1" id="Layer_1" xmlns="http://www.w3.org/2000/svg" xmlns:xlink="http://www.w3.org/1999/xlink" x="0px" y="0px"
	 viewBox="0 0 950 296" style="enable-background:new 0 0 950 296;" xml:space="preserve">
<style type="text/css">
	.st0{fill:#FFFFFF;}
</style>
<g>
	<g>
		<path class="st0" d="M382.9,140.8h22.2v114.9h-22.2V140.8z"/>
		<path class="st0" d="M429.1,171.6h20.1V185c5.4-10.4,16.7-15.1,28.4-15.1c20.2,0,29.3,14.2,29.3,33.3v52.6h-20.4v-50.6
			c0-11.8-5.3-18.7-17.2-18.7c-12.6,0-20.1,7.9-20.1,19.9v49.4h-20.1V171.6z"/>
		<path class="st0" d="M514.7,171.6h21.5l21.7,63.6l21.5-63.6H599l-30.3,84.1h-23.5L514.7,171.6z"/>
		<path class="st0" d="M650.1,169.8c25.5,0,45.1,17.9,45.1,43.6c0,26.4-20.6,43.8-46,43.8c-25.6,0-46.1-17.7-46.1-43.4
			C603.1,187.5,624.9,169.8,650.1,169.8z M673.7,213.6c0-15.5-7.8-28.3-24.3-28.3c-17,0-23.7,13.5-23.7,28.9
			c0,14.9,7.9,27.6,24.2,27.6C666.6,241.8,673.7,228.3,673.7,213.6z"/>
		<path class="st0" d="M720.6,136.1c6.5,0,11.7,4.8,11.7,11.5c0,6.6-5,11.4-11.6,11.4c-6.5,0-12-4.9-12-11.5
			C708.7,140.8,714.1,136.1,720.6,136.1z M710.5,171.8h20.1v83.9h-20.1V171.8z"/>
		<path class="st0" d="M829.1,231.9c-5.6,17.6-21.3,25.4-38.8,25.4c-26.7,0-42.6-17.9-42.6-43.9c0-25,17.8-43.6,43.1-43.6
			c17,0,31.7,7.1,37.9,23.6l-16.2,7.1c-3.4-9.4-11.5-14.8-21.7-14.8c-16.4,0-22.4,14.2-22.4,28.6c0,14.8,6.5,27.6,22.8,27.6
			c11.5,0,19.3-6.4,22.8-16.9L829.1,231.9z"/>
		<path class="st0" d="M920.2,237.4c-7,14.8-22,19.8-37.5,19.8c-26.5,0-43.2-17.7-43.2-43.9c0-24.6,17-43.6,42.3-43.6
			c27.2,0,40.4,15.9,40.4,48.3h-62.2c0,14.2,8.2,24.6,23.5,24.6c9.1,0,16.6-3.7,21-12.2L920.2,237.4z M902.1,204.9
			c-0.6-12.7-8.3-20.5-20.2-20.5c-12.6,0-20,8.9-21.7,20.5H902.1z"/>
	</g>
	<g>
		<path class="st0" d="M382.2,104.4l37-53.4H386V40.5h50.6v5.2l-36.1,53.4h35v10.5h-53.3L382.2,104.4L382.2,104.4z"/>
		<path class="st0" d="M468.3,58c15.4,0,27.2,10.8,27.2,26.3c0,15.9-12.4,26.4-27.7,26.4c-15.4,0-27.8-10.7-27.8-26.1
			C440,68.6,453,58,468.3,58z M482.5,84.3c0-9.3-4.7-17.1-14.6-17.1c-10.2,0-14.3,8.1-14.3,17.4c0,9,4.8,16.6,14.6,16.6
			C478.2,101.3,482.5,93.2,482.5,84.3z"/>
		<path class="st0" d="M504.3,36.1h12.1v31c3.3-6.3,9.9-9.1,16.9-9.1c12.1,0,18.2,8.5,18.2,20v31.7h-12.2V79.2
			c0-7.3-3.8-11.2-10.8-11.2c-7.8,0-12,4.8-12,12v29.7h-12.1L504.3,36.1L504.3,36.1z"/>
		<path class="st0" d="M587.6,58c15.4,0,27.2,10.8,27.2,26.3c0,15.9-12.4,26.4-27.7,26.4c-15.4,0-27.8-10.7-27.8-26.1
			C559.3,68.6,572.4,58,587.6,58z M601.8,84.3c0-9.3-4.7-17.1-14.7-17.1c-10.2,0-14.3,8.1-14.3,17.4c0,9,4.8,16.6,14.6,16.6
			C597.6,101.3,601.8,93.2,601.8,84.3z"/>
	</g>
</g>
<g>
	<path class="st0" d="M166.4,116.5H206c4.7,0,8.5-3.8,8.5-8.5V68.4c0-4.7-3.8-8.5-8.5-8.5h-39.6c-4.7,0-8.5,3.8-8.5,8.5V108
		C157.9,112.7,161.7,116.5,166.4,116.5z M174.9,76.8h22.6v22.7h-22.6V76.8z"/>
	<path class="st0" d="M309.1,3H155.1c-26.6,0-48.1,21.6-48.1,48.1v31.3H75.6c-26.5,0-48,21.5-48,48V245c0,26.5,21.5,48,48,48h0.2
		h0.2h165.2c20.4,0,39.6-8,54.1-22.4s22.4-33.6,22.4-54.1v-205C317.6,6.8,313.8,3,309.1,3z M75.6,99.5h31.3v51H44.6v-20.1
		C44.6,113.4,58.5,99.5,75.6,99.5z M75.8,276h-0.2c-17.1,0-31-13.9-31-31v-77.5h62.3V245c0,17.1-13.9,31-31,31H75.8z M300.6,216.5
		c0,32.8-26.7,59.5-59.5,59.5H112.5c7.1-8.4,11.4-19.2,11.4-31V91V51.2c0-17.2,14-31.1,31.1-31.1h145.6L300.6,216.5L300.6,216.5z"/>
	<path class="st0" d="M166.4,167.5H258c4.7,0,8.5-3.8,8.5-8.5c0-4.7-3.8-8.5-8.5-8.5h-91.6c-4.7,0-8.5,3.8-8.5,8.5
		C157.9,163.7,161.7,167.5,166.4,167.5z"/>
	<path class="st0" d="M166.4,218.5H258c4.7,0,8.5-3.8,8.5-8.5c0-4.7-3.8-8.5-8.5-8.5h-91.6c-4.7,0-8.5,3.8-8.5,8.5
		C157.9,214.7,161.7,218.5,166.4,218.5z"/>
</g>
</svg>
