<?xml version="1.0" encoding="utf-8"?>
<!-- Generator: Adobe Illustrator 27.3.1, SVG Export Plug-In . SVG Version: 6.00 Build 0)  -->
<svg version="1.1" id="Layer_1" xmlns="http://www.w3.org/2000/svg" xmlns:xlink="http://www.w3.org/1999/xlink" x="0px" y="0px"
	 viewBox="0 0 784 296" style="enable-background:new 0 0 784 296;" xml:space="preserve">
<style type="text/css">
	.st0{fill:#FFFFFF;}
</style>
<g>
	<g>
		<path class="st0" d="M359.8,140.8h22.3v97.5h50.8v17.3h-73.1L359.8,140.8L359.8,140.8z"/>
		<path class="st0" d="M521.9,237.4c-7,14.8-22.1,19.9-37.5,19.9c-26.5,0-43.2-17.7-43.2-43.9c0-24.6,17-43.6,42.3-43.6
			c27.2,0,40.4,15.9,40.4,48.3h-62.2c0,14.2,8.2,24.6,23.5,24.6c9.1,0,16.6-3.7,21-12.2L521.9,237.4z M503.9,204.9
			c-0.6-12.7-8.3-20.5-20.2-20.5c-12.6,0-20,8.9-21.7,20.5H503.9z"/>
		<path class="st0" d="M588.6,245.4c-6.4,8.5-15.7,11.8-26.1,11.8c-15.8,0-28.2-8-28.2-24.5c0-23.3,24.6-27,44.2-27h9.9v-1.3
			c0-12-2.8-19.6-16.4-19.6c-8.2,0-15.7,4.2-18.7,12l-15.6-6.7c5.6-14.8,21.3-20.2,36.3-20.2c19.9,0,34.3,9.6,34.3,30.9v54.9h-19.8
			L588.6,245.4L588.6,245.4z M578.3,218.1c-9.3,0-24,1.1-24,13.8c0,8.1,5.9,11.1,13.4,11.1c10.2,0,20.7-5.3,20.7-16.7v-8.2
			L578.3,218.1L578.3,218.1z"/>
		<path class="st0" d="M629.6,171.6h20.1v15.8c5.7-11.5,14.8-17,27.6-17V189c-16.2,0-27.6,5.3-27.6,23.3v43.4h-20.1V171.6z"/>
		<path class="st0" d="M693.2,171.6h20.1V185c5.4-10.4,16.7-15.1,28.4-15.1c20.2,0,29.3,14.2,29.3,33.3v52.6h-20.4v-50.6
			c0-11.8-5.3-18.7-17.2-18.7c-12.6,0-20.1,7.8-20.1,19.9v49.4h-20.1V171.6z"/>
	</g>
	<g>
		<path class="st0" d="M359.9,104.4l37-53.4h-33.2V40.5h50.6v5.2l-36.1,53.4h35v10.5h-53.3V104.4z"/>
		<path class="st0" d="M446,58c15.4,0,27.2,10.8,27.2,26.3c0,15.9-12.4,26.4-27.7,26.4c-15.4,0-27.8-10.7-27.8-26.1
			C417.7,68.6,430.8,58,446,58z M460.2,84.3c0-9.3-4.7-17.1-14.7-17.1c-10.2,0-14.3,8.1-14.3,17.4c0,9,4.8,16.6,14.6,16.6
			C455.9,101.3,460.2,93.2,460.2,84.3z"/>
		<path class="st0" d="M482,36.1h12.1v31c3.3-6.3,9.9-9.1,16.9-9.1c12.1,0,18.2,8.5,18.2,20v31.7H517V79.2c0-7.3-3.8-11.3-10.8-11.3
			c-7.8,0-12.1,4.8-12.1,12v29.7H482V36.1z"/>
		<path class="st0" d="M565.3,58c15.4,0,27.2,10.8,27.2,26.3c0,15.9-12.4,26.4-27.7,26.4c-15.4,0-27.8-10.7-27.8-26.1
			C537,68.6,550.1,58,565.3,58z M579.5,84.3c0-9.3-4.7-17.1-14.7-17.1c-10.2,0-14.3,8.1-14.3,17.4c0,9,4.8,16.6,14.6,16.6
			C575.3,101.3,579.5,93.2,579.5,84.3z"/>
	</g>
</g>
<path class="st0" d="M292.7,71.5c-1.7-1.6-3.9-2.5-6.2-2.4c-5,0.2-9.9,0.5-14.8,1.1L163.2,7.6c-7.9-4.5-17.6-4.5-25.5,0L64.2,50
	c-4,2.3-5.4,7.5-3.1,11.5c2.3,4,7.5,5.4,11.5,3.1L146,22.2c2.7-1.5,6-1.5,8.6,0l91.2,52.6c-13.4,3.3-26.4,8.1-39,14.3
	c-21.3,10.5-40.2,24.4-56.5,41.7c-16.2-17.2-35.2-31.2-56.5-41.7c-25-12.3-51.8-19-79.7-20c-2.3-0.1-4.6,0.8-6.2,2.4
	c-1.7,1.6-2.6,3.8-2.6,6.1v44.3c0,4.3,3.3,8,7.6,8.5c3.2,0.3,6.3,0.8,9.4,1.3v75.5c0,9.1,4.8,17.6,12.7,22.1l102.6,59.2
	c3.9,2.3,8.3,3.4,12.7,3.4c4.4,0,8.8-1.2,12.7-3.4l102.6-59.2c7.8-4.6,12.7-13,12.7-22.1v-48.3c0-4.6-3.8-8.4-8.4-8.4
	c-4.6,0-8.4,3.7-8.4,8.4v48.3c0,3-1.7,5.9-4.3,7.4l-102.6,59.2c-2.7,1.5-6,1.5-8.6,0L43.4,214.6c-2.7-1.5-4.3-4.3-4.3-7.4v-72
	c17.1,4.5,33.3,11.5,48.5,20.9c22,13.6,41.2,32.2,55.6,53.8c0.3,0.4,0.6,0.8,1,1.2l0.1,0.1c0.1,0.1,0.3,0.3,0.5,0.4
	c0.1,0.1,0.1,0.1,0.2,0.2c0.1,0.1,0.3,0.2,0.4,0.3c0.1,0.1,0.2,0.1,0.3,0.2c0.1,0.1,0.3,0.2,0.4,0.3c0.1,0.1,0.2,0.1,0.4,0.2
	c0.1,0.1,0.3,0.1,0.4,0.2c0.1,0.1,0.3,0.1,0.4,0.2c0.1,0,0.3,0.1,0.4,0.1c0.2,0.1,0.4,0.1,0.6,0.2c0.1,0,0.3,0.1,0.4,0.1
	c0.3,0,0.5,0.1,0.8,0.1c0,0,0,0,0.1,0c0.3,0,0.5,0,0.8,0c0.6,0,1.1-0.1,1.7-0.2c0.2,0,0.4-0.1,0.6-0.2c0.1,0,0.1,0,0.2-0.1
	c0.8-0.3,1.6-0.6,2.3-1.1c0.1-0.1,0.2-0.2,0.3-0.3c0.1-0.1,0.2-0.2,0.3-0.2c0.1-0.1,0.3-0.2,0.4-0.3c0.1-0.1,0.2-0.1,0.2-0.2
	c0,0,0,0,0.1-0.1c0.1-0.1,0.3-0.3,0.4-0.5c0,0,0,0,0.1-0.1c0.2-0.2,0.3-0.4,0.5-0.6c14.3-21.6,33.6-40.2,55.6-53.8
	c22.9-14.1,48-22.8,74.7-25.7c4.3-0.5,7.6-4.1,7.6-8.5V77.6C295.3,75.3,294.4,73.1,292.7,71.5z M141.8,180
	c-3.7-4.2-7.6-8.3-11.6-12.3c-10.2-9.9-21.5-18.7-33.6-26.1c-12.2-7.6-25.3-13.8-38.9-18.5c-11.5-4-23.3-6.9-35.4-8.7V86.6
	c22.3,1.9,43.8,7.8,64,17.7c21.2,10.4,39.8,24.6,55.5,42.3V180z M278.3,114.4c-12,1.8-23.9,4.7-35.4,8.7
	c-13.5,4.7-26.6,10.9-38.9,18.5c-12.1,7.5-23.4,16.3-33.6,26.1c-4,3.9-7.9,8-11.6,12.3v-33.3c15.7-17.7,34.3-31.9,55.5-42.3
	c20.2-9.9,41.6-15.9,64-17.7V114.4z"/>
</svg>
