<?xml version="1.0" encoding="utf-8"?>
<!-- Generator: Adobe Illustrator 27.5.0, SVG Export Plug-In . SVG Version: 6.00 Build 0)  -->
<svg version="1.1" id="Layer_1" xmlns="http://www.w3.org/2000/svg" xmlns:xlink="http://www.w3.org/1999/xlink" x="0px" y="0px"
	 viewBox="0 0 1024 1024" style="enable-background:new 0 0 1024 1024;" xml:space="preserve">
<style type="text/css">
	.st0{fill:none;}
	.st1{fill:#226DB4;}
	.st2{fill:#E42527;}
</style>
<g>
	<path class="st0" d="M542,507.2v117.6c13.1-15,26.7-29.4,41-43.2c36-34.8,75.9-65.8,118.4-92.1c43.1-26.6,89.2-48.5,137-65.1
		c40.4-14,82.3-24.3,124.7-30.7v-98c-78.8,6.6-154.5,27.6-225.5,62.5C663,394.8,597.2,445,542,507.2z"/>
	<path class="st0" d="M286.4,358.2c-71-34.9-146.8-55.9-225.5-62.5v98l0,0c42.5,6.3,84.3,16.6,124.7,30.6
		c47.8,16.6,93.8,38.5,136.9,65.1c42.5,26.3,82.4,57.3,118.4,92.2c14.3,13.8,27.9,28.3,41,43.2V507.2
		C426.8,445,361,394.8,286.4,358.2z"/>
	<path class="st1" d="M556.9,16.8c-27.7-16-62.1-16-89.8,0L208.2,166.3c-14.2,8.2-19.1,26.4-10.9,40.7c8.2,14.2,26.4,19.1,40.7,10.9
		L496.9,68.4c9.3-5.4,20.9-5.4,30.2,0L848.5,254c29.8-7.4,60.1-12.9,90.9-16.3L556.9,16.8z"/>
	<path class="st1" d="M60.8,720.7c0,32,17.2,61.8,44.9,77.7l361.5,208.7c13.8,8,29.4,12,44.9,12c15.5,0,31-4,44.9-12l361.5-208.7
		c27.7-16,44.9-45.8,44.9-77.7V550.3c0-16.4-13.3-29.8-29.8-29.8s-29.8,13.3-29.8,29.8v170.4c0,10.8-5.8,20.8-15.1,26.2L527.1,955.6
		c-9.3,5.4-20.9,5.4-30.2,0L135.4,746.9c-9.3-5.4-15.1-15.4-15.1-26.2V467c-19.6-5.1-39.4-9.4-59.5-12.6
		C60.8,454.4,60.8,720.7,60.8,720.7z"/>
	<path class="st2" d="M1013.9,242.2c-5.9-5.7-13.8-8.7-21.9-8.4c-17.7,0.6-35.2,1.9-52.6,3.9c-30.8,3.4-61.1,8.8-90.9,16.3
		c-47.2,11.8-93.2,28.6-137.4,50.4c-75,36.9-141.9,86.2-199.1,146.8c-57.2-60.7-124-110-199.1-146.9c-88-43.2-182.5-67-280.9-70.5
		c-8.1-0.3-16,2.7-21.9,8.4s-9.2,13.5-9.2,21.6V420c0,15.3,11.5,28.1,26.7,29.8c11.1,1.2,22.2,2.7,33.1,4.5
		c20.1,3.3,40,7.5,59.5,12.6c60,15.8,117.1,40.4,170.7,73.5c77.6,48,145.4,113.5,196,189.5c3,4.5,7.2,8.1,11.9,10.4h0.1
		c0.4,0.2,0.8,0.4,1.1,0.5c0.1,0,0.2,0.1,0.3,0.1c0.4,0.1,0.7,0.3,1.1,0.4c0.1,0.1,0.3,0.1,0.4,0.1c0.3,0.1,0.7,0.2,1,0.3
		c0.1,0,0.3,0.1,0.4,0.1c0.4,0.1,0.7,0.2,1.1,0.3c0.1,0,0.2,0,0.3,0.1c1.5,0.4,3,0.6,4.5,0.8c0.9,0.1,1.9,0.1,2.8,0.1
		c2,0,4.1-0.2,6-0.6c0.3-0.1,0.6-0.1,0.9-0.2c0.2,0,0.3-0.1,0.5-0.1c2.9-0.7,5.7-1.9,8.2-3.4c0.1-0.1,0.3-0.2,0.4-0.3
		c0.3-0.2,0.5-0.3,0.8-0.5s0.6-0.5,1-0.7c0.1,0,0.1-0.1,0.2-0.1c0.4-0.3,0.7-0.6,1.1-0.9l0,0c0.8-0.7,1.6-1.4,2.4-2.2
		c0.1-0.1,0.2-0.2,0.3-0.3c0.5-0.5,1-1,1.4-1.6c0.1-0.2,0.3-0.4,0.4-0.5c0.4-0.6,0.9-1.2,1.3-1.8l0.1-0.1
		c50.6-76,118.3-141.6,196-189.5c80.6-49.8,169.2-80.3,263.4-90.6c15.2-1.7,26.7-14.5,26.7-29.8V263.8
		C1023.1,255.7,1019.8,247.9,1013.9,242.2z M482,624.8c-13.1-15-26.7-29.4-41-43.2c-36-34.8-75.9-65.8-118.4-92.2
		c-43.1-26.6-89.2-48.5-136.9-65.1c-40.4-14-82.3-24.3-124.7-30.6l0,0v-98c78.8,6.6,154.5,27.6,225.5,62.5
		C361,394.8,426.8,445,482,507.2V624.8z M963.1,393.6c-42.5,6.3-84.3,16.6-124.7,30.7c-47.8,16.6-93.8,38.5-137,65.1
		c-42.5,26.3-82.4,57.3-118.4,92.1c-14.3,13.8-27.9,28.3-41,43.2V507.2c55.2-62.3,121-112.4,195.6-149.1
		c71-34.9,146.8-55.9,225.5-62.5V393.6z"/>
</g>
</svg>
