<?xml version="1.0" encoding="utf-8"?>
<!-- Generator: Adobe Illustrator 27.5.0, SVG Export Plug-In . SVG Version: 6.00 Build 0)  -->
<svg version="1.1" id="Layer_1" xmlns="http://www.w3.org/2000/svg" xmlns:xlink="http://www.w3.org/1999/xlink" x="0px" y="0px"
	 viewBox="0 0 1024 1024" style="enable-background:new 0 0 1024 1024;" xml:space="preserve">
<style type="text/css">
	.st0{fill:#089949;}
	.st1{fill:#F9B21D;}
	.st2{fill:#E42527;}
</style>
<g>
	<path class="st0" d="M831.7,757.6c-16.6,0-30-13.4-30-30c0-8,3.2-15.6,8.8-21.2l123.7-123.7c39-39.1,39-102.3,0-141.4L828.6,335.7
		c-11.4-12-11-31,1-42.4c11.6-11.1,29.8-11.1,41.4,0l105.7,105.6c62.4,62.4,62.4,163.9,0,226.2L852.9,748.8
		C847.3,754.5,839.7,757.6,831.7,757.6z"/>
</g>
<g>
	<path class="st0" d="M174.6,739.9c-8,0-15.6-3.1-21.2-8.8l-106-106C-15,562.7-15,461.2,47.3,398.9l123.9-124
		c11.6-11.8,30.6-12,42.4-0.4c11.8,11.6,12,30.6,0.4,42.4c-0.1,0.1-0.2,0.2-0.3,0.3l-123.9,124c-39,39.1-39,102.3,0,141.4l106,106
		c11.7,11.7,11.7,30.7,0,42.4C190.1,736.7,182.5,739.9,174.6,739.9L174.6,739.9z"/>
</g>
<g>
	<path class="st1" d="M512,626.4c-63.2,0-114.4-51.2-114.3-114.4c0-63.2,51.2-114.4,114.4-114.3c63.2,0,114.4,51.2,114.3,114.4
		C626.3,575.1,575.1,626.3,512,626.4z M512,457.6c-30,0-54.4,24.4-54.3,54.4s24.4,54.4,54.4,54.3c30,0,54.3-24.3,54.3-54.4
		C566.4,482,542,457.6,512,457.6z"/>
</g>
<g>
	<path class="st2" d="M512,776.4c-52,0.1-102.9-15.2-146.3-44c-13.8-9.2-17.6-27.8-8.4-41.6c9.2-13.8,27.8-17.6,41.6-8.4l0,0
		c33.5,22.2,72.9,34.1,113.1,34c113,0,204.9-91.9,204.9-204.9V261.2c0.1-23.9-9.4-46.8-26.3-63.6L582.7,89.8
		C564,71,538.6,60.4,512,60.5l0,0c-26.5-0.1-52,10.5-70.7,29.3L298.7,232.5c-11.7,11.7-30.7,11.7-42.4,0
		c-11.7-11.7-11.7-30.7,0-42.4L398.9,47.4c29.9-30.1,70.7-47,113.1-46.9l0,0c42.5-0.1,83.2,16.7,113.2,46.9L733,155.2
		c28.2,28.1,44,66.3,43.9,106.1v251C776.5,658.2,658,776.4,512,776.4z"/>
</g>
<g>
	<path class="st2" d="M512,1023.5c-42.4,0.1-83.2-16.8-113.1-46.9L291.1,868.8c-28.2-28.1-44-66.2-43.9-106v-251
		c0.4-146.3,119.4-264.6,265.7-264.1c52,0.1,102.7,15.6,146,44.3c13.9,9,17.8,27.6,8.8,41.5c-9,13.9-27.6,17.8-41.5,8.8
		c-0.2-0.1-0.4-0.2-0.5-0.4c-33.6-22.4-73.1-34.4-113.5-34.3c-113,0-204.9,91.9-204.9,204.9v250.3c-0.1,23.9,9.4,46.8,26.4,63.6
		l107.8,107.8c39,39,102.3,39,141.4,0l143-143c11.7-11.7,30.7-11.7,42.4,0s11.7,30.7,0,42.4l-143,143
		C595.2,1006.8,554.5,1023.6,512,1023.5z"/>
</g>
</svg>
