<?xml version="1.0" encoding="utf-8"?>
<!-- Generator: Adobe Illustrator 27.3.1, SVG Export Plug-In . SVG Version: 6.00 Build 0)  -->
<svg version="1.1" id="Layer_1" xmlns="http://www.w3.org/2000/svg" xmlns:xlink="http://www.w3.org/1999/xlink" x="0px" y="0px"
	 viewBox="0 0 730 296" style="enable-background:new 0 0 730 296;" xml:space="preserve">
<style type="text/css">
	.st0{fill:#FFFFFF;}
</style>
<g>
	<g>
		<path class="st0" d="M368,140.8h22.3v97.5H441v17.3H368V140.8z"/>
		<path class="st0" d="M530.1,237.4c-1.7,3.7-3.9,6.8-6.6,9.4c-2.7,2.5-5.7,4.6-9,6.1c-3.3,1.5-6.8,2.7-10.5,3.3
			c-3.7,0.7-7.5,1-11.4,1c-6.6,0-12.6-1.1-18-3.2s-9.9-5.1-13.6-8.9c-3.7-3.8-6.6-8.5-8.6-13.9s-3-11.4-3-17.9
			c0-6.2,1-11.9,3.1-17.2s4.9-9.9,8.6-13.8s8.2-7,13.3-9.2c5.2-2.2,10.9-3.3,17.3-3.3c13.6,0,23.7,4,30.4,12s10,20.1,10,36.3h-62.2
			c0,3.6,0.5,6.8,1.5,9.9c1,3,2.5,5.6,4.5,7.8c2,2.2,4.5,3.9,7.4,5.1c2.9,1.2,6.3,1.8,10.1,1.8c4.6,0,8.7-1,12.3-2.9
			c3.6-1.9,6.5-5.1,8.7-9.3L530.1,237.4z M512,204.9c-0.3-6.4-2.3-11.4-5.9-15c-3.6-3.6-8.4-5.4-14.3-5.4c-3.1,0-6,0.5-8.5,1.6
			s-4.7,2.5-6.5,4.3s-3.3,4-4.4,6.5c-1.1,2.5-1.9,5.2-2.4,8.1L512,204.9L512,204.9z"/>
		<path class="st0" d="M548.2,171.6h20.1V185c1.4-2.6,3.1-4.9,5.1-6.8s4.3-3.4,6.8-4.7c2.5-1.3,5.1-2.2,7.9-2.8
			c2.8-0.6,5.7-0.9,8.6-0.9c5,0,9.4,0.8,13.1,2.5s6.7,4,9.1,7c2.4,3,4.2,6.5,5.3,10.6s1.7,8.5,1.7,13.2v52.6h-20.4v-50.6
			c0-5.9-1.4-10.5-4.1-13.8c-2.7-3.3-7.1-4.9-13.1-4.9c-6.3,0-11.3,1.8-14.8,5.4c-3.5,3.6-5.3,8.4-5.3,14.5v49.4h-20.1L548.2,171.6
			L548.2,171.6z"/>
		<path class="st0" d="M656,230.6c0.8,2,1.9,3.8,3.3,5.4c1.4,1.5,3,2.8,4.9,3.8c1.8,1,3.8,1.7,6,2.2s4.4,0.8,6.6,0.8
			c1.6,0,3.3-0.1,5-0.4c1.7-0.3,3.3-0.8,4.7-1.6c1.4-0.8,2.6-1.8,3.5-3.1c0.9-1.3,1.4-2.9,1.4-4.9c0-2.1-0.5-3.8-1.6-5.2
			c-1-1.4-2.5-2.5-4.3-3.4c-1.8-0.9-3.9-1.7-6.2-2.3c-2.3-0.6-4.8-1.2-7.4-1.7c-3.3-0.7-6.7-1.6-10.2-2.5c-3.4-0.9-6.5-2.2-9.2-4
			s-4.9-4.1-6.7-7c-1.7-2.9-2.6-6.8-2.6-11.5c0-4.3,0.9-8.1,2.8-11.3c1.8-3.2,4.2-5.8,7.2-7.9c3-2.1,6.3-3.7,10-4.7
			s7.5-1.6,11.3-1.6c3.3,0,6.8,0.3,10.2,1s6.7,1.7,9.8,3.2c3.1,1.5,5.8,3.4,8.3,5.7c2.5,2.3,4.4,5.1,5.8,8.4l-14.9,6.4
			c-0.8-1.9-1.9-3.5-3.3-4.8c-1.4-1.3-2.9-2.3-4.5-3.2s-3.4-1.4-5.3-1.8c-1.8-0.4-3.6-0.6-5.3-0.6c-1.7,0-3.3,0.2-4.9,0.5
			s-3,0.9-4.2,1.6c-1.2,0.8-2.2,1.7-2.9,2.9s-1.1,2.7-1.1,4.4c0,1.9,0.5,3.5,1.5,4.8c1,1.2,2.3,2.2,3.9,3.1c1.7,0.8,3.6,1.5,5.8,2
			s4.6,1,7.1,1.5c3.5,0.7,7,1.5,10.5,2.4c3.6,0.9,6.8,2.2,9.7,4s5.3,4.2,7.1,7.2c1.8,3,2.8,7,2.8,11.9s-1,9.1-2.9,12.5
			c-1.9,3.4-4.5,6.2-7.6,8.3c-3.2,2.1-6.8,3.6-10.9,4.6s-8.3,1.4-12.7,1.4c-3.7,0-7.4-0.3-11.1-1s-7.2-1.8-10.4-3.4
			c-3.2-1.6-6.1-3.6-8.7-6.2s-4.5-5.7-5.8-9.5L656,230.6z"/>
	</g>
	<g>
		<g>
			<path class="st0" d="M368.1,104.4l37-53.4h-33.2V40.5h50.6v5.2l-36.1,53.4h35v10.5h-53.3L368.1,104.4L368.1,104.4z"/>
			<path class="st0" d="M425.9,84.5c0-4,0.8-7.6,2.3-10.8c1.5-3.3,3.6-6.1,6.2-8.4c2.6-2.3,5.6-4.1,9-5.4s7-1.9,10.9-1.9
				c3.8,0,7.4,0.6,10.7,1.9c3.3,1.3,6.2,3.1,8.6,5.4s4.4,5.1,5.7,8.3c1.4,3.2,2.1,6.8,2.1,10.7c0,4-0.7,7.6-2.2,10.8
				c-1.5,3.2-3.4,6-5.9,8.3c-2.5,2.3-5.4,4.1-8.8,5.3c-3.4,1.3-7,1.9-10.8,1.9c-3.8,0-7.5-0.6-10.9-1.9c-3.4-1.3-6.3-3.1-8.8-5.4
				c-2.5-2.3-4.5-5.1-5.9-8.2C426.6,91.9,425.9,88.3,425.9,84.5z M454,101.3c2.5,0,4.7-0.5,6.5-1.4s3.3-2.2,4.5-3.8
				c1.2-1.6,2-3.4,2.6-5.4c0.5-2.1,0.8-4.2,0.8-6.4c0-2.3-0.3-4.5-0.9-6.6c-0.6-2.1-1.5-3.9-2.7-5.4c-1.2-1.6-2.7-2.8-4.6-3.7
				s-4-1.3-6.5-1.3c-2.5,0-4.7,0.5-6.5,1.4s-3.3,2.2-4.4,3.8c-1.1,1.6-2,3.4-2.5,5.5c-0.5,2.1-0.8,4.3-0.8,6.6
				c0,2.2,0.3,4.4,0.9,6.4s1.5,3.8,2.7,5.3c1.2,1.5,2.7,2.7,4.5,3.6C449.4,100.9,451.5,101.3,454,101.3z"/>
			<path class="st0" d="M490.2,36.1h12.1v31c0.8-1.6,1.8-2.9,3-4.1c1.2-1.2,2.5-2.1,4-2.8c1.5-0.7,3-1.3,4.7-1.7s3.4-0.5,5.1-0.5
				c3,0,5.7,0.5,7.9,1.5s4.2,2.4,5.7,4.2c1.5,1.8,2.7,3.9,3.4,6.3c0.8,2.4,1.1,5.1,1.1,8v31.7h-12.2V79.2c0-3.7-0.9-6.4-2.8-8.4
				s-4.5-2.9-8.1-2.9c-3.9,0-6.9,1.1-9,3.3s-3.1,5.1-3.1,8.7v29.7h-12.1L490.2,36.1L490.2,36.1z"/>
			<path class="st0" d="M545.2,84.5c0-4,0.8-7.6,2.3-10.8c1.5-3.3,3.6-6.1,6.2-8.4c2.6-2.3,5.6-4.1,9-5.4s7-1.9,10.8-1.9
				c3.8,0,7.4,0.6,10.7,1.9c3.3,1.3,6.2,3.1,8.6,5.4s4.4,5.1,5.7,8.3c1.4,3.2,2.1,6.8,2.1,10.7c0,4-0.7,7.6-2.2,10.8
				c-1.5,3.2-3.4,6-5.9,8.3c-2.5,2.3-5.4,4.1-8.8,5.3c-3.4,1.3-7,1.9-10.8,1.9c-3.8,0-7.5-0.6-10.8-1.9c-3.4-1.3-6.3-3.1-8.8-5.4
				c-2.5-2.3-4.5-5.1-5.9-8.2C545.9,91.9,545.2,88.3,545.2,84.5z M573.3,101.3c2.5,0,4.7-0.5,6.5-1.4s3.3-2.2,4.5-3.8
				c1.2-1.6,2-3.4,2.6-5.4c0.5-2.1,0.8-4.2,0.8-6.4c0-2.3-0.3-4.5-0.9-6.6c-0.6-2.1-1.5-3.9-2.7-5.4c-1.2-1.6-2.7-2.8-4.6-3.7
				s-4-1.3-6.5-1.3c-2.5,0-4.7,0.5-6.5,1.4s-3.3,2.2-4.4,3.8c-1.1,1.6-2,3.4-2.5,5.5c-0.5,2.1-0.8,4.3-0.8,6.6
				c0,2.2,0.3,4.4,0.9,6.4s1.5,3.8,2.7,5.3c1.2,1.5,2.7,2.7,4.5,3.6C568.8,100.9,570.9,101.3,573.3,101.3z"/>
		</g>
	</g>
</g>
<g>
	<g>
		<path class="st0" d="M249.2,217.6c-4.7,0-8.5-3.8-8.5-8.5c0-2.2,0.9-4.4,2.5-6l35.1-35.1c11-11.1,11-29,0-40.1L248.3,98
			c-3.2-3.4-3.1-8.8,0.3-12c3.3-3.1,8.5-3.1,11.8,0l30,29.9c17.7,17.7,17.7,46.5,0,64.1l-35.1,35.1
			C253.6,216.8,251.4,217.6,249.2,217.6z"/>
	</g>
	<g>
		<path class="st0" d="M62.8,212.6c-2.3,0-4.4-0.9-6-2.5l-30-30.1c-17.7-17.7-17.7-46.5,0-64.1l35.1-35.2c3.3-3.3,8.7-3.4,12-0.1
			c3.3,3.3,3.4,8.7,0.1,12c0,0-0.1,0.1-0.1,0.1l-35.1,35.1c-11,11.1-11,29,0,40.1l30,30.1c3.3,3.3,3.3,8.7,0,12
			C67.2,211.7,65.1,212.6,62.8,212.6L62.8,212.6z"/>
	</g>
	<g>
		<path class="st0" d="M158.5,180.4c-17.9,0-32.4-14.5-32.4-32.4s14.5-32.4,32.4-32.4s32.4,14.5,32.4,32.4
			C190.9,165.9,176.4,180.4,158.5,180.4z M158.5,132.6c-8.5,0-15.4,6.9-15.4,15.4s6.9,15.4,15.4,15.4s15.4-6.9,15.4-15.4
			C173.9,139.5,167,132.6,158.5,132.6z"/>
	</g>
	<g>
		<path class="st0" d="M158.5,223c-14.8,0-29.2-4.3-41.5-12.5c-3.9-2.6-5-7.9-2.4-11.8c2.6-3.9,7.9-5,11.8-2.4l0,0
			c9.5,6.3,20.7,9.7,32.1,9.6c32,0,58.1-26.1,58.1-58.1v-71c0-6.8-2.7-13.3-7.5-18l-30.6-30.6c-5.3-5.3-12.5-8.3-20-8.3l0,0
			c-7.5,0-14.7,3-20.1,8.3L98.1,68.8c-3.3,3.3-8.7,3.3-12,0s-3.3-8.7,0-12l40.4-40.5c8.5-8.5,20-13.3,32.1-13.3l0,0
			c12,0,23.6,4.8,32.1,13.3l30.6,30.6c8,8,12.5,18.8,12.4,30.1v71.2C233.5,189.5,199.9,223,158.5,223z"/>
	</g>
	<g>
		<path class="st0" d="M158.5,293c-12,0-23.6-4.8-32.1-13.3l-30.6-30.6c-8-7.9-12.5-18.8-12.4-30.1v-71.2
			c0.1-41.5,33.8-75,75.3-74.9c14.7,0,29.1,4.4,41.4,12.6c3.9,2.6,5.1,7.8,2.5,11.8c-2.6,3.9-7.8,5.1-11.8,2.5
			c-0.1,0-0.1-0.1-0.2-0.1c-9.5-6.4-20.7-9.8-32.2-9.7c-32,0-58.1,26.1-58.1,58.1v70.9c0,6.8,2.7,13.3,7.5,18l30.6,30.6
			c11.1,11.1,29,11.1,40.1,0l40.5-40.5c3.3-3.3,8.7-3.3,12,0s3.3,8.7,0,12l-40.5,40.5C182.1,288.3,170.6,293.1,158.5,293z"/>
	</g>
</g>
</svg>
