<?xml version="1.0" encoding="UTF-8"?>
<svg id="Layer_2" data-name="Layer 2" xmlns="http://www.w3.org/2000/svg" viewBox="0 0 262.52 288">
  <defs>
    <style>
      .cls-1 {
        fill: #faa61a;
      }

      .cls-2 {
        fill: #ce1432;
      }

      .cls-3 {
        fill: #009d54;
      }

      .cls-4 {
        fill: #007ac1;
      }
    </style>
  </defs>
  <g id="Layer_1" data-name="Layer 1">
    <g>
      <path class="cls-1" d="M261.45,193.01c-3.51,13.67-16.15,23.02-30.27,23.02h-.13c-21,38.68-53.6,62.75-97.27,71.71-.82.17-1.68.25-2.53.25s-1.7-.08-2.54-.25c-37.45-7.69-67.05-26.78-87.98-56.73l20.61-14.4c16.39,23.45,39.4,38.78,68.46,45.63.95.22,1.96.22,2.91,0,33.65-7.88,58.51-26.47,75.3-56.47-5.07-5.56-8.15-12.94-8.15-21.07,0-17.31,14.02-31.33,31.32-31.33,20,0,35.63,18.73,30.27,39.63Z"/>
      <path class="cls-2" d="M62.65,184.72c0,17.99-15.16,32.43-33.4,31.25C13.37,214.94.6,201.78.02,185.88c-.37-10.22,4.14-19.38,11.4-25.36-.5-2.29-.99-4.59-1.44-6.93l-.04-.21c-.03-.13-.06-.27-.08-.39C2.55,114.64,3.73,77.41,5.08,58.62c.31-4.31,2.82-8.17,6.65-10.19,23.05-12.23,47.85-20.82,73.7-25.51l4.5,24.71c-19.75,3.6-38.81,9.71-56.83,18.2-2.1.99-3.46,3.07-3.56,5.39-.79,18.98-.56,47.63,4.97,76.82.07.29.13.59.18.89.31,1.61.64,3.18.98,4.76,15.25,2.09,26.99,15.18,26.99,31.03Z"/>
      <path class="cls-4" d="M10.02,153.7s0,.01,0,.02c0,0,0-.01,0-.02Z"/>
      <path class="cls-4" d="M10.01,153.69s0,0,0,0c0,0,0,0,0,0Z"/>
      <path class="cls-4" d="M254.21,144.2l-24.81-3.99c4.27-26.51,4.39-51.92,3.69-68.98-.09-2.32-1.46-4.41-3.56-5.4-22.13-10.42-45.96-17.26-70.34-20.22-5.32,10.39-16.28,17.41-28.84,17.03-16.01-.48-29.3-13.31-30.3-29.29C98.91,15.13,113.34,0,131.31,0c13.49,0,24.98,8.52,29.39,20.47,31.53,3.64,62.26,13.13,90.21,27.95,3.83,2.02,6.32,5.88,6.65,10.21,1.47,20.47,2.07,51.93-3.35,85.57Z"/>
      <polygon class="cls-3" points="184.69 122.86 128.9 178.65 121.03 170.79 97.33 147.08 115.1 129.31 121.03 135.24 128.9 143.12 146.17 125.83 166.91 105.09 184.69 122.86"/>
    </g>
  </g>
</svg>