<?xml version="1.0" encoding="utf-8"?>
<!-- Generator: Adobe Illustrator 27.3.1, SVG Export Plug-In . SVG Version: 6.00 Build 0)  -->
<svg version="1.1" id="Layer_1" xmlns="http://www.w3.org/2000/svg" xmlns:xlink="http://www.w3.org/1999/xlink" x="0px" y="0px"
	 viewBox="0 0 676 296" style="enable-background:new 0 0 676 296;" xml:space="preserve">
<style type="text/css">
	.st0{fill:#FFFFFF;}
</style>
<g>
	<g>
		<path class="st0" d="M359.8,140.8H388l33.1,83.7l32.9-83.7h27.5v114.9H461v-87.6l-36.2,87.6h-9.9l-35-87.6v87.6h-20.1V140.8z"/>
		<path class="st0" d="M552.5,245.4c-6.4,8.5-15.7,11.8-26.1,11.8c-15.8,0-28.2-8-28.2-24.5c0-23.3,24.6-27,44.2-27h9.9v-1.3
			c0-12-2.8-19.6-16.4-19.6c-8.2,0-15.7,4.2-18.7,12l-15.6-6.7c5.6-14.8,21.3-20.2,36.3-20.2c19.9,0,34.3,9.6,34.3,30.9v54.9h-19.8
			L552.5,245.4L552.5,245.4z M542.2,218.1c-9.3,0-24,1.1-24,13.8c0,8.1,5.9,11.1,13.4,11.1c10.2,0,20.7-5.3,20.7-16.7v-8.2
			L542.2,218.1L542.2,218.1z"/>
		<path class="st0" d="M604.1,136.1c6.5,0,11.7,4.8,11.7,11.5c0,6.6-5,11.4-11.6,11.4c-6.5,0-12-4.9-12-11.5
			C592.2,140.8,597.6,136.1,604.1,136.1z M594,171.8h20.1v83.9H594V171.8z"/>
		<path class="st0" d="M637.4,137.6l20.1-8.7v126.8h-20.1V137.6z"/>
	</g>
	<g>
		<path class="st0" d="M360,104.4L397,51h-33.2V40.5h50.6v5.2l-36.1,53.4h35v10.5H360V104.4z"/>
		<path class="st0" d="M446,58c15.4,0,27.2,10.8,27.2,26.3c0,15.9-12.4,26.4-27.7,26.4c-15.4,0-27.8-10.7-27.8-26.1
			C417.7,68.6,430.8,58,446,58z M460.2,84.3c0-9.3-4.7-17.1-14.7-17.1c-10.2,0-14.3,8.1-14.3,17.4c0,9,4.8,16.6,14.6,16.6
			C456,101.3,460.2,93.2,460.2,84.3z"/>
		<path class="st0" d="M482.1,36.1h12.1v31c3.3-6.3,9.9-9.1,16.9-9.1c12.1,0,18.2,8.5,18.2,20v31.7H517V79.2
			c0-7.3-3.8-11.3-10.8-11.3c-7.8,0-12.1,4.8-12.1,12v29.7H482V36.1H482.1z"/>
		<path class="st0" d="M565.4,58c15.4,0,27.2,10.8,27.2,26.3c0,15.9-12.4,26.4-27.7,26.4c-15.4,0-27.8-10.7-27.8-26.1
			C537.1,68.6,550.2,58,565.4,58z M579.6,84.3c0-9.3-4.7-17.1-14.7-17.1c-10.2,0-14.3,8.1-14.3,17.4c0,9,4.8,16.6,14.6,16.6
			C575.3,101.3,579.6,93.2,579.6,84.3z"/>
	</g>
</g>
<path class="st0" d="M285.7,103.3L166.4,8.6C161.8,5,156.2,3,150.4,3c-5.8,0-11.5,2-16,5.6L15.1,103.2c-6.1,4.9-9.7,12.2-9.7,20.1
	v29.1c0,9.5,5.2,18.2,13.6,22.7l119.4,63.6c7.5,4,16.5,4,24.1,0l76.9-41c2.3-1.2,3.8-3.4,4.3-5.8c0.1-0.6,0.2-1.2,0.2-1.8v-46.2
	c0-14.2-11.6-25.7-25.7-25.7H82.6c-14.2,0-25.7,11.6-25.7,25.7v9.7c0,4.7,3.8,8.5,8.5,8.5c4.7,0,8.5-3.8,8.5-8.5v-9.7
	c0-4.8,3.9-8.7,8.7-8.7h135.6c4.8,0,8.7,3.9,8.7,8.7v41.2l-72.4,38.6c-2.6,1.4-5.6,1.4-8.2,0L27,160.2c-2.8-1.6-4.6-4.5-4.6-7.7
	v-29.1c0-2.7,1.2-5.2,3.3-6.8L145,21.9c3.2-2.5,7.6-2.5,10.8,0l119.3,94.7c2.1,1.7,3.3,4.1,3.3,6.8v143.8c0,4.8-3.9,8.7-8.7,8.7
	H31.1c-4.8,0-8.7-3.9-8.7-8.7v-67.8c0-4.7-3.8-8.5-8.5-8.5c-4.7,0-8.5,3.8-8.5,8.5v67.8c0,14.2,11.6,25.7,25.7,25.7h238.6
	c14.2,0,25.7-11.5,25.7-25.6V123.4C295.4,115.5,291.9,108.2,285.7,103.3z"/>
</svg>
