<?xml version="1.0" encoding="UTF-8"?>
<svg id="Layer_3" data-name="Layer 3" xmlns="http://www.w3.org/2000/svg" viewBox="0 0 3627.09 258.41">
  <defs>
    <style>
      .cls-1 {
        fill: #231f20;
      }

      .cls-2 {
        fill: #009d54;
      }

      .cls-3 {
        fill: #007ac1;
      }
    </style>
  </defs>
  <g id="Layer_1" data-name="Layer 1">
    <g>
      <g>
        <path class="cls-1" d="M403.14,212.02V39.21h42.38l49.81,125.95,49.46-125.95h41.43v172.81h-30.93V80.29l-54.42,131.73h-14.87l-52.64-131.73v131.73h-30.22Z"/>
        <path class="cls-1" d="M628.36,196.2c-6.3-5.74-11.25-12.61-14.87-20.6-3.62-7.99-5.43-16.82-5.43-26.5s1.91-18.95,5.72-27.09c3.82-8.14,8.95-15.13,15.4-20.95,6.45-5.74,13.95-10.21,22.49-13.4,8.54-3.19,17.57-4.78,27.09-4.78s18.53,1.59,26.79,4.78c8.26,3.19,15.42,7.69,21.48,13.52,6.14,5.75,10.94,12.65,14.4,20.72,3.46,8.07,5.19,16.94,5.19,26.62s-1.81,18.93-5.43,27.03c-3.62,8.11-8.58,15.03-14.87,20.77-6.22,5.75-13.54,10.19-21.96,13.34-8.42,3.15-17.39,4.72-26.91,4.72s-18.63-1.59-27.09-4.78c-8.46-3.19-15.8-7.65-22.01-13.4ZM650.9,178.73c3.07,3.78,6.86,6.79,11.39,9.03,4.52,2.24,9.86,3.36,15.99,3.36s11.7-1.18,16.23-3.54c4.52-2.36,8.24-5.47,11.15-9.33,2.91-3.93,5.06-8.46,6.43-13.57,1.38-5.11,2.07-10.43,2.07-15.94,0-5.82-.75-11.31-2.24-16.47-1.5-5.15-3.74-9.66-6.73-13.52-3.07-3.93-6.89-7.02-11.45-9.27-4.57-2.24-9.96-3.36-16.17-3.36s-11.82,1.18-16.35,3.54c-4.53,2.36-8.2,5.51-11.04,9.44-2.83,4.01-4.92,8.64-6.26,13.87-1.34,5.23-2.01,10.76-2.01,16.58s.75,10.9,2.24,15.93c1.49,5.04,3.74,9.44,6.73,13.22Z"/>
        <path class="cls-1" d="M768.71,212.02V28.35h30.22v77.67c2.2-3.62,4.9-6.86,8.09-9.74,3.19-2.87,6.67-5.29,10.45-7.26,3.78-1.97,7.77-3.48,11.98-4.54,4.21-1.06,8.4-1.59,12.57-1.59,9.6,0,18,1.79,25.2,5.37,7.2,3.58,13.2,8.4,18,14.46,4.8,5.98,8.38,12.92,10.74,20.83,2.36,7.91,3.54,16.19,3.54,24.85s-1.24,17.33-3.72,25.32c-2.48,7.99-6.12,15.01-10.92,21.07-4.72,5.98-10.6,10.74-17.65,14.28-7.04,3.54-15.13,5.31-24.26,5.31-4.49,0-8.91-.45-13.28-1.36-4.37-.91-8.48-2.3-12.33-4.19-3.86-1.89-7.38-4.25-10.56-7.08-3.19-2.83-5.8-6.18-7.85-10.03v20.3h-30.22ZM806.71,178.73c2.99,3.78,6.77,6.73,11.33,8.85,4.56,2.12,9.99,3.19,16.29,3.19,6.61,0,12.1-1.16,16.47-3.48,4.37-2.32,7.85-5.45,10.45-9.38,2.6-3.93,4.43-8.5,5.49-13.69,1.06-5.19,1.59-10.7,1.59-16.52,0-5.35-.67-10.51-2.01-15.46-1.34-4.96-3.46-9.36-6.37-13.22-2.83-3.78-6.49-6.81-10.98-9.09-4.49-2.28-9.84-3.42-16.05-3.42s-11.55,1.16-15.99,3.48c-4.45,2.32-8.09,5.45-10.92,9.38-2.83,3.86-4.9,8.36-6.2,13.52-1.3,5.16-1.95,10.53-1.95,16.11,0,5.9.73,11.41,2.18,16.52,1.46,5.12,3.68,9.52,6.67,13.22Z"/>
        <path class="cls-1" d="M927.7,61.52c-1.65-1.49-2.95-3.31-3.9-5.43-.94-2.12-1.42-4.41-1.42-6.85s.47-4.82,1.42-6.91c.94-2.08,2.24-3.88,3.9-5.37,1.65-1.57,3.56-2.77,5.72-3.6,2.16-.83,4.46-1.24,6.91-1.24s4.72.43,6.85,1.3c2.12.87,4.01,2.05,5.67,3.54,1.57,1.57,2.81,3.4,3.72,5.49.9,2.09,1.36,4.39,1.36,6.91s-.45,4.72-1.36,6.85c-.91,2.12-2.11,3.94-3.6,5.43-1.58,1.5-3.42,2.68-5.55,3.54-2.12.87-4.45,1.3-6.96,1.3s-4.76-.43-6.96-1.3c-2.2-.86-4.13-2.08-5.78-3.66ZM925.1,212.02v-126.18h30.22v126.18h-30.22Z"/>
        <path class="cls-1" d="M990.38,212.02V34.37l30.22-13.1v190.75h-30.22Z"/>
        <path class="cls-1" d="M1076.9,155.48c0,5.35.77,10.29,2.3,14.81,1.53,4.53,3.79,8.4,6.79,11.63,3.07,3.31,6.79,5.88,11.15,7.73,4.37,1.85,9.42,2.77,15.17,2.77,6.92,0,13.1-1.46,18.53-4.37,5.43-2.91,9.8-7.59,13.1-14.05l23.61,10.51c-2.6,5.59-5.92,10.29-9.97,14.11-4.05,3.82-8.52,6.87-13.4,9.15-4.96,2.36-10.25,4.05-15.88,5.08-5.63,1.02-11.35,1.53-17.17,1.53-9.99,0-19-1.59-27.03-4.78s-14.83-7.69-20.42-13.52c-5.67-5.74-10.01-12.67-13.04-20.77-3.03-8.1-4.54-17.07-4.54-26.91,0-9.28,1.53-17.92,4.6-25.91,3.07-7.99,7.4-14.89,12.98-20.72,5.59-5.9,12.28-10.52,20.07-13.87,7.79-3.34,16.45-5.02,25.97-5.02,20.46,0,35.71,6,45.74,18,10.03,12,15.05,30.2,15.05,54.59h-93.6ZM1140.4,135.65c-.24-4.8-1.12-9.11-2.66-12.92-1.53-3.82-3.6-7.02-6.2-9.62-2.6-2.67-5.71-4.72-9.33-6.14-3.62-1.42-7.67-2.12-12.16-2.12-4.72,0-8.97.79-12.75,2.36-3.78,1.58-7.04,3.74-9.8,6.49-2.68,2.76-4.88,6-6.61,9.74-1.73,3.74-2.91,7.81-3.54,12.22h63.03Z"/>
        <path class="cls-1" d="M1249.12,212.02V39.21h58.19c14.08,0,26.74,1.83,37.95,5.49,11.21,3.66,20.75,9.11,28.62,16.35,7.79,7.32,13.77,16.39,17.94,27.21,4.17,10.82,6.26,23.43,6.26,37.83s-2.17,26.48-6.49,37.18c-4.33,10.7-10.47,19.67-18.41,26.91-7.95,7.24-17.53,12.69-28.74,16.35-11.21,3.66-23.67,5.49-37.36,5.49h-57.96ZM1282.64,185.93h23.61c10.07,0,18.69-1.42,25.85-4.25,7.16-2.83,13.06-6.88,17.71-12.16,4.56-5.27,7.93-11.7,10.09-19.3,2.16-7.59,3.25-16.11,3.25-25.56s-1.14-18.33-3.42-25.73c-2.28-7.4-5.75-13.57-10.39-18.53-4.72-5.04-10.68-8.81-17.88-11.33-7.2-2.52-15.76-3.78-25.67-3.78h-23.14v120.63Z"/>
        <path class="cls-1" d="M1445.65,155.48c0,5.35.77,10.29,2.3,14.81,1.53,4.53,3.79,8.4,6.79,11.63,3.07,3.31,6.79,5.88,11.15,7.73,4.37,1.85,9.42,2.77,15.17,2.77,6.92,0,13.1-1.46,18.53-4.37,5.43-2.91,9.8-7.59,13.1-14.05l23.61,10.51c-2.6,5.59-5.92,10.29-9.97,14.11-4.05,3.82-8.52,6.87-13.4,9.15-4.96,2.36-10.25,4.05-15.88,5.08-5.63,1.02-11.35,1.53-17.17,1.53-9.99,0-19-1.59-27.03-4.78s-14.83-7.69-20.42-13.52c-5.67-5.74-10.01-12.67-13.04-20.77-3.03-8.1-4.54-17.07-4.54-26.91,0-9.28,1.53-17.92,4.6-25.91,3.07-7.99,7.4-14.89,12.98-20.72,5.59-5.9,12.28-10.52,20.07-13.87,7.79-3.34,16.45-5.02,25.97-5.02,20.46,0,35.71,6,45.74,18,10.03,12,15.05,30.2,15.05,54.59h-93.6ZM1509.15,135.65c-.24-4.8-1.12-9.11-2.66-12.92-1.53-3.82-3.6-7.02-6.2-9.62-2.6-2.67-5.71-4.72-9.33-6.14-3.62-1.42-7.67-2.12-12.16-2.12-4.72,0-8.97.79-12.75,2.36-3.78,1.58-7.04,3.74-9.8,6.49-2.68,2.76-4.88,6-6.61,9.74-1.73,3.74-2.91,7.81-3.54,12.22h63.03Z"/>
        <path class="cls-1" d="M1596.03,212.02l-45.92-126.42h32.34l32.7,95.73,32.34-95.73h29.51l-45.56,126.42h-35.41Z"/>
        <path class="cls-1" d="M1698.37,61.52c-1.65-1.49-2.95-3.31-3.9-5.43-.94-2.12-1.42-4.41-1.42-6.85s.47-4.82,1.42-6.91c.94-2.08,2.24-3.88,3.9-5.37,1.65-1.57,3.56-2.77,5.72-3.6,2.16-.83,4.46-1.24,6.91-1.24s4.72.43,6.85,1.3c2.12.87,4.01,2.05,5.67,3.54,1.57,1.57,2.81,3.4,3.72,5.49.9,2.09,1.36,4.39,1.36,6.91s-.45,4.72-1.36,6.85c-.91,2.12-2.11,3.94-3.6,5.43-1.58,1.5-3.42,2.68-5.55,3.54-2.12.87-4.45,1.3-6.96,1.3s-4.76-.43-6.96-1.3c-2.2-.86-4.13-2.08-5.78-3.66ZM1695.77,212.02v-126.18h30.22v126.18h-30.22Z"/>
        <path class="cls-1" d="M1874.24,176.25c-2.12,6.61-5.12,12.32-8.97,17.12-3.86,4.8-8.34,8.73-13.46,11.8-5.12,3.15-10.74,5.47-16.88,6.96-6.14,1.49-12.51,2.24-19.12,2.24-9.99,0-18.96-1.61-26.91-4.84-7.95-3.23-14.68-7.71-20.18-13.46-5.51-5.82-9.72-12.79-12.63-20.89-2.91-8.1-4.37-17.04-4.37-26.79s1.59-18.06,4.78-26.09c3.19-8.03,7.65-14.95,13.4-20.77,5.74-5.82,12.57-10.39,20.48-13.69,7.91-3.31,16.62-4.96,26.14-4.96,6.37,0,12.49.69,18.36,2.07,5.86,1.38,11.27,3.52,16.23,6.43,4.96,2.83,9.34,6.49,13.16,10.98,3.82,4.49,6.91,9.84,9.27,16.05l-24.43,10.74c-2.52-7.16-6.67-12.67-12.45-16.53-5.78-3.85-12.49-5.78-20.13-5.78-6.14,0-11.35,1.22-15.64,3.66-4.29,2.44-7.77,5.67-10.45,9.68-2.68,4.09-4.62,8.72-5.84,13.87-1.22,5.15-1.83,10.45-1.83,15.88s.63,10.9,1.89,15.94c1.26,5.04,3.26,9.44,6.02,13.22,2.75,3.78,6.29,6.79,10.62,9.03,4.33,2.24,9.56,3.36,15.7,3.36,8.73,0,15.97-2.24,21.72-6.73,5.74-4.49,9.92-10.7,12.51-18.65l23.02,10.15Z"/>
        <path class="cls-1" d="M1920.51,155.48c0,5.35.77,10.29,2.3,14.81,1.53,4.53,3.79,8.4,6.79,11.63,3.07,3.31,6.79,5.88,11.15,7.73,4.37,1.85,9.42,2.77,15.17,2.77,6.92,0,13.1-1.46,18.53-4.37,5.43-2.91,9.8-7.59,13.1-14.05l23.61,10.51c-2.6,5.59-5.92,10.29-9.97,14.11-4.05,3.82-8.52,6.87-13.4,9.15-4.96,2.36-10.25,4.05-15.88,5.08-5.63,1.02-11.35,1.53-17.17,1.53-9.99,0-19-1.59-27.03-4.78s-14.83-7.69-20.42-13.52c-5.67-5.74-10.01-12.67-13.04-20.77-3.03-8.1-4.54-17.07-4.54-26.91,0-9.28,1.53-17.92,4.6-25.91,3.07-7.99,7.4-14.89,12.98-20.72,5.59-5.9,12.28-10.52,20.07-13.87,7.79-3.34,16.45-5.02,25.97-5.02,20.46,0,35.71,6,45.74,18,10.03,12,15.05,30.2,15.05,54.59h-93.6ZM1984.02,135.65c-.24-4.8-1.12-9.11-2.66-12.92-1.53-3.82-3.6-7.02-6.2-9.62-2.6-2.67-5.71-4.72-9.33-6.14-3.62-1.42-7.67-2.12-12.16-2.12-4.72,0-8.97.79-12.75,2.36-3.78,1.58-7.04,3.74-9.8,6.49-2.68,2.76-4.88,6-6.61,9.74-1.73,3.74-2.91,7.81-3.54,12.22h63.03Z"/>
        <path class="cls-1" d="M2092.73,212.02V39.21h42.38l49.81,125.95,49.46-125.95h41.43v172.81h-30.93V80.29l-54.42,131.73h-14.87l-52.64-131.73v131.73h-30.22Z"/>
        <path class="cls-1" d="M2382.51,212.02v-15.46c-4.8,6.37-10.56,10.94-17.29,13.69s-14.03,4.13-21.9,4.13c-5.9,0-11.43-.75-16.58-2.24-5.15-1.49-9.66-3.78-13.51-6.85-3.78-3.07-6.77-6.91-8.97-11.51-2.2-4.6-3.31-10.01-3.31-16.23,0-5.82.96-10.88,2.89-15.17,1.93-4.29,4.54-7.93,7.85-10.92,3.23-2.99,7.04-5.43,11.45-7.32,4.41-1.89,9.05-3.38,13.93-4.49,4.96-1.02,10.03-1.73,15.23-2.12,5.19-.39,10.23-.59,15.11-.59h14.87v-2.01c0-4.49-.34-8.56-1-12.22-.67-3.66-1.91-6.75-3.72-9.27-1.81-2.6-4.31-4.58-7.5-5.96-3.19-1.38-7.34-2.07-12.45-2.07-3.07,0-6.04.39-8.91,1.18-2.87.79-5.57,1.93-8.08,3.42-2.44,1.57-4.62,3.48-6.55,5.72-1.93,2.24-3.44,4.82-4.54,7.73l-23.49-10.15c2.12-5.59,5.11-10.31,8.97-14.16,3.85-3.85,8.22-7,13.1-9.44,4.88-2.44,10.11-4.19,15.7-5.25,5.59-1.06,11.21-1.59,16.88-1.59,7.47,0,14.36.93,20.66,2.77,6.29,1.85,11.72,4.66,16.29,8.44,4.64,3.78,8.24,8.6,10.8,14.46,2.56,5.86,3.84,12.81,3.84,20.83v82.63h-29.75ZM2382.27,155.48h-15.23c-3.46,0-7.3.18-11.51.53-4.21.35-8.13,1.24-11.75,2.66-3.7,1.42-6.77,3.5-9.21,6.26-2.44,2.76-3.66,6.53-3.66,11.33,0,3.07.51,5.65,1.54,7.73,1.02,2.09,2.48,3.8,4.37,5.13,1.81,1.34,3.93,2.3,6.37,2.89,2.44.59,5.08.89,7.91.89,3.85,0,7.63-.51,11.33-1.53,3.7-1.02,7.04-2.56,10.03-4.6,2.91-2.05,5.27-4.66,7.08-7.85,1.81-3.19,2.71-6.91,2.71-11.15v-12.28Z"/>
        <path class="cls-1" d="M2444.12,212.02v-126.42h30.22v20.07c2.04-3.93,4.6-7.32,7.67-10.15,3.07-2.83,6.45-5.19,10.15-7.08,3.7-1.89,7.67-3.28,11.92-4.19,4.25-.9,8.58-1.36,12.98-1.36,7.55,0,14.11,1.26,19.65,3.78,5.55,2.52,10.13,6.02,13.75,10.51,3.62,4.49,6.29,9.78,8.03,15.88,1.73,6.1,2.6,12.73,2.6,19.89v79.08h-30.69v-76.13c0-8.89-2.07-15.8-6.2-20.72-4.13-4.92-10.68-7.38-19.65-7.38-4.72,0-8.95.71-12.69,2.12-3.74,1.42-6.91,3.42-9.5,6.02-2.6,2.6-4.58,5.75-5.96,9.44-1.38,3.7-2.07,7.83-2.07,12.39v74.25h-30.22Z"/>
        <path class="cls-1" d="M2665.32,212.02v-15.46c-4.8,6.37-10.56,10.94-17.29,13.69s-14.03,4.13-21.9,4.13c-5.9,0-11.43-.75-16.58-2.24-5.15-1.49-9.66-3.78-13.51-6.85-3.78-3.07-6.77-6.91-8.97-11.51-2.2-4.6-3.31-10.01-3.31-16.23,0-5.82.96-10.88,2.89-15.17,1.93-4.29,4.54-7.93,7.85-10.92,3.23-2.99,7.04-5.43,11.45-7.32,4.41-1.89,9.05-3.38,13.93-4.49,4.96-1.02,10.03-1.73,15.23-2.12,5.19-.39,10.23-.59,15.11-.59h14.87v-2.01c0-4.49-.34-8.56-1-12.22-.67-3.66-1.91-6.75-3.72-9.27-1.81-2.6-4.31-4.58-7.5-5.96-3.19-1.38-7.34-2.07-12.45-2.07-3.07,0-6.04.39-8.91,1.18-2.87.79-5.57,1.93-8.08,3.42-2.44,1.57-4.62,3.48-6.55,5.72-1.93,2.24-3.44,4.82-4.54,7.73l-23.49-10.15c2.12-5.59,5.11-10.31,8.97-14.16,3.85-3.85,8.22-7,13.1-9.44,4.88-2.44,10.11-4.19,15.7-5.25,5.59-1.06,11.21-1.59,16.88-1.59,7.47,0,14.36.93,20.66,2.77,6.29,1.85,11.72,4.66,16.29,8.44,4.64,3.78,8.24,8.6,10.8,14.46,2.56,5.86,3.84,12.81,3.84,20.83v82.63h-29.75ZM2665.09,155.48h-15.23c-3.46,0-7.3.18-11.51.53-4.21.35-8.13,1.24-11.75,2.66-3.7,1.42-6.77,3.5-9.21,6.26-2.44,2.76-3.66,6.53-3.66,11.33,0,3.07.51,5.65,1.54,7.73,1.02,2.09,2.48,3.8,4.37,5.13,1.81,1.34,3.93,2.3,6.37,2.89,2.44.59,5.08.89,7.91.89,3.85,0,7.63-.51,11.33-1.53,3.7-1.02,7.04-2.56,10.03-4.6,2.91-2.05,5.27-4.66,7.08-7.85,1.81-3.19,2.71-6.91,2.71-11.15v-12.28Z"/>
        <path class="cls-1" d="M2746.42,217.56c1.57,3.54,3.62,6.47,6.14,8.79,2.52,2.32,5.31,4.19,8.38,5.61,3.15,1.34,6.45,2.3,9.92,2.89,3.46.59,6.96.89,10.5.89,5.59,0,10.6-.67,15.05-2.01,4.45-1.34,8.24-3.42,11.39-6.26,3.07-2.76,5.43-6.24,7.08-10.45,1.65-4.21,2.48-9.19,2.48-14.93v-18.89c-2.12,3.62-4.74,6.91-7.85,9.86-3.11,2.95-6.51,5.45-10.21,7.5-3.7,2.05-7.61,3.62-11.75,4.72-4.13,1.1-8.32,1.65-12.57,1.65-8.97,0-16.96-1.63-23.96-4.9-7-3.26-12.91-7.69-17.71-13.28-4.88-5.59-8.58-12.06-11.1-19.42-2.52-7.36-3.78-15.17-3.78-23.43s1.34-16.56,4.01-24.2c2.67-7.63,6.49-14.32,11.45-20.07,4.96-5.74,10.98-10.31,18.06-13.69,7.08-3.38,14.99-5.08,23.73-5.08,4.25,0,8.4.43,12.45,1.3,4.05.87,7.89,2.2,11.51,4.01,3.54,1.89,6.83,4.21,9.86,6.96,3.03,2.76,5.65,6.02,7.85,9.8v-19.36h30.33v116.98c0,9.92-1.73,18.41-5.19,25.5-3.46,7.08-8.22,12.87-14.28,17.35-5.98,4.49-13,7.77-21.07,9.86-8.07,2.08-16.66,3.13-25.79,3.13-5.9,0-11.8-.47-17.71-1.42-5.9-.94-11.45-2.56-16.64-4.84-5.27-2.36-10.03-5.49-14.28-9.38-4.25-3.9-7.63-8.83-10.15-14.81l23.84-10.39ZM2758.34,172.47c2.91,3.46,6.41,6.2,10.5,8.2,4.09,2.01,8.77,3.01,14.05,3.01,5.9,0,11.08-1.02,15.52-3.07,4.45-2.05,8.16-4.84,11.15-8.38,2.99-3.54,5.23-7.71,6.73-12.51,1.49-4.8,2.24-9.95,2.24-15.46s-.73-10.46-2.18-15.11c-1.46-4.64-3.64-8.66-6.55-12.04-2.83-3.46-6.42-6.16-10.74-8.09-4.33-1.93-9.37-2.89-15.11-2.89-6.06,0-11.27,1.08-15.64,3.25-4.37,2.17-7.93,5.06-10.68,8.68-2.83,3.7-4.9,7.99-6.2,12.87-1.3,4.88-1.95,10.07-1.95,15.58,0,4.96.77,9.68,2.3,14.16,1.54,4.49,3.72,8.42,6.55,11.8Z"/>
        <path class="cls-1" d="M2903.17,155.48c0,5.35.77,10.29,2.3,14.81,1.53,4.53,3.79,8.4,6.79,11.63,3.07,3.31,6.79,5.88,11.15,7.73,4.37,1.85,9.42,2.77,15.17,2.77,6.92,0,13.1-1.46,18.53-4.37,5.43-2.91,9.8-7.59,13.1-14.05l23.61,10.51c-2.6,5.59-5.92,10.29-9.97,14.11-4.05,3.82-8.52,6.87-13.4,9.15-4.96,2.36-10.25,4.05-15.88,5.08-5.63,1.02-11.35,1.53-17.17,1.53-9.99,0-19-1.59-27.03-4.78s-14.83-7.69-20.42-13.52c-5.67-5.74-10.01-12.67-13.04-20.77-3.03-8.1-4.54-17.07-4.54-26.91,0-9.28,1.53-17.92,4.6-25.91,3.07-7.99,7.4-14.89,12.98-20.72,5.59-5.9,12.28-10.52,20.07-13.87,7.79-3.34,16.45-5.02,25.97-5.02,20.46,0,35.71,6,45.74,18,10.03,12,15.05,30.2,15.05,54.59h-93.6ZM2966.67,135.65c-.24-4.8-1.12-9.11-2.66-12.92-1.53-3.82-3.6-7.02-6.2-9.62-2.6-2.67-5.71-4.72-9.33-6.14-3.62-1.42-7.67-2.12-12.16-2.12-4.72,0-8.97.79-12.75,2.36-3.78,1.58-7.04,3.74-9.8,6.49-2.68,2.76-4.88,6-6.61,9.74-1.73,3.74-2.91,7.81-3.54,12.22h63.03Z"/>
        <path class="cls-1" d="M3021.09,212.02v-126.42h30.22v23.73c4.25-8.73,9.82-15.19,16.7-19.36,6.88-4.17,15.17-6.26,24.85-6.26v27.97c-6.14,0-11.74.55-16.82,1.65-5.08,1.1-9.46,3.03-13.16,5.78-3.62,2.68-6.45,6.26-8.5,10.74-2.05,4.49-3.07,10.11-3.07,16.88v65.27h-30.22Z"/>
        <path class="cls-1" d="M3171.11,212.02V39.21h60.08c9.13,0,17.63.96,25.5,2.89,7.87,1.93,14.71,5.06,20.54,9.38,5.82,4.33,10.41,9.96,13.75,16.88,3.34,6.93,5.02,15.35,5.02,25.26,0,7.32-.91,13.71-2.71,19.18-1.81,5.47-4.37,10.17-7.67,14.1-3.23,3.94-7.06,7.18-11.51,9.74-4.45,2.56-9.34,4.62-14.7,6.2-5.27,1.5-10.88,2.54-16.82,3.13-5.94.59-11.98.89-18.12.89h-19.83v65.16h-33.52ZM3204.64,122.78h26.32c10.31,0,18.28-2.28,23.9-6.85,5.62-4.56,8.44-12.08,8.44-22.55,0-5.43-.77-9.99-2.3-13.69-1.53-3.7-3.72-6.65-6.55-8.85-2.83-2.28-6.24-3.9-10.21-4.84-3.97-.94-8.4-1.42-13.28-1.42h-26.32v58.19Z"/>
        <path class="cls-1" d="M3319.37,212.02V34.37l30.22-13.1v190.75h-30.22Z"/>
        <path class="cls-1" d="M3468.33,212.02v-19.83c-1.97,3.86-4.43,7.18-7.38,9.97-2.95,2.79-6.24,5.1-9.86,6.9-3.62,1.81-7.5,3.15-11.63,4.01-4.13.86-8.4,1.3-12.81,1.3-7.24,0-13.63-1.14-19.18-3.42-5.55-2.28-10.17-5.51-13.87-9.68-3.78-4.25-6.61-9.3-8.5-15.17-1.89-5.86-2.83-12.37-2.83-19.54v-80.97h30.22v77.31c0,8.66,2.05,15.46,6.14,20.42,4.09,4.96,10.54,7.44,19.36,7.44,4.72,0,8.95-.73,12.69-2.18,3.74-1.46,6.94-3.52,9.62-6.2,2.6-2.6,4.58-5.76,5.96-9.5,1.38-3.74,2.07-7.85,2.07-12.33v-74.95h30.1v126.42h-30.1Z"/>
        <path class="cls-1" d="M3544.94,174.36c1.18,3.07,2.83,5.77,4.96,8.09,2.12,2.32,4.56,4.23,7.32,5.73,2.75,1.5,5.76,2.62,9.03,3.36,3.26.75,6.59,1.12,9.97,1.12,2.44,0,4.96-.22,7.55-.65,2.6-.43,4.96-1.24,7.08-2.42,2.12-1.1,3.88-2.62,5.25-4.54,1.38-1.93,2.07-4.39,2.07-7.38,0-3.15-.79-5.74-2.36-7.79-1.58-2.05-3.7-3.78-6.37-5.19-2.76-1.34-5.88-2.46-9.38-3.36-3.5-.9-7.22-1.75-11.15-2.54-3.38-.71-6.81-1.48-10.27-2.3-3.46-.83-6.77-1.83-9.92-3.01-3.23-1.18-6.22-2.66-8.97-4.43-2.75-1.77-5.19-3.91-7.32-6.43-2.05-2.52-3.66-5.53-4.84-9.03-1.18-3.5-1.77-7.61-1.77-12.33,0-6.53,1.38-12.2,4.13-17,2.75-4.8,6.37-8.77,10.86-11.92,4.41-3.15,9.42-5.51,15.05-7.08,5.62-1.57,11.31-2.36,17.06-2.36,5.04,0,10.15.49,15.34,1.48,5.19.98,10.11,2.58,14.75,4.78,4.56,2.2,8.71,5.06,12.45,8.56,3.74,3.5,6.63,7.73,8.68,12.69l-22.43,9.68c-1.26-2.83-2.91-5.21-4.96-7.14-2.05-1.93-4.33-3.52-6.85-4.78-2.52-1.26-5.16-2.16-7.91-2.71-2.76-.55-5.43-.83-8.03-.83s-4.96.26-7.32.77c-2.36.51-4.45,1.36-6.26,2.54-1.89,1.1-3.38,2.56-4.49,4.37-1.1,1.81-1.65,4.01-1.65,6.61,0,2.91.73,5.29,2.18,7.14,1.46,1.85,3.44,3.36,5.96,4.54,2.44,1.26,5.35,2.28,8.74,3.07,3.38.79,6.96,1.53,10.74,2.24,3.46.63,6.98,1.34,10.56,2.12,3.58.79,7.02,1.81,10.33,3.07,3.38,1.18,6.55,2.64,9.5,4.37,2.95,1.73,5.53,3.9,7.73,6.49,2.2,2.68,3.93,5.8,5.19,9.38,1.26,3.58,1.89,7.85,1.89,12.81,0,7.4-1.44,13.67-4.31,18.83-2.87,5.15-6.67,9.31-11.39,12.45-4.8,3.15-10.27,5.43-16.41,6.85-6.14,1.42-12.51,2.12-19.12,2.12-5.59,0-11.17-.51-16.76-1.53-5.59-1.02-10.82-2.71-15.7-5.08-4.88-2.36-9.23-5.47-13.04-9.32-3.82-3.85-6.71-8.62-8.68-14.28l23.25-9.8Z"/>
      </g>
      <g>
        <path class="cls-2" d="M27.13,33.89v183.43c0,3.73,3.03,6.74,6.76,6.74h54.64l-12.78-12.76,19.19-19.19,35.93,35.93c3.88,3.88,5.03,9.71,2.94,14.78-2.11,5.08-7.05,8.38-12.53,8.38H30.27c-16.72,0-30.27-13.55-30.27-30.28V30.28C0,13.56,13.55,0,30.27,0h123.77v27.14H33.89c-3.73,0-6.76,3.02-6.76,6.74Z"/>
        <path class="cls-3" d="M288,30.28v190.64c0,16.73-13.55,30.28-30.27,30.28h-78.79c-13.76,0-24.9-11.15-24.9-24.9V59.58c0-5.49,3.3-10.44,8.37-12.53,5.08-2.11,10.91-.94,14.79,2.94l35.93,35.92-19.19,19.19-12.78-12.76v124.96c0,3.74,3.03,6.77,6.77,6.77h66.14c3.74,0,6.79-3.03,6.79-6.77V33.92c0-3.74-3.05-6.77-6.79-6.77h-100.04V0h103.68c16.73,0,30.28,13.56,30.28,30.28Z"/>
      </g>
    </g>
  </g>
</svg>