<?xml version="1.0" encoding="utf-8"?>
<!-- Generator: Adobe Illustrator 27.3.1, SVG Export Plug-In . SVG Version: 6.00 Build 0)  -->
<svg version="1.1" id="Layer_1" xmlns="http://www.w3.org/2000/svg" xmlns:xlink="http://www.w3.org/1999/xlink" x="0px" y="0px"
	 viewBox="0 0 1150 296" style="enable-background:new 0 0 1150 296;" xml:space="preserve">
<style type="text/css">
	.st0{fill:#FFFFFF;}
</style>
<g>
	<g>
		<path class="st0" d="M382.1,140.8h26.4l50.1,82.1v-82.1h20.1v114.9h-23.1l-53.4-87.4v87.4h-20.1L382.1,140.8L382.1,140.8z"/>
		<path class="st0" d="M540.1,169.8c25.5,0,45.1,17.9,45.1,43.6c0,26.4-20.6,43.8-46,43.8c-25.6,0-46.1-17.7-46.1-43.4
			C493.1,187.5,514.8,169.8,540.1,169.8z M563.7,213.6c0-15.5-7.8-28.3-24.3-28.3c-17,0-23.7,13.5-23.7,28.9
			c0,14.9,7.9,27.6,24.2,27.6C556.6,241.8,563.7,228.3,563.7,213.6z"/>
		<path class="st0" d="M642.5,255.1c-4.3,1.3-8.8,2-13.8,2c-16,0-25.5-8.3-25.5-25v-45.7h-11.3v-14.8h11.3v-17.3l20.1-8.7v26.1h18.5
			v14.8h-18.5v43.9c0,6.6,2.8,10.7,10.2,10.7c2.8,0,6-0.6,9-1.6L642.5,255.1L642.5,255.1z"/>
		<path class="st0" d="M732.7,237.4c-7,14.8-22,19.8-37.5,19.8c-26.5,0-43.2-17.7-43.2-43.9c0-24.6,17-43.6,42.3-43.6
			c27.2,0,40.4,15.9,40.4,48.3h-62.2c0,14.2,8.2,24.6,23.5,24.6c9.1,0,16.6-3.7,21-12.2L732.7,237.4z M714.6,204.9
			c-0.6-12.7-8.3-20.5-20.2-20.5c-12.6,0-20,8.9-21.7,20.5H714.6z"/>
		<path class="st0" d="M750.8,133.6h20.1v51.6c5.8-9.6,17.5-15.4,28.6-15.4c25.6,0,38.2,20.6,38.2,43.6c0,23.7-13.3,43.9-37.6,43.9
			c-11.8,0-23.8-4.8-29.3-15.1v13.5h-20.1L750.8,133.6L750.8,133.6z M817,212.9c0-14.3-7-27.4-23.5-27.4
			c-16.6,0-23.3,13.3-23.3,28.2c0,15.8,7.5,27.8,24.2,27.8C812.1,241.6,817,228.4,817,212.9z"/>
		<path class="st0" d="M893,169.8c25.5,0,45.1,17.9,45.1,43.6c0,26.4-20.6,43.8-46,43.8c-25.6,0-46.1-17.7-46.1-43.4
			C846,187.5,867.7,169.8,893,169.8z M916.5,213.6c0-15.5-7.8-28.3-24.3-28.3c-17,0-23.7,13.5-23.7,28.9c0,14.9,7.9,27.6,24.2,27.6
			C909.5,241.8,916.5,228.3,916.5,213.6z"/>
		<path class="st0" d="M991.6,169.8c25.5,0,45.1,17.9,45.1,43.6c0,26.4-20.6,43.8-46,43.8c-25.6,0-46.1-17.7-46.1-43.4
			C944.6,187.5,966.3,169.8,991.6,169.8z M1015.1,213.6c0-15.5-7.8-28.3-24.3-28.3c-17,0-23.7,13.5-23.7,28.9
			c0,14.9,7.9,27.6,24.2,27.6C1008,241.8,1015.1,228.3,1015.1,213.6z"/>
		<path class="st0" d="M1051.4,133.6h20.1v74.7l30.4-36.6h22.1l-33.3,38.5l35.9,45.5h-23.2l-31.9-41v41h-20.1V133.6z"/>
	</g>
	<g>
		<path class="st0" d="M382.2,104.4l37-53.4H386V40.5h50.6v5.2l-36.1,53.4h35v10.5h-53.3L382.2,104.4L382.2,104.4z"/>
		<path class="st0" d="M468.3,58c15.4,0,27.2,10.8,27.2,26.3c0,15.9-12.4,26.4-27.7,26.4c-15.4,0-27.8-10.7-27.8-26.1
			C440,68.6,453,58,468.3,58z M482.5,84.3c0-9.3-4.7-17.1-14.6-17.1c-10.2,0-14.3,8.1-14.3,17.4c0,9,4.8,16.6,14.6,16.6
			C478.2,101.3,482.5,93.2,482.5,84.3z"/>
		<path class="st0" d="M504.3,36.1h12.1v31c3.3-6.3,9.9-9.1,16.9-9.1c12.1,0,18.2,8.5,18.2,20v31.7h-12.2V79.2
			c0-7.3-3.8-11.2-10.8-11.2c-7.8,0-12,4.8-12,12v29.7h-12.1L504.3,36.1L504.3,36.1z"/>
		<path class="st0" d="M587.6,58c15.4,0,27.2,10.8,27.2,26.3c0,15.9-12.4,26.4-27.7,26.4c-15.4,0-27.8-10.7-27.8-26.1
			C559.3,68.6,572.4,58,587.6,58z M601.8,84.3c0-9.3-4.7-17.1-14.7-17.1c-10.2,0-14.3,8.1-14.3,17.4c0,9,4.8,16.6,14.6,16.6
			C597.6,101.3,601.8,93.2,601.8,84.3z"/>
	</g>
</g>
<g>
	<path class="st0" d="M314.8,46.1c-2.3-3.1-5.6-5-9.4-5.5L132.2,16.3c-3.7-0.5-7.5,0.4-10.5,2.7c-3.1,2.3-5,5.6-5.5,9.4l-2.1,15.1
		l-73.8,7.7h0c-3.7,0.4-7.1,2.2-9.5,5.2c-2.4,2.9-3.5,6.6-3.1,10.4L46,240.7v0c0.8,7.3,6.9,12.7,14,12.7c0.5,0,1,0,1.5-0.1l6.3-0.7
		v13.1c0,7.8,6.3,14.2,14.2,14.2H257c7.8,0,14.1-6.3,14.2-14.1c0,0,0,0,0-0.1V241l6,0.8c0.7,0.1,1.4,0.1,2,0.1c3,0,6-1,8.5-2.8
		c3.1-2.3,5-5.6,5.5-9.3l24.3-173.2C318,52.9,317.1,49.2,314.8,46.1z M67.9,90.8v144.7l-5.3,0.6L44.9,67.8l66.8-7l-2.2,15.9H82.1
		C74.3,76.6,67.9,83,67.9,90.8z M254.2,262.9H84.9v-19.6c0-0.1,0-0.1,0-0.2V93.6h169.2V262.9z M276.7,224.6l-5.6-0.8V90.8
		c0-7.8-6.3-14.2-14.2-14.2H126.6l3.4-24c0-0.2,0.1-0.4,0.1-0.6l2.6-18.5L300.3,57L276.7,224.6z"/>
	<path class="st0" d="M118.6,136.2h102c4.7,0,8.5-3.8,8.5-8.5s-3.8-8.5-8.5-8.5h-102c-4.7,0-8.5,3.8-8.5,8.5
		S113.9,136.2,118.6,136.2z"/>
	<path class="st0" d="M118.6,169.9h102c4.7,0,8.5-3.8,8.5-8.5s-3.8-8.5-8.5-8.5h-102c-4.7,0-8.5,3.8-8.5,8.5
		S113.9,169.9,118.6,169.9z"/>
	<path class="st0" d="M118.6,203.6h102c4.7,0,8.5-3.8,8.5-8.5c0-4.7-3.8-8.5-8.5-8.5h-102c-4.7,0-8.5,3.8-8.5,8.5
		C110.1,199.8,113.9,203.6,118.6,203.6z"/>
	<path class="st0" d="M169.4,220.3h-50.7c-4.7,0-8.5,3.8-8.5,8.5s3.8,8.5,8.5,8.5h50.7c4.7,0,8.5-3.8,8.5-8.5
		S174.1,220.3,169.4,220.3z"/>
</g>
</svg>
