<?xml version="1.0" encoding="utf-8"?>
<!-- Generator: Adobe Illustrator 27.3.1, SVG Export Plug-In . SVG Version: 6.00 Build 0)  -->
<svg version="1.1" id="Layer_1" xmlns="http://www.w3.org/2000/svg" xmlns:xlink="http://www.w3.org/1999/xlink" x="0px" y="0px"
	 viewBox="0 0 1024 1024" style="enable-background:new 0 0 1024 1024;" xml:space="preserve">
<style type="text/css">
	.st0{fill:none;}
	.st1{fill:#E42527;}
	.st2{fill:#226DB4;}
	.st3{fill:#F9B21D;}
</style>
<g>
	<path class="st0" d="M123.6,823l18.8-2V310.1c0-27.6,22.4-50,50-50h96.5l7.9-56L61.1,228.9L123.6,823z"/>
	<path class="st0" d="M202.4,846.2c0.1,1.2,0.1,2.5,0,3.7v67.7h597.5V320.1H202.4V846.2z M500.8,827.3H321.7c-16.6,0-30-13.4-30-30
		s13.4-30,30-30h179.1c16.6,0,30,13.4,30,30S517.4,827.3,500.8,827.3z M321.3,410.3h360c16.6,0,30,13.4,30,30s-13.4,30-30,30h-360
		c-16.6,0-30-13.4-30-30C291.3,423.7,304.7,410.3,321.3,410.3z M321.3,529.3h360c16.6,0,30,13.4,30,30s-13.4,30-30,30h-360
		c-16.6,0-30-13.4-30-30S304.7,529.3,321.3,529.3z M321.3,648.3h360c16.6,0,30,13.4,30,30s-13.4,30-30,30h-360
		c-16.6,0-30-13.4-30-30S304.7,648.3,321.3,648.3z"/>
	<path class="st0" d="M859.9,310.1v469.7l19.6,2.8l83.1-591.7l-591.7-83.1l-9.1,64.9c-0.1,1.2-0.3,2.4-0.5,3.6l-11.8,83.8h460.4
		C837.5,260.1,859.9,282.5,859.9,310.1z"/>
	<path class="st1" d="M361.3,176.3c0.2-1.2,0.4-2.4,0.5-3.6L361.3,176.3z"/>
	<path class="st1" d="M202.4,846.2v3.7C202.5,848.6,202.5,847.4,202.4,846.2z"/>
	<path class="st1" d="M123.6,823L61.1,228.9l235.7-24.8l8.6-61.3L44.9,170.2h-0.1c-13.2,1.4-25.1,7.9-33.5,18.2
		C2.8,198.8-1,211.9,0.4,225.2l64.6,614v0.1C67.8,865,89.5,884,114.6,884c1.8,0,3.6-0.1,5.5-0.3l22.3-2.3V821L123.6,823z"/>
	<path class="st2" d="M1013.9,152.4c-8.1-10.8-19.8-17.7-33-19.5L369.4,47c-13.2-1.9-26.3,1.5-37,9.5c-10.8,8.1-17.7,19.8-19.5,33
		l-7.5,53.3l-8.6,61.3l-7.9,56h60.6l11.8-83.8l0.5-3.6l9.1-64.9l591.7,83.1l-83.1,591.7l-19.6-2.8v60.6l21.1,3
		c2.4,0.3,4.8,0.5,7.2,0.5c10.7,0,21.1-3.4,29.8-10c10.8-8.1,17.7-19.8,19.5-33l85.9-611.5C1025.3,176.2,1021.9,163.1,1013.9,152.4z
		"/>
	<path class="st3" d="M859.9,310.1c0-27.6-22.4-50-50-50H349.5h-60.6h-96.5c-27.6,0-50,22.4-50,50V821v60.3v46.2
		c0,27.6,22.4,50,50,50h617.4c27.4,0,49.8-22.3,50.1-49.7c0-0.1,0-0.2,0-0.3v-87.2v-60.6V310.1z M799.9,917.6H202.4v-67.7v-3.7
		V320.1h597.5V917.6z"/>
	<path class="st2" d="M321.3,470.3h360c16.6,0,30-13.4,30-30s-13.4-30-30-30h-360c-16.6,0-30,13.4-30,30S304.7,470.3,321.3,470.3z"
		/>
	<path class="st2" d="M321.3,589.3h360c16.6,0,30-13.4,30-30s-13.4-30-30-30h-360c-16.6,0-30,13.4-30,30S304.7,589.3,321.3,589.3z"
		/>
	<path class="st2" d="M321.3,708.3h360c16.6,0,30-13.4,30-30s-13.4-30-30-30h-360c-16.6,0-30,13.4-30,30S304.7,708.3,321.3,708.3z"
		/>
	<path class="st2" d="M500.8,767.3H321.7c-16.6,0-30,13.4-30,30s13.4,30,30,30h179.1c16.6,0,30-13.4,30-30S517.4,767.3,500.8,767.3z
		"/>
</g>
</svg>
