<?xml version="1.0" encoding="utf-8"?>
<!-- Generator: Adobe Illustrator 27.3.1, SVG Export Plug-In . SVG Version: 6.00 Build 0)  -->
<svg version="1.1" id="Layer_1" xmlns="http://www.w3.org/2000/svg" xmlns:xlink="http://www.w3.org/1999/xlink" x="0px" y="0px"
	 viewBox="0 0 1130 296" style="enable-background:new 0 0 1130 296;" xml:space="preserve">
<style type="text/css">
	.st0{fill:#FFFFFF;}
</style>
<g>
	<g>
		<path class="st0" d="M354.3,140.8h39.9c24.2,0,43.1,9.7,43.1,36.2c0,29.1-23,35.4-47.6,35.4h-13.2v43.3h-22.3L354.3,140.8
			L354.3,140.8z M394.1,196.4c13.7,0,21.5-5.6,21.5-19.5c0-14.4-8.5-19.1-21.5-19.1h-17.5v38.7H394.1z"/>
		<path class="st0" d="M496.2,245.4c-6.4,8.5-15.7,11.9-26,11.9c-15.8,0-28.2-8-28.2-24.5c0-23.3,24.6-27,44.2-27h9.9v-1.3
			c0-12-2.8-19.6-16.4-19.6c-8.2,0-15.7,4.2-18.7,12l-15.6-6.8c5.6-14.8,21.3-20.2,36.3-20.2c19.9,0,34.3,9.6,34.3,30.9v54.9h-19.8
			L496.2,245.4L496.2,245.4z M485.9,218.1c-9.3,0-24,1.1-24,13.8c0,8.1,5.9,11.1,13.4,11.1c10.2,0,20.7-5.3,20.7-16.7v-8.2H485.9z"
			/>
		<path class="st0" d="M560.3,247.1l-33-75.5h21.5l22,53.7l20.6-53.7H611l-46.2,112.9h-19.7L560.3,247.1z"/>
		<path class="st0" d="M624.5,171.6h20.1v12.9c5-9.6,15.2-14.7,26.1-14.7c10.4,0,20.5,4.6,24.4,15c6.4-9.6,17.4-15,29.3-15
			c19.3,0,28.4,14.1,28.4,32.7v53.2h-20v-51.9c0-10.5-5.3-17.3-16-17.3c-11.7,0-18,8.1-18,19v50.3h-20.1v-51.9
			c0-10.5-5.3-17.3-16.1-17.3c-11.6,0-18,8.1-18,19v50.3h-20.1L624.5,171.6L624.5,171.6z"/>
		<path class="st0" d="M849.1,237.4c-7,14.8-22,19.8-37.5,19.8c-26.5,0-43.2-17.7-43.2-43.9c0-24.6,17-43.6,42.3-43.6
			c27.2,0,40.4,15.9,40.4,48.3h-62.2c0,14.2,8.2,24.6,23.5,24.6c9.1,0,16.6-3.7,21-12.2L849.1,237.4z M831.1,204.9
			c-0.6-12.7-8.3-20.5-20.2-20.5c-12.6,0-20,8.9-21.7,20.5H831.1z"/>
		<path class="st0" d="M867.3,171.6h20.1V185c5.4-10.4,16.7-15.1,28.4-15.1c20.2,0,29.3,14.2,29.3,33.3v52.6h-20.4v-50.6
			c0-11.8-5.3-18.7-17.2-18.7c-12.6,0-20.1,7.9-20.1,19.9v49.4h-20.1L867.3,171.6L867.3,171.6z"/>
		<path class="st0" d="M1008.7,255.1c-4.3,1.3-8.8,2-13.8,2c-16,0-25.5-8.3-25.5-25v-45.7h-11.3v-14.8h11.3v-17.3l20.1-8.7v26.1
			h18.5v14.8h-18.5v43.9c0,6.6,2.8,10.7,10.2,10.7c2.8,0,6-0.6,9-1.6L1008.7,255.1L1008.7,255.1z"/>
		<path class="st0" d="M1034.2,230.6c3.1,8.2,11.7,12.2,20.8,12.2c6.5,0,14.6-2,14.6-10c0-8.4-9.1-10.4-19.5-12.6
			c-13.5-2.8-28.6-6.1-28.6-25c0-17.3,16.1-25.5,31.3-25.5c13.3,0,28.6,5,34.1,18.3l-14.9,6.4c-3.3-7.5-11.5-10.3-18.4-10.3
			c-6.7,0-13.1,2.7-13.1,9.5c0,7.7,8.2,9.3,18.4,11.3c13.7,2.7,30.1,5.8,30.1,25.4c0,19.8-16.6,26.8-34.1,26.8
			c-14.8,0-30.8-5-36-20.1L1034.2,230.6z"/>
	</g>
	<g>
		<path class="st0" d="M354.4,104.4l37-53.4h-33.2V40.5h50.6v5.2l-36.1,53.4h35v10.5h-53.3L354.4,104.4L354.4,104.4z"/>
		<path class="st0" d="M440.5,58c15.4,0,27.2,10.8,27.2,26.3c0,15.9-12.4,26.4-27.7,26.4c-15.4,0-27.8-10.7-27.8-26.1
			C412.2,68.6,425.3,58,440.5,58z M454.7,84.3c0-9.3-4.7-17.1-14.6-17.1c-10.2,0-14.3,8.1-14.3,17.4c0,9,4.8,16.6,14.6,16.6
			C450.4,101.3,454.7,93.2,454.7,84.3z"/>
		<path class="st0" d="M476.5,36.1h12.1v31c3.3-6.3,9.9-9.1,16.9-9.1c12.1,0,18.2,8.5,18.2,20v31.7h-12.2V79.2
			c0-7.3-3.8-11.2-10.8-11.2c-7.8,0-12,4.8-12,12v29.7h-12.1L476.5,36.1L476.5,36.1z"/>
		<path class="st0" d="M559.8,58c15.4,0,27.2,10.8,27.2,26.3c0,15.9-12.4,26.4-27.7,26.4c-15.4,0-27.8-10.7-27.8-26.1
			C531.5,68.6,544.6,58,559.8,58z M574,84.3c0-9.3-4.7-17.1-14.7-17.1c-10.2,0-14.3,8.1-14.3,17.4c0,9,4.8,16.6,14.6,16.6
			C569.8,101.3,574,93.2,574,84.3z"/>
	</g>
</g>
<path class="st0" d="M289.8,100.7c0-1.6-0.1-3.3-0.2-4.9c-1.1-11.3-6.6-21.8-15.4-29c-2.3-2-4.8-3.8-7.5-5.4L229.6,40L212.4,30
	c-0.5-0.3-0.9-0.5-1.4-0.7L167.4,4.1c-2.6-1.5-5.9-1.5-8.5,0L40.7,72.4c-2.6,1.5-4.2,4.3-4.2,7.4v110.3c0,19.2,10.3,37,26.9,46.6
	l95.5,55.1c2.6,1.5,5.9,1.5,8.5,0l91.4-52.8c1.5-0.8,3-1.6,4.4-2.4c0.5-0.3,1-0.6,1.4-1c15.7-9.9,25.2-27.1,25.2-45.6v-88.5
	C289.8,101.2,289.8,101,289.8,100.7z M272.8,154c-27.5,22.6-66.2,25.8-97.1,7.9L136,138.8V119l41.5,23.8
	c30.4,17.4,68.3,14.2,95.3-8.1V154z M163.1,274.7L71.8,222c-11.4-6.6-18.4-18.8-18.4-31.9V84.7l109.7-63.3L221,54.7l38.8,22.8
	c1.2,0.7,2.3,1.5,3.4,2.3c5.9,5.3,9.4,12.8,9.6,20.8c-0.1,7.3-3.3,14.2-8.7,19.1c-21.5,19.3-53,22.7-78.1,8.3l-54.3-31.1
	c-4.1-2.3-9.3-0.9-11.6,3.2c-0.7,1.3-1.1,2.7-1.1,4.2v98.4c0,3,1.6,5.9,4.2,7.4l46.2,26.7c11.8,6.8,24.9,10.9,38.4,12.2L163.1,274.7
	z M254.4,222l-3.7,2.2c-10.7,5.3-22.4,8.1-34.3,8.1l0,0c-13.5,0-26.7-3.6-38.4-10.3L136,197.8v-39.3l31.2,18.1
	c15.6,9.1,33.2,13.8,51.2,13.8c3.6,0,7.1-0.2,10.7-0.6c15.5-1.6,30.5-6.7,43.7-15v15.2C272.8,203.2,265.8,215.4,254.4,222z"/>
</svg>
