<?xml version="1.0" encoding="utf-8"?>
<!-- Generator: Adobe Illustrator 27.5.0, SVG Export Plug-In . SVG Version: 6.00 Build 0)  -->
<svg version="1.1" id="Layer_1" xmlns="http://www.w3.org/2000/svg" xmlns:xlink="http://www.w3.org/1999/xlink" x="0px" y="0px"
	 viewBox="0 0 1024 1024" style="enable-background:new 0 0 1024 1024;" xml:space="preserve">
<style type="text/css">
	.st0{fill:#226DB4;}
</style>
<path class="st0" d="M959,345.2c0.1-5.7-0.2-11.5-0.8-17.2c-3.8-39.9-23.4-76.7-54.3-102.2c-8.1-7.2-16.9-13.5-26.3-18.9
	l-131.2-75.7l-60.5-35.5c-1.6-0.9-3.3-1.7-5.1-2.4L527,4.5c-9.3-5.4-20.7-5.4-30,0L80,245.3c-9.3,5.4-15,15.3-15,26v389.1
	c0.1,67.9,36.3,130.5,95,164.5l337,194.6c9.3,5.4,20.7,5.4,30,0l322.3-186.1c5.3-2.7,10.5-5.5,15.6-8.5c1.8-1,3.5-2.2,5-3.6
	c55.3-34.8,88.9-95.6,89-161V348C959,347.1,959,346.2,959,345.2z M899,533.1c-97.1,79.8-233.6,90.9-342.3,27.8l-140.3-81.4v-70
	l146.5,84C670,554.9,803.9,543.5,899,464.9V533.1z M512,958.9L190,773c-40.2-23.3-64.9-66.2-65-112.6V288.6L512,65.1L716.2,183
	l136.9,80.3c4.2,2.5,8.1,5.2,11.9,8.3c20.8,18.8,33.1,45.3,33.9,73.4c-0.3,25.8-11.5,50.2-30.8,67.3c-75.9,68.2-187,80-275.4,29.1
	L401.3,331.8c-14.4-8.2-32.7-3.3-40.9,11.1c-2.6,4.5-4,9.7-4,14.9v347c0,10.7,5.7,20.6,15,26l162.8,94.1c41.5,24,87.7,38.6,135.4,43
	L512,958.9z M834,773l-13.2,7.6c-37.6,18.8-79.1,28.6-121.2,28.6l0,0c-47.5,0-94.2-12.5-135.4-36.3l-147.9-85.5V548.9l110.2,63.9
	c54.9,32,117.2,48.8,180.7,48.8c12.6,0,25.1-0.6,37.6-1.9c54.8-5.5,107.5-23.6,154.2-52.8v53.5C898.9,706.8,874.2,749.7,834,773z"/>
</svg>
