<?xml version="1.0" encoding="utf-8"?>
<!-- Generator: Adobe Illustrator 27.3.1, SVG Export Plug-In . SVG Version: 6.00 Build 0)  -->
<svg version="1.1" id="Layer_1" xmlns="http://www.w3.org/2000/svg" xmlns:xlink="http://www.w3.org/1999/xlink" x="0px" y="0px"
	 viewBox="0 0 910 296" style="enable-background:new 0 0 910 296;" xml:space="preserve">
<style type="text/css">
	.st0{fill:#FFFFFF;}
</style>
<g>
	<g>
		<path class="st0" d="M382.2,140.8h39.9c24.2,0,43.1,9.7,43.1,36.2c0,29.1-23,35.4-47.6,35.4h-13.2v43.3h-22.3L382.2,140.8
			L382.2,140.8z M422,196.4c13.7,0,21.5-5.6,21.5-19.5c0-14.4-8.5-19.1-21.5-19.1h-17.5v38.7H422z"/>
		<path class="st0" d="M524,245.4c-6.4,8.5-15.7,11.9-26,11.9c-15.8,0-28.2-8-28.2-24.5c0-23.3,24.6-27,44.2-27h9.9v-1.3
			c0-12-2.8-19.6-16.4-19.6c-8.2,0-15.7,4.2-18.7,12l-15.6-6.8c5.6-14.8,21.3-20.2,36.3-20.2c19.8,0,34.3,9.6,34.3,30.9v54.9H524
			L524,245.4L524,245.4z M513.8,218.1c-9.3,0-24,1.1-24,13.8c0,8.1,5.9,11.1,13.4,11.1c10.2,0,20.7-5.3,20.7-16.7v-8.2H513.8z"/>
		<path class="st0" d="M588.2,247.1l-33-75.5h21.5l22,53.7l20.6-53.7h19.5l-46.2,112.9H573L588.2,247.1z"/>
		<path class="st0" d="M652.3,171.6h20.1v15.8c5.7-11.5,14.8-17,27.6-17V189c-16.2,0-27.6,5.3-27.6,23.3v43.4h-20.1V171.6z"/>
		<path class="st0" d="M752.8,169.8c25.5,0,45.1,17.9,45.1,43.6c0,26.4-20.6,43.8-46,43.8c-25.6,0-46.1-17.7-46.1-43.4
			C705.8,187.5,727.5,169.8,752.8,169.8z M776.3,213.6c0-15.5-7.8-28.3-24.3-28.3c-17,0-23.7,13.5-23.7,28.9
			c0,14.9,7.9,27.6,24.2,27.6C769.3,241.8,776.3,228.3,776.3,213.6z"/>
		<path class="st0" d="M813.1,137.6l20.1-8.7v126.8h-20.1V137.6z"/>
		<path class="st0" d="M856.4,137.6l20.1-8.7v126.8h-20.1V137.6z"/>
	</g>
	<g>
		<path class="st0" d="M382.3,104.4l37-53.4h-33.2V40.5h50.6v5.2l-36.1,53.4h35v10.5h-53.3L382.3,104.4L382.3,104.4z"/>
		<path class="st0" d="M468.4,58c15.4,0,27.2,10.8,27.2,26.3c0,15.9-12.4,26.4-27.7,26.4c-15.4,0-27.8-10.7-27.8-26.1
			C440,68.6,453.1,58,468.4,58z M482.5,84.3c0-9.3-4.7-17.1-14.6-17.1c-10.2,0-14.3,8.1-14.3,17.4c0,9,4.8,16.6,14.6,16.6
			C478.3,101.3,482.5,93.2,482.5,84.3z"/>
		<path class="st0" d="M504.4,36.1h12.1v31c3.3-6.3,9.9-9.1,16.9-9.1c12.1,0,18.2,8.5,18.2,20v31.7h-12.2V79.2
			c0-7.3-3.8-11.2-10.8-11.2c-7.8,0-12,4.8-12,12v29.7h-12.1L504.4,36.1L504.4,36.1z"/>
		<path class="st0" d="M587.7,58c15.4,0,27.2,10.8,27.2,26.3c0,15.9-12.4,26.4-27.7,26.4c-15.4,0-27.8-10.7-27.8-26.1
			C559.4,68.6,572.5,58,587.7,58z M601.9,84.3c0-9.3-4.7-17.1-14.7-17.1c-10.2,0-14.3,8.1-14.3,17.4c0,9,4.8,16.6,14.6,16.6
			C597.7,101.3,601.9,93.2,601.9,84.3z"/>
	</g>
</g>
<g>
	<g>
		<path class="st0" d="M241,293h-34.3c-14.1,0-25.5-11.4-25.5-25.5v-42.7h-128c-14,0-25.5-11.4-25.5-25.5V28.5
			C27.7,14.4,39.2,3,53.2,3H241c20.5,0,39.8,8,54.3,22.5c14.5,14.5,22.5,33.8,22.5,54.3v136.5c0,20.5-8,39.8-22.5,54.3
			S261.5,293,241,293z M198.2,216.3v51.2c0,4.7,3.8,8.5,8.5,8.5H241c33,0,59.8-26.8,59.8-59.8v-88.4c-1.7,2.1-3.6,4.2-5.5,6.1
			c-14.5,14.5-33.8,22.5-54.3,22.5h-34.2c-4.7,0-8.5,3.8-8.5,8.5V216.3L198.2,216.3z M53.2,20c-4.7,0-8.5,3.8-8.5,8.5v170.8
			c0,4.7,3.8,8.5,8.5,8.5h128V165c0-14.1,11.4-25.5,25.5-25.5h34.2c33,0,59.8-26.8,59.8-59.8S273.9,20,240.9,20L53.2,20L53.2,20z"/>
	</g>
	<g>
		<path class="st0" d="M241,116.6c-20.3,0-36.8-16.5-36.8-36.8s16.5-36.8,36.8-36.8s36.8,16.5,36.8,36.8S261.3,116.6,241,116.6z
			 M241,59.9c-10.9,0-19.8,8.9-19.8,19.8S230,99.6,241,99.6c10.9,0,19.8-8.9,19.8-19.8S251.9,59.9,241,59.9z"/>
	</g>
	<g>
		<path class="st0" d="M138.1,71H87.1c-4.7,0-8.5-3.8-8.5-8.5s3.8-8.5,8.5-8.5h50.9c4.7,0,8.5,3.8,8.5,8.5S142.8,71,138.1,71z"/>
	</g>
	<g>
		<path class="st0" d="M121.1,104.9H87.1c-4.7,0-8.5-3.8-8.5-8.5s3.8-8.5,8.5-8.5h34c4.7,0,8.5,3.8,8.5,8.5S125.8,104.9,121.1,104.9
			z"/>
	</g>
</g>
</svg>
