<?xml version="1.0" encoding="utf-8"?>
<!-- Generator: Adobe Illustrator 27.5.0, SVG Export Plug-In . SVG Version: 6.00 Build 0)  -->
<svg version="1.1" id="Layer_1" xmlns="http://www.w3.org/2000/svg" xmlns:xlink="http://www.w3.org/1999/xlink" x="0px" y="0px"
	 viewBox="0 0 1024 1024" style="enable-background:new 0 0 1024 1024;" xml:space="preserve">
<style type="text/css">
	.st0{fill:none;}
	.st1{fill:#226DB4;}
	.st2{fill:#E42527;}
	.st3{fill:#F9B21D;}
	.st4{fill:#089949;}
</style>
<g>
	<path class="st0" d="M770.1,537.4l-157.7,90.9v182.2c0,30.4-15.4,58.6-40.6,75.2l127.8,73.8c9.3,5.3,20.7,5.3,30,0l213-123
		c9.3-5.4,15-15.3,15-26V564.6c0-10.7-5.7-20.6-15-26l-127.7-73.7C813.1,494.9,796.3,522.2,770.1,537.4z"/>
	<circle class="st0" cx="512" cy="270.2" r="34"/>
	<path class="st0" d="M354.4,363.6l157.5,91.1l157.7-91c26.4-15.2,58.5-15.9,85.5-2.4V213.5c0-10.7-5.7-20.6-15-26l-213-123
		c-9.3-5.3-20.7-5.3-30,0l-213,123c-9.3,5.4-15,15.3-15,26v147.6C296.1,347.7,328,348.5,354.4,363.6z M512,176.2
		c51.9,0,94,42.1,94,94c-0.1,51.9-42.1,94-94,94c-51.9,0-94-42.1-94-94C418,218.3,460.1,176.2,512,176.2z"/>
	<path class="st0" d="M411.6,810.6V628.2l-157.5-90.9c-26.2-15.2-43-42.4-44.8-72.4L81.4,538.6c-9.3,5.4-15,15.3-15,26v245.9
		c0,10.7,5.7,20.6,15,26l213,123c9.3,5.3,20.7,5.3,30,0l127.7-73.8C427,869.1,411.7,840.9,411.6,810.6z"/>
	<path class="st0" d="M729.6,415.7c-9.3-5.3-20.7-5.3-30,0l-171.3,98.9c-4.8,3.1-10.4,4.8-16.3,4.7c-0.6,0-1.2,0-1.8-0.1
		c-0.1,0-0.3,0-0.4,0c-0.5,0-1-0.1-1.5-0.2c-0.1,0-0.2,0-0.3,0c-3.9-0.5-7.5-1.8-10.8-3.6c-0.1,0-0.1-0.1-0.2-0.1l-172.6-99.7
		c-9.3-5.3-20.7-5.3-30,0l-25.3,14.6v29.1c0,10.7,5.7,20.6,15,26l169.7,98.1c9,4,15.7,12.3,17.4,22.3c0,0.1,0.1,0.3,0.1,0.4
		c0,0.1,0,0.2,0,0.2c0.3,2,0.4,3.9,0.3,5.9v198.2c0,10.7,5.7,20.6,15,26l25.4,14.7l25.4-14.7c9.3-5.4,15-15.3,15-26V610.8
		c0-12.3,7.3-22.8,17.8-27.4l169.9-98.1c9.3-5.4,15-15.3,15-26v-28.9L729.6,415.7z"/>
	<path class="st1" d="M512,364.2c51.9,0,93.9-42.1,94-94c0-51.9-42.1-94-94-94c-51.9,0-94,42.1-94,94
		C418,322.1,460.1,364.2,512,364.2z M512,236.2c18.8,0,34,15.2,34,34s-15.2,34-34,34s-34-15.2-34-34
		C478,251.4,493.2,236.2,512,236.2z"/>
	<path class="st2" d="M496.7,911.7l-40.1-23.2c-1.5-0.9-3-1.8-4.5-2.8l-127.7,73.8c-9.3,5.3-20.7,5.3-30,0l-213-123
		c-9.3-5.4-15-15.3-15-26V564.6c0-10.7,5.7-20.6,15-26l127.9-73.7c-0.1-1.8-0.2-3.7-0.2-5.6v-45.1c0-0.9,0-1.8,0-2.6v-15.9
		L51.4,486.6c-27.8,16.2-45,45.9-45,78v246c0,32.1,17.2,61.8,45,77.9l213,123c13.7,7.9,29.2,12,45,12s31.3-4.1,45-12.1L512,920.5
		l-14.2-8.2C497.4,912.1,497.1,911.9,496.7,911.7z"/>
	<path class="st3" d="M972.6,486.6l-157.5-90.9v16.1c0,0.9,0,1.8,0,2.6v45c0,1.8-0.1,3.7-0.2,5.5l127.7,73.7c9.3,5.4,15,15.3,15,26
		v245.9c0,10.7-5.7,20.6-15,26l-213,123c-9.3,5.3-20.7,5.3-30,0l-127.8-73.8c-1.4,0.9-2.9,1.9-4.4,2.7L527,911.8
		c-4.6,2.6-9.7,4-15,4c-4.1,0-8-0.8-11.6-2.3c-0.9-0.4-1.7-0.8-2.6-1.2l14.2,8.2l157.6,91c13.7,7.9,29.2,12,45,12
		c15.8,0,31.3-4.2,45-12l213-123c27.8-16.1,45-45.8,45-77.9v-246C1017.6,532.4,1000.4,502.7,972.6,486.6z"/>
	<path class="st4" d="M224.1,386.9l40.3-23.3c1.5-0.9,3.1-1.7,4.7-2.5V213.5c0-10.7,5.7-20.6,15-26l213-123c9.3-5.3,20.7-5.3,30,0
		l213,123c9.3,5.4,15,15.3,15,26v147.8c1.5,0.8,3,1.6,4.5,2.4l38.5,22.2c7.7,3.7,13.5,10.5,15.9,18.8c0.1,0.2,0.1,0.5,0.2,0.7
		c0,0,0,0.1,0,0.1c0.5,2,0.8,4.1,0.9,6.2v-16.1V213.5c0-32.1-17.2-61.8-45-77.9l-213-123c-27.9-16-62.1-16-90,0l-213,123
		c-27.8,16.1-45,45.8-45,77.9v182.2v15.9C209.5,401.7,214.9,392.2,224.1,386.9z"/>
	<path class="st1" d="M814.1,405.5c-0.1-0.2-0.1-0.5-0.2-0.7c-2.4-8.3-8.2-15.1-15.9-18.8l-38.5-22.2c-1.5-0.8-3-1.6-4.5-2.4
		c-27-13.5-59.1-12.7-85.5,2.4l-157.7,91l-157.5-91.1c-26.4-15.1-58.3-15.9-85.3-2.5c-1.6,0.8-3.2,1.6-4.7,2.5l-40.3,23.3
		c-9.2,5.3-14.6,14.8-15,24.7c0,0.9,0,1.8,0,2.6v45.1c0,1.9,0.1,3.7,0.2,5.6c1.9,30,18.6,57.3,44.8,72.4l157.5,90.9v182.4
		c0.1,30.3,15.4,58.5,40.5,75.1c1.5,1,2.9,1.9,4.5,2.8l40.1,23.2c0.4,0.2,0.7,0.4,1.1,0.6c0.8,0.4,1.7,0.8,2.6,1.2
		c3.6,1.5,7.5,2.3,11.6,2.3c5.3,0,10.4-1.4,15-4l40.4-23.4c1.5-0.9,3-1.8,4.4-2.7c25.2-16.6,40.6-44.8,40.6-75.2V628.3l157.7-90.9
		c26.2-15.2,43-42.5,44.8-72.5c0.1-1.8,0.2-3.6,0.2-5.5v-45c0-0.9,0-1.8,0-2.6c-0.1-2.1-0.4-4.2-0.9-6.2
		C814.2,405.6,814.2,405.5,814.1,405.5z M740.1,485.3l-169.9,98.1c-10.5,4.7-17.8,15.2-17.8,27.4v199.7c0,10.7-5.7,20.6-15,26
		L512,851.2l-25.4-14.7c-9.3-5.4-15-15.3-15-26V612.3c0.1-2,0-4-0.3-5.9c0-0.1,0-0.2,0-0.2c0-0.1-0.1-0.3-0.1-0.4
		c-1.7-10-8.3-18.3-17.4-22.3l-169.7-98.1c-9.3-5.4-15-15.3-15-26v-29.1l25.3-14.6c9.3-5.3,20.7-5.3,30,0L497,515.3
		c0.1,0,0.1,0.1,0.2,0.1c3.3,1.9,6.9,3.1,10.8,3.6c0.1,0,0.2,0,0.3,0c0.5,0.1,1,0.1,1.5,0.2c0.1,0,0.3,0,0.4,0
		c0.6,0,1.2,0.1,1.8,0.1c5.9,0.1,11.5-1.7,16.3-4.7l171.3-98.9c9.3-5.3,20.7-5.3,30,0l25.5,14.7v28.9
		C755.1,470,749.4,479.9,740.1,485.3z"/>
</g>
</svg>
