<?xml version="1.0" encoding="utf-8"?>
<!-- Generator: Adobe Illustrator 27.3.1, SVG Export Plug-In . SVG Version: 6.00 Build 0)  -->
<svg version="1.1" id="Layer_1" xmlns="http://www.w3.org/2000/svg" xmlns:xlink="http://www.w3.org/1999/xlink" x="0px" y="0px"
	 viewBox="0 0 882 296" style="enable-background:new 0 0 882 296;" xml:space="preserve">
<style type="text/css">
	.st0{fill:#FFFFFF;}
</style>
<g>
	<g>
		<path class="st0" d="M359,140.8h40c24.2,0,43.1,9.7,43.1,36.2c0,29.1-23,35.4-47.6,35.4h-13.2v43.3H359V140.8z M398.8,196.4
			c13.7,0,21.5-5.7,21.5-19.5c0-14.4-8.5-19.1-21.5-19.1h-17.5v38.7L398.8,196.4L398.8,196.4z"/>
		<path class="st0" d="M528.6,237.4c-7,14.8-22.1,19.9-37.5,19.9c-26.5,0-43.2-17.7-43.2-43.9c0-24.6,17-43.6,42.3-43.6
			c27.2,0,40.4,15.9,40.4,48.3h-62.2c0,14.2,8.2,24.6,23.5,24.6c9.1,0,16.6-3.7,21-12.2L528.6,237.4z M510.6,204.9
			c-0.6-12.7-8.3-20.5-20.2-20.5c-12.6,0-20,8.9-21.7,20.5H510.6z"/>
		<path class="st0" d="M585.5,169.8c25.5,0,45.1,17.9,45.1,43.6c0,26.4-20.6,43.8-46,43.8c-25.6,0-46.1-17.7-46.1-43.4
			C538.5,187.5,560.2,169.8,585.5,169.8z M609,213.6c0-15.5-7.8-28.3-24.3-28.3c-17,0-23.7,13.5-23.7,28.9
			c0,14.9,7.9,27.6,24.2,27.6C602,241.8,609,228.3,609,213.6z"/>
		<path class="st0" d="M645.3,171.6h20.1v13.6c5.8-9.8,17.6-15.4,28.8-15.4c25.7,0,38.1,20.6,38.1,43.6c0,23.6-13.2,43.9-37.5,43.9
			c-11.8,0-23.7-4.7-29.3-14.8v42h-20.1L645.3,171.6L645.3,171.6z M711.5,212.9c0-14.2-7.1-27.4-23.5-27.4
			c-16.6,0-23.3,13.3-23.3,28.4c0,15.6,7.2,27.6,23.9,27.6C706.3,241.6,711.5,228.4,711.5,212.9z"/>
		<path class="st0" d="M749.3,137.6l20.1-8.7v126.8h-20.1V137.6z"/>
		<path class="st0" d="M867.1,237.4c-7,14.8-22.1,19.9-37.5,19.9c-26.5,0-43.2-17.7-43.2-43.9c0-24.6,17-43.6,42.3-43.6
			c27.2,0,40.4,15.9,40.4,48.3h-62.2c0,14.2,8.2,24.6,23.5,24.6c9.1,0,16.6-3.7,21-12.2L867.1,237.4z M849,204.9
			c-0.6-12.7-8.3-20.5-20.2-20.5c-12.6,0-20,8.9-21.7,20.5H849z"/>
	</g>
	<g>
		<path class="st0" d="M359.2,104.4l37-53.4H363V40.5h50.6v5.2l-36.1,53.4h35v10.5h-53.3V104.4z"/>
		<path class="st0" d="M445.2,58c15.4,0,27.2,10.8,27.2,26.3c0,15.9-12.4,26.4-27.7,26.4c-15.4,0-27.8-10.7-27.8-26.1
			C416.9,68.6,430,58,445.2,58z M459.4,84.3c0-9.3-4.7-17.1-14.7-17.1c-10.2,0-14.3,8.1-14.3,17.4c0,9,4.8,16.6,14.6,16.6
			C455.1,101.3,459.4,93.2,459.4,84.3z"/>
		<path class="st0" d="M481.2,36.1h12.1v31c3.3-6.3,9.9-9.1,16.9-9.1c12.1,0,18.2,8.5,18.2,20v31.7h-12.2V79.2
			c0-7.3-3.8-11.3-10.8-11.3c-7.8,0-12.1,4.8-12.1,12v29.7h-12.1V36.1z"/>
		<path class="st0" d="M564.6,58c15.4,0,27.2,10.8,27.2,26.3c0,15.9-12.4,26.4-27.7,26.4c-15.4,0-27.8-10.7-27.8-26.1
			C536.3,68.6,549.4,58,564.6,58z M578.8,84.3c0-9.3-4.7-17.1-14.7-17.1c-10.2,0-14.3,8.1-14.3,17.4c0,9,4.8,16.6,14.6,16.6
			C574.5,101.3,578.8,93.2,578.8,84.3z"/>
	</g>
</g>
<g>
	<path class="st0" d="M151.2,106.1c14.7,0,26.6-12,26.6-26.6c0-14.7-11.9-26.6-26.6-26.6s-26.6,11.9-26.6,26.6
		S136.5,106.1,151.2,106.1z M151.2,69.8c5.3,0,9.6,4.3,9.6,9.6c0,5.3-4.3,9.6-9.6,9.6s-9.6-4.3-9.6-9.6
		C141.6,74.1,145.9,69.8,151.2,69.8z"/>
	<path class="st0" d="M281.7,140.8l-44.5-25.7V63.4c0-9.1-4.9-17.5-12.8-22.1L164,6.4c-7.9-4.5-17.6-4.5-25.5,0L78.1,41.3
		c-7.9,4.6-12.8,13-12.8,22.1v51.7l-44.7,25.7c-7.9,4.6-12.8,13-12.8,22.1v69.7c0,9.1,4.9,17.5,12.8,22.1L81,289.6
		c3.9,2.2,8.3,3.4,12.8,3.4c4.4,0,8.8-1.2,12.7-3.5l44.6-25.7l44.7,25.8c3.9,2.2,8.3,3.4,12.8,3.4s8.9-1.2,12.7-3.4l60.4-34.9
		c7.9-4.6,12.8-13,12.8-22.1v-69.7C294.5,153.8,289.6,145.4,281.7,140.8z M167.6,168.4c-0.5,0.3-1.1,0.6-1.5,1c0,0,0,0,0,0
		c-0.2,0.2-0.4,0.3-0.6,0.5c-1.7,1.6-2.8,3.9-2.8,6.3c0,0.4,0,0.8,0.1,1.2v55.3c0,3.1-1.7,5.9-4.3,7.4l-7.3,4.2l-7.3-4.2
		c-2.7-1.6-4.3-4.4-4.3-7.4v-55.5c0.3-2.3-0.4-4.6-1.9-6.4c-0.1-0.1-0.1-0.2-0.2-0.3c-0.1-0.1-0.1-0.1-0.2-0.2
		c-0.7-0.8-1.6-1.4-2.5-1.9l-48.3-28c-2.7-1.6-4.3-4.4-4.3-7.4v-8.1l7.3-4.2c2.6-1.5,5.9-1.5,8.5,0l48.9,28.3
		c0.4,0.2,0.9,0.4,1.3,0.6c0.2,0.1,0.4,0.2,0.7,0.2c0.1,0,0.1,0,0.2,0.1c0.3,0.1,0.5,0.1,0.8,0.2c0.1,0,0.1,0,0.2,0
		c0.3,0,0.7,0.1,1,0.1c0.8,0,1.5-0.1,2.2-0.3c0.8-0.2,1.5-0.5,2.2-0.9l48.9-28.2c2.6-1.5,5.9-1.5,8.5,0l7.4,4.2v8.1
		c0,3.1-1.7,5.9-4.3,7.4L167.6,168.4z M86.6,56L147,21.1c2.6-1.5,5.9-1.5,8.5,0L215.9,56c2.7,1.6,4.3,4.4,4.3,7.4v42
		c-7.7-3.8-16.8-3.6-24.3,0.6l-44.8,25.8L106.5,106c-7.5-4.3-16.6-4.5-24.2-0.7V63.4C82.3,60.3,84,57.5,86.6,56z M98,274.9
		c-2.6,1.5-5.9,1.5-8.5,0L29.1,240c-2.7-1.6-4.3-4.4-4.3-7.4v-69.7c0-3.1,1.7-5.9,4.3-7.4l36.2-20.8c0.5,8.5,5.3,16.2,12.7,20.5
		l44.6,25.7v51.7c0.1,8.6,4.4,16.6,11.6,21.3L98,274.9z M277.5,232.6c0,3.1-1.7,5.9-4.3,7.4l-60.4,34.9c-2.6,1.5-5.9,1.5-8.5,0
		L168.1,254c7.2-4.7,11.7-12.7,11.7-21.4v-51.7l44.7-25.7c7.4-4.3,12.2-12,12.7-20.4l36,20.7c2.7,1.6,4.3,4.4,4.3,7.4V232.6z"/>
</g>
</svg>
