<?xml version="1.0" encoding="UTF-8"?>
<svg id="Layer_1" data-name="Layer 1" xmlns="http://www.w3.org/2000/svg" viewBox="0 0 1024 1024">
  <defs>
    <style>
      .cls-1 {
        fill: #226db4;
      }
    </style>
  </defs>
  <path class="cls-1" d="M612.67,1024H90c-49.63,0-90-40.37-90-90V90C0,40.37,40.37,0,90,0h784c82.71,0,150,67.29,150,150v402.82c0,82.71-67.29,150-150,150h-171.33v231.18c0,49.63-40.37,90-90,90ZM90,60c-16.54,0-30,13.46-30,30v844c0,16.54,13.46,30,30,30h522.67c16.54,0,30-13.46,30-30v-231.18h-231.33c-49.63,0-90-40.37-90-90v-201.55c0-24.06,9.38-46.68,26.41-63.68,17-16.97,39.58-26.32,63.59-26.32h.13l201.33.29c49.55.07,89.87,40.44,89.87,90v231.27h171.33c49.63,0,90-40.37,90-90V150c0-49.63-40.37-90-90-90H90ZM411.33,381.27c-8,0-15.53,3.11-21.2,8.77-5.68,5.67-8.8,13.21-8.8,21.23v201.55c0,16.54,13.46,30,30,30h231.33v-231.27c0-16.52-13.44-29.98-29.96-30h0l-201.33-.29h-.04Z"/>
</svg>