<?xml version="1.0" encoding="utf-8"?>
<!-- Generator: Adobe Illustrator 27.5.0, SVG Export Plug-In . SVG Version: 6.00 Build 0)  -->
<svg version="1.1" id="Layer_1" xmlns="http://www.w3.org/2000/svg" xmlns:xlink="http://www.w3.org/1999/xlink" x="0px" y="0px"
	 viewBox="0 0 1024 1024" style="enable-background:new 0 0 1024 1024;" xml:space="preserve">
<style type="text/css">
	.st0{fill:#F9B21D;}
	.st1{fill:#226DB4;}
	.st2{fill:#089949;}
	.st3{fill:#E42527;}
</style>
<g>
	<path class="st0" d="M374.7,876.8l21.2-21.2L225.3,685c11.7,11.7,11.7,30.7,0,42.4c-5.8,5.9-13.5,8.8-21.2,8.8s-15.4-2.9-21.2-8.8
		l191.8,191.8C363,907.5,363,888.5,374.7,876.8z"/>
	<path class="st0" d="M225.3,337c11.7,11.7,11.7,30.7,0,42.4l-21.2,21.2l170.8,170.3c-11.7-11.7-11.7-30.7,0-42.4l21.2-21.2
		L225.2,336.9c-11.7-11.7-30.7-11.6-42.4,0.1c-0.5,0.5-0.9,0.9-1.3,1.4l1.4-1.4C194.6,325.3,213.6,325.3,225.3,337z"/>
	<path class="st0" d="M374.7,702.8l21.2-21.2L225.7,511.4c-11.7-11.7-30.7-11.7-42.4,0c-11.7,11.7-11.7,30.7,0,42.4l191.4,191.4
		C363,733.5,363,714.5,374.7,702.8z"/>
	<path class="st1" d="M1015.1,278.8c-11.7-11.7-30.7-11.7-42.4,0L598.3,653.2c11.7-11.7,30.7-11.7,42.4,0s11.7,30.7,0,42.4
		l374.4-374.4C1026.8,309.5,1026.8,290.5,1015.1,278.8z"/>
	<path class="st1" d="M640.7,305.1c11.7,11.7,11.7,30.7,0,42.4l-1.3,1.3c0.5-0.4,1-0.9,1.4-1.3l179.1-179.1l44.6,44.6L598.3,479.2
		c11.7-11.7,30.7-11.7,42.4,0s11.7,30.7,0,42.4l287.4-287.4c11.7-11.7,11.7-30.7,0-42.4l-87-87c-5.6-5.6-13.2-8.8-21.2-8.8
		c-7.9,0-15.6,3.2-21.2,8.8l-199,199C611.5,293.4,629.5,293.9,640.7,305.1z"/>
	<path class="st2" d="M374.9,570.9c5.8,5.9,13.5,8.8,21.2,8.8s15.4-2.9,21.3-8.8l222-222.1l1.3-1.3c11.7-11.7,11.7-30.7,0-42.4
		c-11.2-11.2-29.2-11.7-41-1.3c-0.5,0.4-1,0.9-1.4,1.3L396.1,507.3l-21.2,21.2C363.2,540.2,363.2,559.2,374.9,570.9z"/>
	<path class="st2" d="M640.7,479.2c-11.7-11.7-30.7-11.7-42.4,0l0,0L395.9,681.6l-21.2,21.2c-11.7,11.7-11.7,30.7,0,42.4
		c5.8,5.9,13.5,8.8,21.2,8.8s15.4-3,21.2-8.8l223.6-223.6C652.4,509.9,652.4,490.9,640.7,479.2z"/>
	<path class="st2" d="M640.7,653.2c-11.7-11.7-30.7-11.7-42.4,0l0,0L395.9,855.6l-21.2,21.2c-11.7,11.7-11.7,30.7,0,42.4
		c5.8,5.9,13.5,8.8,21.2,8.8c4.8,0,9.6-1.1,14-3.4c2.6-1.4,5.1-3.2,7.2-5.4l223.6-223.6C652.4,683.9,652.4,664.9,640.7,653.2z"/>
	<path class="st3" d="M225.3,727.4c11.7-11.7,11.7-30.7,0-42.4L72.5,532.2l131.6-131.6l21.2-21.2c11.7-11.7,11.7-30.7,0-42.4
		c-11.7-11.7-30.7-11.7-42.4,0l-1.4,1.4L8.9,511c-5.6,5.6-8.8,13.3-8.8,21.2s3.2,15.6,8.8,21.2l174,174c5.8,5.9,13.5,8.8,21.2,8.8
		C211.8,736.2,219.5,733.3,225.3,727.4z"/>
</g>
</svg>
