<?xml version="1.0" encoding="utf-8"?>
<!-- Generator: Adobe Illustrator 27.3.1, SVG Export Plug-In . SVG Version: 6.00 Build 0)  -->
<svg version="1.1" id="Layer_1" xmlns="http://www.w3.org/2000/svg" xmlns:xlink="http://www.w3.org/1999/xlink" x="0px" y="0px"
	 viewBox="0 0 972.2 296" style="enable-background:new 0 0 972.2 296;" xml:space="preserve">
<style type="text/css">
	.st0{fill:#FFFFFF;}
</style>
<g id="w_text">
	<path class="st0" d="M357.6,140.8h39.9c24.2,0,43.1,9.7,43.1,36.2c0,29.1-23,35.4-47.6,35.4h-13.2v43.3h-22.3L357.6,140.8
		L357.6,140.8z M397.4,196.3c13.7,0,21.5-5.6,21.5-19.5s-8.5-19.1-21.5-19.1h-17.5v38.7L397.4,196.3L397.4,196.3z"/>
	<path class="st0" d="M455.5,171.6h20.1v15.8c5.6-11.5,14.8-17,27.6-17V189c-16.2,0-27.6,5.3-27.6,23.3v43.4h-20.1V171.6
		L455.5,171.6z"/>
	<path class="st0" d="M555,169.8c25.5,0,45.1,17.9,45.1,43.6s-20.6,43.8-46,43.8S508,239.5,508,213.9S529.7,169.8,555,169.8z
		 M578.5,213.6c0-15.5-7.8-28.3-24.3-28.3s-23.7,13.5-23.7,28.9s7.9,27.6,24.2,27.6S578.5,228.3,578.5,213.6L578.5,213.6z"/>
	<path class="st0" d="M602.5,270.6c7.5-0.4,11.8-3.8,11.8-11.7v-87.1h20.1v86.6c0,21-12.8,27.5-31.9,27.5V270.6z M624.2,136.1
		c6.5,0,11.7,4.8,11.7,11.4s-5.1,11.5-11.7,11.5s-11.9-4.9-11.9-11.5S617.7,136.1,624.2,136.1z"/>
	<path class="st0" d="M731.4,237.4c-7,14.8-22,19.9-37.5,19.9c-26.5,0-43.2-17.7-43.2-43.9c0-24.6,17-43.6,42.3-43.6
		c27.2,0,40.4,15.9,40.4,48.3h-62.2c0,14.2,8.2,24.6,23.5,24.6c9.1,0,16.6-3.7,21-12.2L731.4,237.4L731.4,237.4z M713.3,204.9
		c-0.6-12.7-8.3-20.5-20.2-20.5c-12.6,0-20,8.9-21.7,20.5H713.3z"/>
	<path class="st0" d="M824.3,231.9c-5.6,17.6-21.3,25.4-38.8,25.4c-26.7,0-42.6-17.9-42.6-43.9s17.8-43.6,43.1-43.6
		c17,0,31.7,7.1,37.9,23.6l-16.2,7.1c-3.4-9.4-11.5-14.8-21.7-14.8c-16.4,0-22.4,14.2-22.4,28.6S770,242,786.3,242
		c11.5,0,19.3-6.4,22.8-16.9L824.3,231.9L824.3,231.9z"/>
	<path class="st0" d="M881.9,255.1c-4.3,1.3-8.8,2-13.8,2c-16,0-25.5-8.3-25.5-25v-45.7h-11.3v-14.8h11.3v-17.3l20.1-8.7v26.1h18.5
		v14.8h-18.5v43.9c0,6.6,2.8,10.7,10.2,10.7c2.8,0,6-0.6,9-1.6L881.9,255.1L881.9,255.1z"/>
	<path class="st0" d="M906.5,230.6c3.1,8.2,11.7,12.2,20.8,12.2c6.5,0,14.6-2,14.6-10c0-8.4-9.1-10.4-19.5-12.6
		c-13.5-2.8-28.6-6.1-28.6-25c0-17.3,16.1-25.5,31.3-25.5c13.3,0,28.6,5,34.1,18.3l-14.9,6.4c-3.3-7.5-11.5-10.3-18.4-10.3
		s-13.1,2.7-13.1,9.5c0,7.7,8.2,9.3,18.4,11.3c13.7,2.7,30.1,5.8,30.1,25.4s-16.6,26.8-34.1,26.8c-14.8,0-30.8-5-36-20.1
		L906.5,230.6L906.5,230.6z"/>
	<path class="st0" d="M357.6,104.4l37-53.4h-33.2V40.5H412v5.2l-36.1,53.4h35v10.5h-53.3L357.6,104.4L357.6,104.4z"/>
	<path class="st0" d="M443.6,58c15.4,0,27.2,10.8,27.2,26.3s-12.4,26.4-27.7,26.4s-27.8-10.7-27.8-26.1S428.3,58,443.6,58z
		 M457.8,84.3c0-9.3-4.7-17.1-14.6-17.1s-14.3,8.1-14.3,17.4s4.8,16.6,14.6,16.6S457.8,93.2,457.8,84.3z"/>
	<path class="st0" d="M479,36.1h12.1v31c3.3-6.3,9.9-9.1,16.9-9.1c12.1,0,18.1,8.5,18.1,20v31.7H514V79.2c0-7.3-3.8-11.2-10.8-11.2
		c-7.8,0-12,4.8-12,12v29.7H479L479,36.1L479,36.1z"/>
	<path class="st0" d="M561.8,58c15.4,0,27.2,10.8,27.2,26.3s-12.4,26.4-27.7,26.4s-27.8-10.7-27.8-26.1S546.6,58,561.8,58z
		 M576,84.3c0-9.3-4.7-17.1-14.7-17.1S547,75.4,547,84.7s4.8,16.6,14.6,16.6S576,93.2,576,84.3L576,84.3z"/>
</g>
<path class="st0" d="M293,81.9c-3.3-3.3-8.7-3.3-12,0L174.9,188l-57.3,57.3L69.3,197L26,153.7l37.3-37.3l48.4,48.3
	c0.1,0.1,0.1,0.1,0.2,0.2c1.6,1.5,3.7,2.3,5.8,2.3v0c2.2,0,4.4-0.8,6-2.5c0,0,0.1-0.1,0.1-0.1l63.2-63.2c0,0,0.1-0.1,0.1-0.1
	l50.6-50.6l12.6,12.6L175,138.6c0,0,0,0,0,0L117.6,196l-48.2-48.2c-3.3-3.3-8.7-3.3-12,0s-3.3,8.7,0,12l54.2,54.2
	c1.7,1.7,3.8,2.5,6,2.5c0.5,0,1.1-0.1,1.6-0.2c0.9-0.2,1.8-0.5,2.6-1c0.6-0.4,1.2-0.8,1.8-1.4l63.3-63.3l0,0l81.4-81.4
	c3.3-3.3,3.3-8.7,0-12l-24.7-24.7c-3.2-3.2-8.8-3.2-12,0L175,89.3c0,0-0.1,0.1-0.1,0.1l-57.2,57.2L69.3,98.4c-3.3-3.3-8.7-3.3-12,0
	L8,147.7c-1.6,1.6-2.5,3.8-2.5,6s0.9,4.4,2.5,6L57.3,209l54.3,54.3c1.7,1.7,3.8,2.5,6,2.5c0.5,0,1.1-0.1,1.6-0.2
	c1.6-0.3,3.1-1.1,4.4-2.3L187,200c0,0,0,0,0,0l106-106C296.3,90.6,296.3,85.2,293,81.9z"/>
</svg>
