<?xml version="1.0" encoding="utf-8"?>
<!-- Generator: Adobe Illustrator 27.5.0, SVG Export Plug-In . SVG Version: 6.00 Build 0)  -->
<svg version="1.1" id="Layer_1" xmlns="http://www.w3.org/2000/svg" xmlns:xlink="http://www.w3.org/1999/xlink" x="0px" y="0px"
	 viewBox="0 0 1024 1024" style="enable-background:new 0 0 1024 1024;" xml:space="preserve">
<style type="text/css">
	.st0{fill:#E42527;}
</style>
<g>
	<g>
		<path class="st0" d="M512,1024c-7.7,0-15.4-2.9-21.2-8.8L367,891.4c-5.6-5.6-8.8-13.3-8.8-21.2s3.2-15.6,8.8-21.2l123.8-123.8
			c11.7-11.7,30.7-11.7,42.4,0L657,849c5.6,5.6,8.8,13.3,8.8,21.2s-3.2,15.6-8.8,21.2l-123.8,123.8
			C527.4,1021.1,519.7,1024,512,1024z M430.6,870.2l81.4,81.4l81.4-81.4L512,788.8L430.6,870.2z"/>
	</g>
	<g>
		<path class="st0" d="M755.9,780.6c-7.7,0-15.4-2.9-21.2-8.8L611.1,648.3c-5.6-5.6-8.8-13.3-8.8-21.2s3.2-15.6,8.8-21.2l38.4-38.3
			c36.7-36.7,56.9-85.4,56.9-137.3c0-51.8-20.2-100.6-56.9-137.3l-0.2-0.2c-75.7-75.7-198.8-75.7-274.5,0l-0.1,0.1
			c-30.1,30.1-49.1,68.1-55,110.1c-5.7,40.6,1.7,82.8,21,118.7c7.8,14.6,2.3,32.8-12.3,40.6c-14.6,7.8-32.8,2.3-40.6-12.3
			c-25.2-47.1-34.9-102.3-27.5-155.4c7.7-55,32.6-104.8,72-144.1l0.1-0.1c48-48,111.9-74.5,179.7-74.5c67.9,0,131.7,26.4,179.7,74.4
			l0.2,0.2c48,48,74.4,111.8,74.4,179.7S740,561.9,692,609.9L674.9,627l81.1,81.1l17.4-17.4c69.8-69.8,108.2-162.6,108.2-261.3
			S843.1,238,773.3,168.2S610.7,60,512,60S320.5,98.4,250.7,168.2S142.5,330.8,142.5,429.5S180.9,621,250.7,690.8l17.4,17.4
			l102.3-102.3c11.7-11.7,30.7-11.7,42.4,0c11.7,11.7,11.7,30.7,0,42.4L289.3,771.8c-11.7,11.7-30.7,11.7-42.4,0l-38.7-38.6
			c-41-41-72.7-88.8-94.4-142.1C93,539.6,82.5,485.3,82.5,429.5S93.1,319.4,114,267.9c21.6-53.3,53.4-101.1,94.4-142.1
			s88.8-72.7,142.1-94.3C401.8,10.6,456.2,0,512,0s110.2,10.6,161.6,31.5c53.3,21.6,101.1,53.4,142.1,94.3
			c41,41,72.7,88.8,94.4,142.1c20.9,51.5,31.5,105.8,31.5,161.6S931,539.6,910.1,591.1c-21.6,53.3-53.4,101.1-94.4,142.1L777,771.9
			C771.2,777.7,763.5,780.6,755.9,780.6z"/>
	</g>
</g>
</svg>
