<?xml version="1.0" encoding="utf-8"?>
<!-- Generator: Adobe Illustrator 27.4.0, SVG Export Plug-In . SVG Version: 6.00 Build 0)  -->
<svg version="1.1" id="Layer_1" xmlns="http://www.w3.org/2000/svg" xmlns:xlink="http://www.w3.org/1999/xlink" x="0px" y="0px"
	 viewBox="0 0 1024 1024" style="enable-background:new 0 0 1024 1024;" xml:space="preserve">
<style type="text/css">
	.st0{fill:#E42527;}
</style>
<g>
	<path class="st0" d="M1015.4,971.6L894.8,851.2c37.2-41.8,67-89,88.8-140.7c26.6-63,40.1-129.9,40.1-198.8
		c0-69-13.5-136-40.2-199.1C957.7,251.7,920.9,197,873.9,150S772.2,66.2,711.3,40.4c-63-26.7-130-40.2-199.1-40.2
		s-136,13.5-199.1,40.2C252.2,66.1,197.5,103,150.6,150S66.7,251.6,40.9,312.6c-26.6,63-40.2,130-40.2,199.1s13.5,136,40.2,199.1
		c25.8,60.9,62.6,115.6,109.6,162.6S252.2,957.2,313.1,983c63.1,26.7,130.1,40.2,199.1,40.2l482-0.3c12.1,0,23.1-7.3,27.7-18.5
		C1026.6,993.1,1024,980.2,1015.4,971.6z M512.2,963.2c-61,0-120.1-11.9-175.7-35.5c-53.7-22.7-102-55.3-143.5-96.8
		s-74-89.8-96.8-143.5c-23.5-55.6-35.5-114.8-35.5-175.7S72.6,391.6,96.2,336c22.7-53.8,55.3-102.1,96.8-143.5
		c41.5-41.5,89.8-74,143.5-96.8c55.6-23.5,114.8-35.5,175.7-35.5S632.3,72.1,688,95.7c53.8,22.7,102,55.3,143.5,96.8
		s74,89.8,96.8,143.5c23.5,55.6,35.5,114.8,35.5,175.7s-11.9,119.9-35.4,175.5c-18.8,44.5-44.3,85.3-76.1,121.6L584.8,541.7h39.8
		c16.6,0,30-13.4,30-30s-13.4-30-30-30H512.7c-0.1,0-0.2,0-0.2,0c-7.8-0.1-15.5,2.9-21.5,8.8c-7.2,7.2-10,17.2-8.3,26.5v106.6
		c0,16.6,13.4,30,30,30c16.6,0,30-13.4,30-30v-39.1l379,378.4L512.2,963.2z"/>
	<path class="st0" d="M512.5,713.4c-111.2,0-201.7-90.5-201.7-201.7S401.3,310,512.5,310s201.7,90.5,201.7,201.7
		c0,17.5-2.2,34.9-6.7,51.6c-4.2,16,5.3,32.4,21.4,36.7c16,4.2,32.4-5.3,36.7-21.4c5.7-21.7,8.6-44.2,8.6-66.9
		c0-69.9-27.2-135.6-76.7-185.1c-49.4-49.4-115.2-76.7-185.1-76.7s-135.6,27.2-185.1,76.7s-76.7,115.2-76.7,185.1
		s27.2,135.6,76.7,185.1c49.4,49.4,115.2,76.7,185.1,76.7c23.6,0,46.9-3.1,69.5-9.3c16-4.4,25.4-20.9,21-36.9s-20.9-25.4-36.9-21
		C548.7,711,530.7,713.4,512.5,713.4z"/>
</g>
</svg>
