<?xml version="1.0" encoding="utf-8"?>
<!-- Generator: Adobe Illustrator 27.5.0, SVG Export Plug-In . SVG Version: 6.00 Build 0)  -->
<svg version="1.1" id="Layer_1" xmlns="http://www.w3.org/2000/svg" xmlns:xlink="http://www.w3.org/1999/xlink" x="0px" y="0px"
	 viewBox="0 0 1024 1024" style="enable-background:new 0 0 1024 1024;" xml:space="preserve">
<style type="text/css">
	.st0{fill:#089949;}
</style>
<g>
	<path class="st0" d="M584.7,810.4H359.9V360.2h451.3v223.7c0,16.5,13.4,29.9,29.9,29.9s29.9-13.4,29.9-29.9V91.2
		c0-49.5-40.3-89.8-89.8-89.8H90.8C41.3,1.4,1,41.7,1,91.2v689.3c0,49.5,40.3,89.8,89.8,89.8h493.8c16.6,0,30-13.5,30-30
		S601.2,810.4,584.7,810.4z M60.9,780.5V91.2c0-16.5,13.4-29.9,29.9-29.9h690.5c16.5,0,29.9,13.4,29.9,29.9v209.2H359.9V150.9
		c0-16.5-13.4-29.9-29.9-29.9s-29.9,13.4-29.9,29.9v149.5H151.6c-16.5,0-29.9,13.4-29.9,29.9s13.4,29.9,29.9,29.9h148.5v450.2H90.8
		C74.3,810.4,60.9,797,60.9,780.5z"/>
	<path class="st0" d="M1021.9,740.1c-2.8-10.4-10.9-18.4-21.2-21.2l-334.6-89.6c-10.3-2.8-21.3,0.1-28.9,7.7
		c-7.5,7.5-10.5,18.6-7.7,28.9l89.6,334.5c2.8,10.4,10.9,18.4,21.2,21.2c2.5,0.7,5.1,1,7.7,1c7.8,0,15.5-3.1,21.3-8.7L1014.2,769
		C1021.7,761.5,1024.7,750.4,1021.9,740.1z M763.5,934.9l-62.8-234.4l234.4,62.8L763.5,934.9z"/>
</g>
</svg>
