<?xml version="1.0" encoding="utf-8"?>
<!-- Generator: Adobe Illustrator 27.5.0, SVG Export Plug-In . SVG Version: 6.00 Build 0)  -->
<svg version="1.1" id="Layer_1" xmlns="http://www.w3.org/2000/svg" xmlns:xlink="http://www.w3.org/1999/xlink" x="0px" y="0px"
	 viewBox="0 0 840 296" style="enable-background:new 0 0 840 296;" xml:space="preserve">
<style type="text/css">
	.st0{fill:#FFFFFF;}
</style>
<g>
	<g>
		<path class="st0" d="M390.9,221.1c4.7,13.1,16.3,19.9,30.3,19.9c10.6,0,21.7-5.6,21.7-17.6c0-12.7-12.6-15-26.5-17.5
			c-17.8-3.2-37.4-7-37.4-33.4c0-22.1,19.8-33.3,39.6-33.3c18.4,0,34.6,7.5,41.8,25.4l-16.3,7.4c-4.9-10.1-14-16.2-25.7-16.2
			c-9.3,0-18.7,3.9-18.7,15.1c0,12.4,11.6,14.6,25.6,17.1c18,3.2,38.8,6.8,38.8,33.7c0,23.3-21.7,35.6-42.9,35.6
			c-20.6,0-41.4-7.4-47.6-28.7L390.9,221.1z"/>
		<path class="st0" d="M481.1,133.6h20.1V185c5.4-10.4,16.5-15.1,28.1-15.1c20.1,0,30.1,14.1,30.1,33.3v52.6h-20.2v-50.6
			c0-12.1-6.3-18.7-18-18.7c-12.9,0-20,7.9-20,19.9v49.4h-20.1L481.1,133.6L481.1,133.6z"/>
		<path class="st0" d="M655.8,237.4c-7,14.8-22,19.8-37.5,19.8c-26.5,0-43.2-17.7-43.2-43.9c0-24.6,17-43.6,42.3-43.6
			c27.2,0,40.4,15.9,40.4,48.3h-62.2c0,14.2,8.2,24.6,23.5,24.6c9.1,0,16.6-3.7,21-12.2L655.8,237.4z M637.7,204.9
			c-0.6-12.7-8.3-20.5-20.2-20.5c-12.6,0-20,8.9-21.7,20.5H637.7z"/>
		<path class="st0" d="M749,237.4c-7,14.8-22,19.8-37.5,19.8c-26.5,0-43.2-17.7-43.2-43.9c0-24.6,17-43.6,42.3-43.6
			c27.2,0,40.4,15.9,40.4,48.3h-62.2c0,14.2,8.2,24.6,23.5,24.6c9.1,0,16.6-3.7,21-12.2L749,237.4z M731,204.9
			c-0.6-12.7-8.3-20.5-20.2-20.5c-12.6,0-20,8.9-21.7,20.5H731z"/>
		<path class="st0" d="M809.7,255.1c-4.3,1.3-8.8,2-13.8,2c-16,0-25.5-8.3-25.5-25v-45.7h-11.3v-14.8h11.3v-17.3l20.1-8.7v26.1H809
			v14.8h-18.5v43.9c0,6.6,2.8,10.7,10.2,10.7c2.8,0,6-0.6,9-1.6V255.1L809.7,255.1z"/>
	</g>
	<g>
		<path class="st0" d="M382.2,104.4l37-53.4H386V40.5h50.6v5.2l-36.1,53.4h35v10.5h-53.3V104.4L382.2,104.4z"/>
		<path class="st0" d="M468.3,58c15.4,0,27.2,10.8,27.2,26.3c0,15.9-12.4,26.4-27.7,26.4c-15.4,0-27.8-10.7-27.8-26.1
			C440,68.6,453,58,468.3,58z M482.5,84.3c0-9.3-4.7-17.1-14.6-17.1c-10.2,0-14.3,8.1-14.3,17.4c0,9,4.8,16.6,14.6,16.6
			C478.2,101.3,482.5,93.2,482.5,84.3z"/>
		<path class="st0" d="M504.3,36.1h12.1v31c3.3-6.3,9.9-9.1,16.9-9.1c12.1,0,18.2,8.5,18.2,20v31.7h-12.2V79.2
			c0-7.3-3.8-11.2-10.8-11.2c-7.8,0-12,4.8-12,12v29.7h-12.1L504.3,36.1L504.3,36.1z"/>
		<path class="st0" d="M587.6,58c15.4,0,27.2,10.8,27.2,26.3c0,15.9-12.4,26.4-27.7,26.4c-15.4,0-27.8-10.7-27.8-26.1
			C559.3,68.6,572.4,58,587.6,58z M601.8,84.3c0-9.3-4.7-17.1-14.7-17.1c-10.2,0-14.3,8.1-14.3,17.4c0,9,4.8,16.6,14.6,16.6
			C597.6,101.3,601.8,93.2,601.8,84.3z"/>
	</g>
</g>
<g>
	<path class="st0" d="M193.3,232.7h-63.8V104.9h128.1v63.5c0,4.7,3.8,8.5,8.5,8.5s8.5-3.8,8.5-8.5v-72l0,0l0,0V28.6
		c0-14-11.4-25.5-25.5-25.5h-196c-14,0-25.5,11.4-25.5,25.5v195.6c0,14,11.4,25.5,25.5,25.5h140.1c4.7,0,8.5-3.8,8.5-8.5
		S197.9,232.7,193.3,232.7z M44.6,224.2V28.6c0-4.7,3.8-8.5,8.5-8.5h196c4.7,0,8.5,3.8,8.5,8.5V88H129.5V45.5c0-4.7-3.8-8.5-8.5-8.5
		s-8.5,3.8-8.5,8.5V88H70.4c-4.7,0-8.5,3.8-8.5,8.5s3.8,8.5,8.5,8.5h42.1v127.8H53.1C48.4,232.7,44.6,228.9,44.6,224.2z"/>
	<path class="st0" d="M317.3,212.7c-0.8-3-3.1-5.2-6-6l-95-25.4c-2.9-0.8-6,0-8.2,2.2c-2.1,2.1-3,5.3-2.2,8.2l25.4,94.9
		c0.8,3,3.1,5.2,6,6c0.7,0.2,1.4,0.3,2.2,0.3c2.2,0,4.4-0.9,6-2.5l69.5-69.5C317.3,218.8,318.1,215.7,317.3,212.7z M244,268
		l-17.8-66.5l66.5,17.8L244,268z"/>
</g>
</svg>
