<?xml version="1.0" encoding="utf-8"?>
<!-- Generator: Adobe Illustrator 27.5.0, SVG Export Plug-In . SVG Version: 6.00 Build 0)  -->
<svg version="1.1" id="Layer_1" xmlns="http://www.w3.org/2000/svg" xmlns:xlink="http://www.w3.org/1999/xlink" x="0px" y="0px"
	 viewBox="0 0 1024 1024" style="enable-background:new 0 0 1024 1024;" xml:space="preserve">
<style type="text/css">
	.st0{fill:#226DB4;}
	.st1{fill:#F9B21D;enable-background:new    ;}
</style>
<path class="st0" d="M272,241.2h419.9c16.6,0,30-13.4,30-30s-13.4-30-30-30H272c-16.6,0-30,13.4-30,30S255.4,241.2,272,241.2z"/>
<path class="st0" d="M272,391.2h299.2c16.6,0,30-13.4,30-30s-13.4-30-30-30H272c-16.6,0-30,13.4-30,30S255.4,391.2,272,391.2z"/>
<path class="st0" d="M932,757.8c-16.6,0-30,13.4-30,30V893c0,38.6-31.4,70-70,70H192c-38.6,0-70-31.4-70-70V131
	c0-38.6,31.4-70,70-70h640c38.6,0,70,31.4,70,70v496.9c3.9-4.6,6.1-7.5,6.2-7.6c10.1-13.2,28.9-15.7,42-5.6
	c7.7,5.9,11.7,14.7,11.8,23.7V131C962,59.3,903.7,1,832,1H192C120.3,1,62,59.3,62,131v762c0,71.7,58.3,130,130,130h640
	c71.7,0,130-58.3,130-130V787.8C962,771.2,948.6,757.8,932,757.8z"/>
<path class="st1" d="M950.2,614.7c-13.2-10.1-32-7.5-42,5.6c-0.1,0.1-2.3,2.9-6.2,7.6c-9.6,11.4-29.3,33.6-52.8,52.5
	c-14.9,12-51.8,38.7-72.2,26.7c-23.1-13.7-42.4-21.7-61.5-16.5c-19.4,5.3-28,21-35,33.6c-5.5,10-11.7,21.3-24.4,33.2
	c-0.7,0.6-1.3,1.2-1.8,1.6c-6-6.8-14.2-25-18-40.8c-2.8-11.9-12.6-20.9-24.7-22.8c-12.1-1.8-24.1,3.9-30.3,14.5
	c-20.5,35-48.5,78.3-83.9,103.1c-3.6,2.5-10.3,6.3-15.2,3.3c-3.1-1.9-5.8-6.3-5-12.2c4.9-36.7,36.8-91.1,89.8-153.1
	c42.5-49.7,84-87.5,84.4-87.9c10.6-9.6,13-25.4,5.5-37.7c-7.4-12.3-22.5-17.6-35.9-12.7c-32.1,11.7-50.3,20.5-73.3,31.8
	c-19.4,9.5-41.3,20.2-78.7,36c-60.8,25.9-113.5,29.8-133.6,28.2c-1.2-0.2-2.5-0.2-3.8-0.2c-16.6,0-30,13.4-30,30
	c0,15.6,12,28.5,27.2,29.9v0c2.9,0.3,71.6,6.6,163.7-32.6c5-2.1,9.7-4.1,14.2-6.1c-53,65.2-82.9,121.2-89,166.6
	c-3.8,28.8,9.2,56.8,33.3,71.4c10.9,6.6,22.8,9.9,35.1,9.9c15.4,0,31.2-5.2,45.7-15.3c27.8-19.5,51-46.2,70.2-73.2
	c10.4,15.3,22.7,25.2,36.7,29.3c26.7,8,48.2-7.4,58.6-17.3c19.5-18.4,29.2-36.1,35.7-47.9c0.2-0.4,0.5-0.9,0.7-1.3
	c3,1.5,7.1,3.6,12.6,6.9c15.5,9.2,41.6,17.6,77.6,5.3c19.7-6.7,40.8-19.1,62.8-36.9c39.2-31.6,68.7-70,69-70.4
	c4.2-5.5,6.2-11.9,6.1-18.4C962,629.4,957.9,620.6,950.2,614.7z"/>
</svg>
