<?xml version="1.0" encoding="UTF-8"?>
<svg id="Layer_3" data-name="Layer 3" xmlns="http://www.w3.org/2000/svg" viewBox="0 0 1396.9 234.89">
  <defs>
    <style>
      .cls-1 {
        fill: #231f20;
      }

      .cls-2 {
        fill: #ce1432;
      }

      .cls-3 {
        fill: #009d54;
      }
    </style>
  </defs>
  <g id="Layer_1" data-name="Layer 1">
    <g>
      <g>
        <path class="cls-1" d="M429.23,151.8c1.81,4.96,4.21,9.29,7.2,12.98,2.99,3.7,6.45,6.81,10.39,9.33,3.93,2.52,8.26,4.41,12.98,5.67,4.72,1.26,9.72,1.89,14.99,1.89,4.01,0,7.97-.53,11.86-1.59,3.89-1.06,7.38-2.69,10.45-4.9,3.07-2.12,5.57-4.86,7.5-8.2,1.93-3.34,2.89-7.26,2.89-11.74,0-4.8-1.1-8.69-3.3-11.69-2.2-2.99-5.12-5.39-8.74-7.2-3.7-1.89-7.95-3.36-12.75-4.43-4.8-1.06-9.84-2.07-15.11-3.01-4.49-.79-8.97-1.67-13.46-2.66-4.49-.98-8.81-2.22-12.98-3.72-4.17-1.49-8.07-3.38-11.69-5.67-3.62-2.28-6.77-5.15-9.44-8.62-2.68-3.46-4.78-7.61-6.31-12.45s-2.3-10.56-2.3-17.17c0-8.26,1.71-15.52,5.13-21.78s7.93-11.47,13.51-15.64c5.59-4.25,11.94-7.42,19.06-9.5,7.12-2.08,14.42-3.13,21.9-3.13,6.92,0,13.57.73,19.95,2.18,6.37,1.46,12.31,3.72,17.82,6.79,5.43,3.15,10.29,7.12,14.58,11.92,4.29,4.8,7.77,10.58,10.45,17.35l-24.55,11.1c-3.7-7.63-8.85-13.61-15.46-17.94-6.61-4.33-14.32-6.49-23.13-6.49-3.54,0-6.98.4-10.33,1.18-3.35.79-6.36,2.09-9.03,3.9-2.6,1.81-4.7,4.15-6.32,7.02-1.61,2.87-2.42,6.43-2.42,10.68,0,4.64,1.02,8.42,3.07,11.33,2.05,2.91,4.8,5.27,8.26,7.08,3.54,1.81,7.63,3.25,12.28,4.31,4.64,1.06,9.6,2.07,14.87,3.01,4.49.79,9.05,1.65,13.69,2.6,4.64.94,9.13,2.17,13.46,3.66,4.33,1.5,8.38,3.4,12.16,5.72,3.78,2.32,7.08,5.21,9.92,8.68,2.83,3.46,5.06,7.63,6.67,12.51,1.61,4.88,2.42,10.7,2.42,17.47,0,5.82-.87,11.19-2.6,16.11-1.73,4.92-4.09,9.38-7.08,13.4-2.99,3.94-6.53,7.42-10.62,10.45-4.09,3.03-8.54,5.53-13.34,7.5-4.8,2.05-9.82,3.58-15.05,4.6-5.23,1.02-10.53,1.53-15.88,1.53-7.79,0-15.44-.75-22.96-2.24-7.52-1.49-14.5-3.93-20.95-7.32-6.45-3.38-12.1-7.83-16.94-13.34-4.84-5.51-8.44-12.28-10.8-20.3l26.09-11.21Z"/>
        <path class="cls-1" d="M568.28,53.36c-1.65-1.49-2.95-3.31-3.9-5.43-.94-2.12-1.42-4.41-1.42-6.85s.47-4.82,1.42-6.91c.94-2.08,2.24-3.88,3.9-5.37,1.65-1.57,3.56-2.77,5.72-3.6,2.16-.83,4.46-1.24,6.91-1.24s4.72.43,6.85,1.3c2.12.87,4.01,2.05,5.67,3.54,1.57,1.57,2.81,3.4,3.72,5.49.9,2.09,1.36,4.39,1.36,6.91s-.45,4.72-1.36,6.85c-.91,2.12-2.11,3.94-3.6,5.43-1.58,1.5-3.42,2.68-5.55,3.54-2.12.87-4.45,1.3-6.96,1.3s-4.76-.43-6.96-1.3c-2.2-.86-4.13-2.08-5.78-3.66ZM565.68,203.86v-126.18h30.22v126.18h-30.22Z"/>
        <path class="cls-1" d="M694.11,202.91c-3.31.94-6.65,1.69-10.03,2.24-3.38.55-6.96.83-10.74.83-12.04,0-21.44-3.13-28.21-9.38-6.77-6.26-10.15-15.68-10.15-28.27v-68.7h-17v-22.19h17v-26.09l30.22-13.1v39.19h27.86v22.19h-27.86v65.98c0,4.96,1.16,8.87,3.48,11.74,2.32,2.87,6.27,4.31,11.86,4.31,2.12,0,4.35-.22,6.67-.65,2.32-.43,4.62-1.04,6.91-1.83v23.73Z"/>
        <path class="cls-1" d="M739.2,147.32c0,5.35.77,10.29,2.3,14.81,1.53,4.53,3.79,8.4,6.79,11.63,3.07,3.31,6.79,5.88,11.15,7.73,4.37,1.85,9.42,2.77,15.17,2.77,6.92,0,13.1-1.46,18.53-4.37,5.43-2.91,9.8-7.59,13.1-14.05l23.61,10.51c-2.6,5.59-5.92,10.29-9.97,14.11-4.05,3.82-8.52,6.87-13.4,9.15-4.96,2.36-10.25,4.05-15.88,5.08-5.63,1.02-11.35,1.53-17.17,1.53-9.99,0-19-1.59-27.03-4.78s-14.83-7.69-20.42-13.52c-5.67-5.74-10.01-12.67-13.04-20.77-3.03-8.1-4.54-17.07-4.54-26.91,0-9.28,1.53-17.92,4.6-25.91,3.07-7.99,7.4-14.89,12.98-20.72,5.59-5.9,12.28-10.52,20.07-13.87,7.79-3.34,16.45-5.02,25.97-5.02,20.46,0,35.71,6,45.74,18,10.03,12,15.05,30.2,15.05,54.59h-93.6ZM802.7,127.49c-.24-4.8-1.12-9.11-2.66-12.92-1.53-3.82-3.6-7.02-6.2-9.62-2.6-2.67-5.71-4.72-9.33-6.14-3.62-1.42-7.67-2.12-12.16-2.12-4.72,0-8.97.79-12.75,2.36-3.78,1.58-7.04,3.74-9.8,6.49-2.68,2.76-4.88,6-6.61,9.74-1.73,3.74-2.91,7.81-3.54,12.22h63.03Z"/>
        <path class="cls-1" d="M848.03,203.86v-13.34l59.25-58.43c3.46-3.38,6.92-7.08,10.39-11.1,3.46-4.01,6.61-8.3,9.44-12.87,2.75-4.49,5.02-9.19,6.79-14.11,1.77-4.92,2.66-9.97,2.66-15.17,0-7.63-2.03-13.65-6.08-18.06-4.05-4.41-10.05-6.61-18-6.61-5.04,0-9.37.91-12.98,2.71-3.62,1.81-6.73,4.21-9.33,7.2-2.52,2.99-4.58,6.47-6.2,10.45-1.61,3.97-2.97,8.09-4.07,12.33l-25.73-11.1c3.62-15.34,10.41-27.05,20.36-35.12,9.95-8.06,22.96-12.1,39.01-12.1,7.79,0,15.11,1,21.96,3.01,6.85,2.01,12.83,5.1,17.94,9.27,5.04,4.09,9.03,9.29,11.98,15.58,2.95,6.3,4.43,13.69,4.43,22.19,0,5.9-1.04,11.82-3.13,17.76-2.09,5.94-4.9,11.79-8.44,17.53-3.54,5.75-7.65,11.31-12.33,16.7-4.68,5.39-9.62,10.49-14.81,15.29l-34.82,31.87h74.01v26.09h-122.29Z"/>
        <path class="cls-1" d="M985.3,167.38v-11.69l70.59-124.65h39.54v112.61h19.24v23.73h-19.24v36.47h-30.57v-36.47h-79.56ZM1016.7,143.66h48.63V56.9l-48.63,86.76Z"/>
        <path class="cls-1" d="M1139.7,203.86l44.26-64.8-41.19-61.62h34.94l26.32,40.6,25.97-40.6h31.52l-40.96,59.49,45.33,66.93h-35.17l-29.27-45.44-30.22,45.44h-31.52Z"/>
        <path class="cls-1" d="M1296.69,203.86l61.5-146.48h-81.8v-26.32h120.52v13.22l-66.22,159.59h-33.99Z"/>
      </g>
      <g>
        <path class="cls-3" d="M250.04,101.87v-.02c.4-3.43.6-6.92.6-10.45,0-2.6-.11-5.18-.33-7.72l-26.84,4.3c.06,1.14.09,2.27.09,3.42,0,35.47-28.86,64.31-64.31,64.31s-64.33-28.84-64.33-64.31S123.78,27.08,159.25,27.08c7.85,0,15.39,1.42,22.36,4.02l12.09-24.36c-10.64-4.35-22.27-6.74-34.45-6.74-43.37,0-79.78,30.35-89.11,70.95C30.55,76.94,0,111.35,0,152.46c0,21.29,8.1,40.71,21.39,55.35,15.1,16.63,36.87,27.08,61.05,27.08h135.08c22.51,0,42.59-10.61,55.5-27.08,9.37-11.97,14.99-27.03,14.99-43.38,0-26.74-14.86-50.61-37.96-62.55ZM217.52,207.8H82.44c-30.53,0-55.37-24.82-55.37-55.35,0-25.48,17.49-47.13,41.09-53.47,3.88,46.86,43.24,83.79,91.09,83.79,37.02,0,68.96-22.12,83.32-53.83,11.32,7.94,18.34,21.02,18.34,35.46,0,23.91-19.47,43.38-43.4,43.38Z"/>
        <path class="cls-3" d="M185.08,54.57l-12.4,24.97c.71.8,1.34,1.65,1.9,2.56l27.53-4.42c-3.01-9.43-9.09-17.53-17.03-23.11Z"/>
        <path class="cls-3" d="M204.25,91.05l-27.53,4.41c-1.84,7.93-8.98,13.87-17.47,13.87-9.9,0-17.93-8.05-17.93-17.93s8.03-17.93,17.93-17.93c.44,0,.89.02,1.31.06l12.4-24.99c-4.32-1.4-8.92-2.15-13.71-2.15-24.82,0-45.01,20.19-45.01,45.01s20.19,45.01,45.01,45.01,45.01-20.19,45.01-45.01c0-.12,0-.23-.02-.35Z"/>
        <path class="cls-2" d="M205.83,12.77l-12.1,24.37c13.36,8.5,23.36,21.8,27.61,37.46l26.84-4.3c-5.78-24.4-21.36-45.04-42.35-57.53Z"/>
        <path class="cls-2" d="M185.08,54.57l-12.4,24.97c.71.8,1.34,1.65,1.9,2.56l27.53-4.42c-3.01-9.43-9.09-17.53-17.03-23.11Z"/>
      </g>
    </g>
  </g>
</svg>