<?xml version="1.0" encoding="UTF-8"?>
<svg id="Layer_2" data-name="Layer 2" xmlns="http://www.w3.org/2000/svg" viewBox="0 0 288 234.89">
  <defs>
    <style>
      .cls-1 {
        fill: #ce1432;
      }

      .cls-2 {
        fill: #009d54;
      }
    </style>
  </defs>
  <g id="Layer_1" data-name="Layer 1">
    <g>
      <path class="cls-2" d="M250.04,101.87v-.02c.4-3.43.6-6.92.6-10.45,0-2.6-.11-5.18-.33-7.72l-26.84,4.3c.06,1.14.09,2.27.09,3.42,0,35.47-28.86,64.31-64.31,64.31s-64.33-28.84-64.33-64.31S123.78,27.08,159.25,27.08c7.85,0,15.39,1.42,22.36,4.02l12.09-24.36c-10.64-4.35-22.27-6.74-34.45-6.74-43.37,0-79.78,30.35-89.11,70.95C30.55,76.94,0,111.35,0,152.46c0,21.29,8.1,40.71,21.39,55.35,15.1,16.63,36.87,27.08,61.05,27.08h135.08c22.51,0,42.59-10.61,55.5-27.08,9.37-11.97,14.99-27.03,14.99-43.38,0-26.74-14.86-50.61-37.96-62.55ZM217.52,207.8H82.44c-30.53,0-55.37-24.82-55.37-55.35,0-25.48,17.49-47.13,41.09-53.47,3.88,46.86,43.24,83.79,91.09,83.79,37.02,0,68.96-22.12,83.32-53.83,11.32,7.94,18.34,21.02,18.34,35.46,0,23.91-19.47,43.38-43.4,43.38Z"/>
      <path class="cls-2" d="M185.08,54.57l-12.4,24.97c.71.8,1.34,1.65,1.9,2.56l27.53-4.42c-3.01-9.43-9.09-17.53-17.03-23.11Z"/>
      <path class="cls-2" d="M204.25,91.05l-27.53,4.41c-1.84,7.93-8.98,13.87-17.47,13.87-9.9,0-17.93-8.05-17.93-17.93s8.03-17.93,17.93-17.93c.44,0,.89.02,1.31.06l12.4-24.99c-4.32-1.4-8.92-2.15-13.71-2.15-24.82,0-45.01,20.19-45.01,45.01s20.19,45.01,45.01,45.01,45.01-20.19,45.01-45.01c0-.12,0-.23-.02-.35Z"/>
      <path class="cls-1" d="M205.83,12.77l-12.1,24.37c13.36,8.5,23.36,21.8,27.61,37.46l26.84-4.3c-5.78-24.4-21.36-45.04-42.35-57.53Z"/>
      <path class="cls-1" d="M185.08,54.57l-12.4,24.97c.71.8,1.34,1.65,1.9,2.56l27.53-4.42c-3.01-9.43-9.09-17.53-17.03-23.11Z"/>
    </g>
  </g>
</svg>