<?xml version="1.0" encoding="utf-8"?>
<!-- Generator: Adobe Illustrator 27.3.1, SVG Export Plug-In . SVG Version: 6.00 Build 0)  -->
<svg version="1.1" id="Layer_1" xmlns="http://www.w3.org/2000/svg" xmlns:xlink="http://www.w3.org/1999/xlink" x="0px" y="0px"
	 viewBox="0 0 1024 1024" style="enable-background:new 0 0 1024 1024;" xml:space="preserve">
<style type="text/css">
	.st0{fill:#E42527;}
	.st1{fill:#089949;}
	.st2{fill:#226DB4;}
	.st3{fill:#F9B21D;}
</style>
<path class="st0" d="M1010.7,885.1c8-22,12.3-45.8,12.3-70.5c0-114.7-93.3-208-208-208c-77.9,0-146,43.1-181.6,106.7l-134.7-51.2
	c-15.5-5.8-32.8,1.9-38.7,17.4c-5.8,15.5,1.9,32.8,17.4,38.7L612,769.4c-3.2,14.6-5,29.7-5,45.2c0,114.7,93.3,208,208,208
	c87.4,0,162.4-54.2,193.1-130.7c0.5-1,1.1-2.1,1.5-3.2C1010,887.5,1010.4,886.3,1010.7,885.1z M963,814.6c0,8-0.7,15.9-1.9,23.6
	l-116-44.2V669.7C912.4,683.6,963,743.3,963,814.6z M815,962.6c-81.6,0-148-66.4-148-148c0-17.9,3.2-35,9-50.9
	c0.3-0.6,0.5-1.2,0.8-1.8c0.2-0.6,0.4-1.2,0.6-1.8c18.2-45.7,58.5-80.3,107.7-90.4v145c0,12.4,7.7,23.6,19.3,28l135.4,51.5
	C913.5,935.3,867.4,962.6,815,962.6z"/>
<g>
	<path class="st1" d="M626.5,346.2c-9.7-13.4-28.4-16.4-41.8-6.7L463.9,427c-2.8-3-5.6-6-8.5-8.9c-50.3-50.3-117.1-78-188.2-78
		s-137.9,27.7-188.2,78S1,535.2,1,606.3s27.7,137.9,77.9,188.1c50.3,50.3,117.1,78,188.2,78s138-27.6,188.3-77.9
		c50.3-50.3,78-117.1,78-188.2c0-46.6-11.9-91.4-34.3-130.9L619.8,388C633.2,378.3,636.2,359.6,626.5,346.2z M267.1,812.5
		c-113.7,0-206.2-92.5-206.2-206.2s92.5-206.2,206.2-206.2c113.8,0,206.3,92.5,206.3,206.2S380.8,812.5,267.1,812.5z"/>
	<path class="st1" d="M267.2,463.8c-16.6,0-30,13.5-30,30v97.1l-53,38c-13.5,9.6-16.5,28.4-6.9,41.8c5.9,8.2,15.1,12.5,24.4,12.5
		c6,0,12.1-1.8,17.5-5.5l65.5-47c7.8-5.7,12.5-14.7,12.5-24.4V493.8C297.2,477.2,283.8,463.8,267.2,463.8z"/>
</g>
<path class="st2" d="M729.7,84.4c-69,0-129.5,37.6-161.9,93.4l-139.9-53.2c-15.5-5.8-32.8,1.9-38.7,17.4
	c-5.8,15.5,1.9,32.8,17.4,38.7l139.7,53.1c-2.5,12.2-3.8,24.8-3.8,37.8c0,103.2,84,187.2,187.2,187.2c103.3,0,187.2-84,187.2-187.2
	S832.9,84.4,729.7,84.4z M729.7,398.9c-70.2,0-127.3-57.1-127.3-127.3c0-15.8,2.9-30.9,8.1-44.8c0.1-0.2,0.2-0.4,0.3-0.6
	c0.1-0.3,0.2-0.5,0.3-0.8c18.5-47.4,64.7-81.1,118.6-81.1c70.2,0,127.3,57.2,127.3,127.3S799.9,398.9,729.7,398.9z"/>
<g>
	<path class="st3" d="M333.4,240.5c-65.9,0-119.6-53.6-119.6-119.6S267.5,1.4,333.4,1.4S453,55,453,120.9S399.3,240.5,333.4,240.5z
		 M333.4,61.3c-32.9,0-59.6,26.7-59.6,59.6s26.7,59.6,59.6,59.6s59.6-26.7,59.6-59.6S366.3,61.3,333.4,61.3z"/>
</g>
</svg>
