<?xml version="1.0" encoding="utf-8"?>
<!-- Generator: Adobe Illustrator 27.3.1, SVG Export Plug-In . SVG Version: 6.00 Build 0)  -->
<svg version="1.1" id="Layer_1" xmlns="http://www.w3.org/2000/svg" xmlns:xlink="http://www.w3.org/1999/xlink" x="0px" y="0px"
	 viewBox="0 0 820 296" style="enable-background:new 0 0 820 296;" xml:space="preserve">
<style type="text/css">
	.st0{fill:#FFFFFF;}
</style>
<g>
	<g>
		<path class="st0" d="M369,221.1c1.2,3.3,2.8,6.2,4.8,8.6c2,2.5,4.3,4.5,6.9,6.2c2.6,1.7,5.5,2.9,8.6,3.8s6.5,1.2,10,1.2
			c2.7,0,5.3-0.4,7.9-1.1c2.6-0.7,4.9-1.8,6.9-3.2s3.7-3.3,5-5.5s1.9-4.8,1.9-7.8c0-3.2-0.7-5.8-2.2-7.8s-3.4-3.6-5.9-4.8
			s-5.2-2.2-8.4-2.9c-3.2-0.7-6.5-1.4-10-2c-4.5-0.8-8.9-1.7-13.3-2.9c-4.5-1.1-8.5-2.8-12-5.1s-6.5-5.5-8.7-9.5s-3.3-9.3-3.3-15.9
			c0-5.5,1.1-10.3,3.4-14.5c2.3-4.2,5.3-7.6,9-10.4c3.7-2.8,7.9-4.9,12.7-6.3s9.6-2.1,14.6-2.1c4.6,0,9,0.5,13.3,1.4
			c4.2,1,8.2,2.5,11.8,4.6c3.6,2.1,6.9,4.7,9.7,7.9s5.2,7,7,11.5l-16.3,7.4c-2.5-5.1-5.9-9.1-10.3-11.9c-4.4-2.9-9.5-4.3-15.4-4.3
			c-2.4,0-4.6,0.3-6.9,0.8c-2.2,0.5-4.2,1.4-6,2.6s-3.2,2.8-4.2,4.7c-1.1,1.9-1.6,4.3-1.6,7.1c0,3.1,0.7,5.6,2,7.5
			c1.4,1.9,3.2,3.5,5.5,4.7c2.3,1.2,5,2.2,8.1,2.9c3.1,0.7,6.4,1.4,9.9,2c3,0.5,6.1,1.1,9.1,1.7s6,1.4,8.9,2.5s5.6,2.3,8.1,3.8
			c2.5,1.5,4.7,3.4,6.6,5.7s3.4,5.1,4.4,8.4s1.6,7.1,1.6,11.6c0,5.8-1.2,10.9-3.7,15.4c-2.5,4.4-5.7,8.2-9.8,11.2s-8.6,5.3-13.8,6.8
			c-5.1,1.5-10.4,2.3-15.7,2.3c-5.2,0-10.3-0.5-15.3-1.5c-5-1-9.6-2.6-13.9-4.9c-4.3-2.2-8-5.2-11.3-8.9c-3.2-3.7-5.6-8.2-7.2-13.5
			L369,221.1z"/>
		<path class="st0" d="M451,213.9c0-6.6,1.3-12.6,3.8-18c2.5-5.4,6-10,10.2-13.9c4.3-3.8,9.3-6.8,15-8.9c5.7-2.1,11.7-3.2,18-3.2
			c6.4,0,12.3,1.1,17.8,3.2s10.3,5.1,14.3,8.9c4,3.9,7.2,8.4,9.5,13.8s3.5,11.3,3.5,17.7c0,6.6-1.2,12.6-3.6,18s-5.7,10-9.8,13.8
			c-4.2,3.8-9,6.8-14.6,8.9c-5.6,2.1-11.6,3.1-17.9,3.1c-6.4,0-12.4-1.1-18-3.2s-10.5-5.1-14.7-8.9s-7.4-8.4-9.9-13.7
			C452.1,226.2,451,220.3,451,213.9z M497.6,241.8c4.2,0,7.8-0.8,10.8-2.4s5.5-3.6,7.4-6.2c1.9-2.6,3.4-5.6,4.3-9
			c0.9-3.4,1.4-6.9,1.4-10.6c0-3.9-0.5-7.5-1.5-10.9c-1-3.4-2.5-6.4-4.5-9c-2-2.6-4.5-4.6-7.6-6.1c-3-1.5-6.6-2.2-10.8-2.2
			c-4.2,0-7.9,0.8-10.9,2.4c-3,1.6-5.5,3.7-7.3,6.3c-1.9,2.6-3.3,5.7-4.2,9.2s-1.3,7.1-1.3,11c0,3.7,0.5,7.2,1.5,10.6
			c1,3.4,2.5,6.3,4.5,8.8s4.5,4.5,7.5,6C490,241,493.6,241.8,497.6,241.8z"/>
		<path class="st0" d="M633.5,231.9c-1.4,4.4-3.4,8.2-6,11.4s-5.5,5.8-9,7.9c-3.4,2.1-7.1,3.6-11.2,4.6c-4.1,1-8.3,1.5-12.7,1.5
			c-6.6,0-12.6-1.1-17.9-3.2c-5.3-2.1-9.8-5.1-13.4-9s-6.5-8.5-8.4-13.9s-2.9-11.3-2.9-17.8c0-6.2,1.1-12,3.2-17.3s5.1-9.9,8.9-13.8
			c3.8-3.9,8.4-6.9,13.6-9.1s11-3.3,17.4-3.3c4.2,0,8.3,0.5,12.2,1.4c3.9,0.9,7.5,2.3,10.8,4.2s6.2,4.4,8.8,7.3
			c2.5,3,4.6,6.5,6.2,10.7l-16.2,7.1c-1.7-4.8-4.4-8.4-8.3-11c-3.8-2.6-8.3-3.9-13.4-3.9c-4.1,0-7.5,0.8-10.4,2.4
			c-2.8,1.6-5.2,3.8-7,6.5s-3.1,5.8-3.9,9.2s-1.2,6.9-1.2,10.6c0,3.7,0.4,7.2,1.3,10.6c0.8,3.4,2.2,6.3,4,8.8s4.2,4.5,7.1,6
			s6.4,2.2,10.4,2.2c5.8,0,10.6-1.5,14.4-4.5s6.6-7.1,8.3-12.4L633.5,231.9z"/>
		<path class="st0" d="M648.2,147.5c0-1.7,0.3-3.2,0.9-4.6s1.5-2.6,2.6-3.6c1.1-1,2.4-1.8,3.8-2.4s3-0.8,4.6-0.8
			c1.6,0,3.1,0.3,4.5,0.9c1.4,0.6,2.7,1.4,3.7,2.4c1.1,1,1.9,2.2,2.5,3.6c0.6,1.4,0.9,2.9,0.9,4.6c0,1.6-0.3,3.1-0.9,4.6
			s-1.4,2.6-2.4,3.6c-1,1-2.2,1.8-3.7,2.4c-1.4,0.6-3,0.9-4.6,0.9c-1.6,0-3.2-0.3-4.6-0.9c-1.5-0.6-2.8-1.4-3.8-2.4s-2-2.2-2.6-3.6
			C648.5,150.6,648.2,149.1,648.2,147.5z M650,171.8h20.1v83.9H650V171.8z"/>
		<path class="st0" d="M741.1,245.4c-3.2,4.2-7,7.3-11.5,9.1c-4.5,1.8-9.3,2.8-14.6,2.8c-3.9,0-7.6-0.5-11-1.5c-3.4-1-6.4-2.5-9-4.6
			c-2.5-2-4.5-4.6-6-7.6c-1.5-3.1-2.2-6.7-2.2-10.8c0-3.9,0.6-7.2,1.9-10.1c1.3-2.9,3-5.3,5.2-7.3c2.2-2,4.7-3.6,7.7-4.9
			c2.9-1.3,6-2.2,9.3-2.9c3.3-0.7,6.6-1.2,10.1-1.4s6.8-0.4,10-0.4h9.9v-1.3c0-3-0.2-5.7-0.7-8.1s-1.3-4.5-2.5-6.2
			c-1.2-1.7-2.9-3-5-3.9s-4.9-1.4-8.3-1.4c-4.1,0-7.8,1-11.3,3.1s-5.9,5-7.4,8.9l-15.6-6.8c1.4-3.7,3.4-6.9,6-9.4
			c2.6-2.6,5.5-4.7,8.7-6.3c3.2-1.6,6.7-2.8,10.4-3.5c3.7-0.7,7.5-1.1,11.2-1.1c5,0,9.5,0.6,13.7,1.8c4.2,1.2,7.8,3.1,10.9,5.6
			s5.4,5.7,7.1,9.6s2.5,8.5,2.5,13.9v54.9H741L741.1,245.4L741.1,245.4z M730.8,218.1c-2.3,0-4.8,0.1-7.7,0.4
			c-2.8,0.2-5.4,0.8-7.8,1.8c-2.4,0.9-4.5,2.3-6.1,4.2s-2.4,4.3-2.4,7.5c0,2,0.3,3.8,1,5.1s1.6,2.5,2.9,3.4s2.7,1.5,4.3,1.9
			c1.6,0.4,3.4,0.6,5.3,0.6c2.6,0,5.1-0.3,7.5-1c2.5-0.7,4.7-1.7,6.6-3.1s3.5-3.1,4.8-5.2c1.2-2.1,1.8-4.6,1.8-7.4v-8.2L730.8,218.1
			L730.8,218.1z"/>
		<path class="st0" d="M782.6,137.6l20.1-8.7v126.8h-20.1V137.6z"/>
	</g>
	<g>
		<g>
			<path class="st0" d="M360.3,104.4l37-53.4H364V40.5h50.6v5.2l-36.1,53.4h35v10.5h-53.3L360.3,104.4L360.3,104.4z"/>
			<path class="st0" d="M418,84.5c0-4,0.8-7.6,2.3-10.8c1.5-3.3,3.6-6.1,6.2-8.4c2.6-2.3,5.6-4.1,9-5.4s7-1.9,10.9-1.9
				c3.8,0,7.4,0.6,10.7,1.9c3.3,1.3,6.2,3.1,8.6,5.4s4.4,5.1,5.7,8.3c1.4,3.2,2.1,6.8,2.1,10.7c0,4-0.7,7.6-2.2,10.8
				c-1.5,3.2-3.4,6-5.9,8.3c-2.5,2.3-5.4,4.1-8.8,5.3c-3.4,1.3-7,1.9-10.8,1.9c-3.8,0-7.5-0.6-10.9-1.9c-3.4-1.3-6.3-3.1-8.8-5.4
				c-2.5-2.3-4.5-5.1-5.9-8.2C418.8,91.9,418,88.3,418,84.5z M446.2,101.3c2.5,0,4.7-0.5,6.5-1.4s3.3-2.2,4.5-3.8
				c1.2-1.6,2-3.4,2.6-5.4c0.5-2.1,0.8-4.2,0.8-6.4c0-2.3-0.3-4.5-0.9-6.6c-0.6-2.1-1.5-3.9-2.7-5.4c-1.2-1.6-2.7-2.8-4.6-3.7
				s-4-1.3-6.5-1.3c-2.5,0-4.7,0.5-6.5,1.4s-3.3,2.2-4.4,3.8c-1.1,1.6-2,3.4-2.5,5.5c-0.5,2.1-0.8,4.3-0.8,6.6
				c0,2.2,0.3,4.4,0.9,6.4s1.5,3.8,2.7,5.3c1.2,1.5,2.7,2.7,4.5,3.6C441.6,100.9,443.7,101.3,446.2,101.3z"/>
			<path class="st0" d="M482.4,36.1h12.1v31c0.8-1.6,1.8-2.9,3-4.1c1.2-1.2,2.5-2.1,4-2.8c1.5-0.7,3-1.3,4.7-1.7s3.4-0.5,5.1-0.5
				c3,0,5.7,0.5,7.9,1.5c2.3,1,4.2,2.4,5.7,4.2c1.5,1.8,2.7,3.9,3.4,6.3c0.8,2.4,1.1,5.1,1.1,8v31.7h-12.2V79.2
				c0-3.7-0.9-6.4-2.8-8.4s-4.5-2.9-8.1-2.9c-3.9,0-6.9,1.1-9,3.3s-3.1,5.1-3.1,8.7v29.7h-12.1L482.4,36.1L482.4,36.1z"/>
			<path class="st0" d="M537.4,84.5c0-4,0.8-7.6,2.3-10.8c1.5-3.3,3.6-6.1,6.2-8.4c2.6-2.3,5.6-4.1,9-5.4s7-1.9,10.8-1.9
				c3.8,0,7.4,0.6,10.7,1.9c3.3,1.3,6.2,3.1,8.6,5.4s4.4,5.1,5.7,8.3c1.4,3.2,2.1,6.8,2.1,10.7c0,4-0.7,7.6-2.2,10.8
				c-1.5,3.2-3.4,6-5.9,8.3c-2.5,2.3-5.4,4.1-8.8,5.3c-3.4,1.3-7,1.9-10.8,1.9c-3.8,0-7.5-0.6-10.8-1.9c-3.4-1.3-6.3-3.1-8.8-5.4
				c-2.5-2.3-4.5-5.1-5.9-8.2C538.1,91.9,537.4,88.3,537.4,84.5z M565.5,101.3c2.5,0,4.7-0.5,6.5-1.4s3.3-2.2,4.5-3.8
				c1.2-1.6,2-3.4,2.6-5.4c0.5-2.1,0.8-4.2,0.8-6.4c0-2.3-0.3-4.5-0.9-6.6c-0.6-2.1-1.5-3.9-2.7-5.4c-1.2-1.6-2.7-2.8-4.6-3.7
				s-4-1.3-6.5-1.3c-2.5,0-4.7,0.5-6.5,1.4s-3.3,2.2-4.4,3.8c-1.1,1.6-2,3.4-2.5,5.5c-0.5,2.1-0.8,4.3-0.8,6.6
				c0,2.2,0.3,4.4,0.9,6.4s1.5,3.8,2.7,5.3c1.2,1.5,2.7,2.7,4.5,3.6C560.9,100.9,563.1,101.3,565.5,101.3z"/>
		</g>
	</g>
</g>
<g>
	<path class="st0" d="M291.8,253.9c2.3-6.3,3.5-13.1,3.5-20.1c0-32.6-26.5-59-59-59c-22.1,0-41.4,12.2-51.5,30.3L154,193.4
		c1.5-6,2.3-12.3,2.3-18.7c0-13.2-3.4-25.9-9.8-37.1l28-20.3c9.6,9.6,22.9,15.5,37.5,15.5c29.3,0,53.1-23.8,53.1-53.1
		c0-29.3-23.8-53.1-53.1-53.1c-19.6,0-36.7,10.7-45.9,26.5l-32.8-12.5c0.1-1.2,0.2-2.4,0.2-3.7C133.6,18.3,118.3,3,99.6,3
		S65.7,18.2,65.7,37c0,18.7,15.2,33.9,33.9,33.9c11.4,0,21.5-5.7,27.7-14.3L160,69c-0.7,3.5-1.1,7-1.1,10.7c0,8.6,2.1,16.7,5.7,23.8
		l-28,20.3c-0.8-0.8-1.6-1.7-2.4-2.5C120,107,101,99.2,80.8,99.2c-20.2,0-39.1,7.9-53.4,22.1S5.3,154.5,5.3,174.7
		c0,20.2,7.9,39.1,22.1,53.4c14.3,14.3,33.2,22.1,53.4,22.1s39.2-7.8,53.4-22.1c5.6-5.6,10.2-12,13.8-18.8l30.7,11.7
		c-0.9,4.1-1.4,8.4-1.4,12.8c0,32.5,26.5,59,59,59c24.9,0,46.2-15.4,54.8-37.2c0.1-0.3,0.3-0.5,0.4-0.8
		C291.6,254.5,291.7,254.2,291.8,253.9z M99.6,53.9c-9.3,0-16.9-7.6-16.9-16.9c0-9.3,7.6-16.9,16.9-16.9c9.3,0,16.9,7.6,16.9,16.9
		C116.5,46.3,109,53.9,99.6,53.9z M212.1,43.6c19.9,0,36.1,16.2,36.1,36.1c0,19.9-16.2,36.1-36.1,36.1S176,99.6,176,79.7
		C176,59.8,192.2,43.6,212.1,43.6z M80.8,233.2c-32.3,0-58.5-26.2-58.5-58.5c0-32.3,26.2-58.5,58.5-58.5c32.3,0,58.5,26.2,58.5,58.5
		C139.4,207,113.1,233.2,80.8,233.2z M278.3,233.8c0,2.3-0.2,4.5-0.5,6.7L244.8,228v-35.3C263.9,196.6,278.3,213.6,278.3,233.8z
		 M236.3,275.8c-23.2,0-42-18.8-42-42c0-5.2,1-10.2,2.7-14.8c0-0.1,0.1-0.1,0.1-0.2c0-0.1,0-0.1,0.1-0.2c5.1-13.1,16.6-23.1,30.7-26
		v41.1c0,3.5,2.2,6.7,5.5,8l38.4,14.6C264.2,268,251.1,275.8,236.3,275.8z"/>
	<path class="st0" d="M80.8,134.3c-4.7,0-8.5,3.8-8.5,8.5v27.6l-15,10.8c-3.8,2.7-4.7,8.1-2,11.9c1.7,2.3,4.3,3.6,6.9,3.6
		c1.7,0,3.4-0.5,5-1.6l18.6-13.3c2.2-1.6,3.6-4.2,3.6-6.9v-31.9C89.4,138.1,85.5,134.3,80.8,134.3z"/>
</g>
</svg>
