<?xml version="1.0" encoding="utf-8"?>
<!-- Generator: Adobe Illustrator 27.3.1, SVG Export Plug-In . SVG Version: 6.00 Build 0)  -->
<svg version="1.1" id="Layer_1" xmlns="http://www.w3.org/2000/svg" xmlns:xlink="http://www.w3.org/1999/xlink" x="0px" y="0px"
	 viewBox="0 0 886 296" style="enable-background:new 0 0 886 296;" xml:space="preserve">
<style type="text/css">
	.st0{fill:#FFFFFF;}
</style>
<g>
	<g>
		<path class="st0" d="M355.5,221.1c4.7,13.1,16.3,19.9,30.3,19.9c10.6,0,21.7-5.6,21.7-17.6c0-12.7-12.6-15-26.5-17.5
			c-17.8-3.2-37.4-7-37.4-33.4c0-22.1,19.8-33.3,39.6-33.3c18.4,0,34.6,7.5,41.7,25.4l-16.3,7.4c-4.9-10.1-14-16.2-25.7-16.2
			c-9.3,0-18.7,3.9-18.7,15.1c0,12.4,11.6,14.6,25.6,17.1c18,3.2,38.8,6.8,38.8,33.7c0,23.3-21.7,35.6-42.9,35.6
			c-20.6,0-41.4-7.4-47.6-28.7L355.5,221.1z"/>
		<path class="st0" d="M445.7,171.6h20.1v13.6c5.8-9.8,17.6-15.4,28.8-15.4c25.7,0,38.1,20.6,38.1,43.6c0,23.6-13.2,43.9-37.5,43.9
			c-11.8,0-23.7-4.7-29.3-14.8v42h-20.1V171.6H445.7z M511.9,212.9c0-14.2-7.1-27.4-23.5-27.4c-16.6,0-23.3,13.3-23.3,28.4
			c0,15.6,7.2,27.6,23.9,27.6C506.7,241.6,511.9,228.4,511.9,212.9z"/>
		<path class="st0" d="M549.1,171.6h20.1v15.8c5.7-11.5,14.8-17,27.6-17V189c-16.2,0-27.6,5.3-27.6,23.3v43.4h-20.1V171.6z"/>
		<path class="st0" d="M623.4,136.1c6.5,0,11.7,4.8,11.7,11.5c0,6.6-5,11.4-11.6,11.4c-6.5,0-12-4.9-12-11.5
			C611.5,140.8,616.9,136.1,623.4,136.1z M613.3,171.8h20.1v83.9h-20.1V171.8z"/>
		<path class="st0" d="M656.1,171.6h20.1V185c5.4-10.4,16.7-15.1,28.4-15.1c20.2,0,29.3,14.2,29.3,33.3v52.6h-20.4v-50.6
			c0-11.8-5.3-18.7-17.2-18.7c-12.6,0-20.1,7.8-20.1,19.9v49.4h-20.1V171.6z"/>
		<path class="st0" d="M797.5,255.1c-4.3,1.3-8.8,2-13.8,2c-16,0-25.5-8.3-25.5-25v-45.7h-11.3v-14.8h11.3v-17.3l20.1-8.7v26.1h18.5
			v14.8h-18.5v43.9c0,6.6,2.8,10.7,10.2,10.7c2.8,0,6-0.6,9-1.6V255.1z"/>
		<path class="st0" d="M823.1,230.6c3.1,8.2,11.7,12.2,20.8,12.2c6.5,0,14.6-2,14.6-10c0-8.4-9.1-10.4-19.5-12.6
			c-13.5-2.8-28.6-6.1-28.6-25c0-17.3,16.1-25.5,31.3-25.5c13.3,0,28.6,5,34.1,18.3l-14.9,6.4c-3.3-7.5-11.5-10.3-18.4-10.3
			c-6.7,0-13.1,2.7-13.1,9.5c0,7.7,8.2,9.3,18.4,11.3c13.7,2.7,30.1,5.8,30.1,25.4c0,19.8-16.6,26.8-34.1,26.8
			c-14.8,0-30.8-5-36-20.1L823.1,230.6z"/>
	</g>
	<g>
		<path class="st0" d="M346.8,104.4l37-53.4h-33.2V40.5h50.6v5.2l-36.1,53.4h35v10.5h-53.3V104.4z"/>
		<path class="st0" d="M432.8,58c15.4,0,27.2,10.8,27.2,26.3c0,15.9-12.4,26.4-27.7,26.4c-15.4,0-27.8-10.7-27.8-26.1
			C404.5,68.6,417.6,58,432.8,58z M447,84.3c0-9.3-4.7-17.1-14.7-17.1c-10.2,0-14.3,8.1-14.3,17.4c0,9,4.8,16.6,14.6,16.6
			C442.7,101.3,447,93.2,447,84.3z"/>
		<path class="st0" d="M468.8,36.1h12.1v31c3.3-6.3,9.9-9.1,16.9-9.1C510,58,516,66.5,516,78v31.7h-12.2V79.2
			c0-7.3-3.8-11.3-10.8-11.3c-7.8,0-12.1,4.8-12.1,12v29.7h-12.1V36.1z"/>
		<path class="st0" d="M552.2,58c15.4,0,27.2,10.8,27.2,26.3c0,15.9-12.4,26.4-27.7,26.4c-15.4,0-27.8-10.7-27.8-26.1
			C523.9,68.6,537,58,552.2,58z M566.4,84.3c0-9.3-4.7-17.1-14.7-17.1c-10.2,0-14.3,8.1-14.3,17.4c0,9,4.8,16.6,14.6,16.6
			C562.1,101.3,566.4,93.2,566.4,84.3z"/>
	</g>
</g>
<path class="st0" d="M278.8,33.5c-2.5-6.4-6.2-12.1-11.1-17l-11-11c-3.2-3.3-8.6-3.3-11.9-0.1L114.5,131.9H71.2
	c-4.7,0-8.5,3.8-8.5,8.5c0,4.7,3.8,8.5,8.5,8.5H97l-26.3,25.5H27.4c-4.7,0-8.5,3.8-8.5,8.5c0,4.7,3.8,8.5,8.5,8.5h25.9l-30.1,29.2
	c-9.4,9.2-14.7,21.5-14.8,34.7c-0.1,13.2,5,25.7,14.3,35l0.1,0.1c3.2,3.2,8.2,3.4,11.6,0.4L154.8,185c3.6-3.1,3.9-8.5,0.8-12
	c-3.1-3.6-8.5-3.9-12-0.8l-113.7,100c-3-5-4.5-10.7-4.5-16.6c0.1-8.7,3.5-16.7,9.7-22.7L250.6,23.7l5.1,5.1
	c6.3,6.3,9.6,14.7,9.3,23.6c-0.3,8.9-4.2,17-10.9,22.9l-84.7,74.3c-3.1,2.7-3.8,7.3-1.6,10.8l38.8,63.3L173,234.5
	c-10.5,3.4-19.6,10.3-25.7,19.5c-6,9.2-8.9,20.3-7.9,31.3c0.2,2.3,1.4,4.4,3.2,5.9c1.5,1.2,3.4,1.8,5.3,1.8c0.4,0,0.8,0,1-0.1
	l83.8-12c15.3-2.1,28.4-11.2,35.9-24.7s8.2-29.4,1.9-43.5l-29.7-66.9c-1.9-4.3-6.9-6.2-11.2-4.3c-4.3,1.9-6.2,6.9-4.3,11.2
	l29.7,66.9c4.1,9.2,3.7,19.6-1.2,28.4c-4.9,8.8-13.4,14.7-23.4,16.1l-73.7,10.5c0.8-4,2.4-7.9,4.7-11.3c4-6,9.9-10.5,16.8-12.7
	l43.9-14.2c2.5-0.8,4.5-2.7,5.4-5.1c0.9-2.4,0.7-5.2-0.7-7.4l-40.7-66.4l79.3-69.6c5.1-4.5,9.2-10,12.1-16.2c2.8-6,4.3-12.4,4.5-19
	C282.3,46.1,281.2,39.6,278.8,33.5z"/>
</svg>
