<?xml version="1.0" encoding="utf-8"?>
<!-- Generator: Adobe Illustrator 27.5.0, SVG Export Plug-In . SVG Version: 6.00 Build 0)  -->
<svg version="1.1" id="Layer_1" xmlns="http://www.w3.org/2000/svg" xmlns:xlink="http://www.w3.org/1999/xlink" x="0px" y="0px"
	 viewBox="0 0 1024 1024" style="enable-background:new 0 0 1024 1024;" xml:space="preserve">
<style type="text/css">
	.st0{fill:#F9B21D;}
	.st1{fill:#089949;}
</style>
<path class="st0" d="M250.8,455.2c-16.6,0-30,13.4-30,30s13.4,30,30,30h91.5l61.8-60H250.8z"/>
<path class="st0" d="M96.2,605.2c-16.6,0-30,13.4-30,30s13.4,30,30,30h91.7l61.8-60H96.2z"/>
<path class="st1" d="M983.2,108.1c-8.7-22.5-21.8-42.6-39-59.8L905.3,9.3C893.7-2.2,874.9-2.4,863.2,9L404,455.2l-61.8,60l-92.6,90
	l-61.8,60L81.6,768.5c-33.4,32.4-52,76-52.3,122.5c-0.3,46.6,17.6,90.3,50.6,123.3l0.2,0.2c11.2,11.1,29.1,11.7,41,1.3l424.8-373.6
	c12.4-10.9,13.7-29.9,2.7-42.3c-10.9-12.4-29.9-13.7-42.3-2.7L105.1,949.8c-10.5-17.5-16-37.5-15.8-58.5
	c0.2-30.4,12.3-58.7,34.1-79.9L883.8,72.7l18,18c22.2,22.2,33.9,51.8,32.9,83.3c-1,31.5-14.6,60.2-38.3,80.9L597.6,517
	c-11,9.6-13.4,25.8-5.8,38.2l136.8,223.2l-118.4,38.2c-37,12-69.3,36.4-90.8,68.9c-21.5,32.5-31.5,71.7-28,110.5
	c0.7,8.2,4.8,15.8,11.2,20.9c5.3,4.2,11.9,6.5,18.6,6.5c1.4,0,2.8-0.1,4.3-0.3l295.7-42.3c54-7.7,100.2-39.5,126.6-87.3
	s28.8-103.7,6.7-153.6L849.5,504c-6.7-15.1-24.5-22-39.6-15.2c-15.1,6.7-22,24.5-15.2,39.6l104.9,236c14.5,32.5,12.9,69-4.4,100.2
	c-17.2,31.2-47.3,51.9-82.5,56.9l-259.8,37.1c2.9-14.2,8.4-27.7,16.5-39.9c14-21.2,35.1-37.1,59.2-44.9l154.7-50
	c8.8-2.8,15.7-9.5,18.9-18.1c3.2-8.6,2.2-18.2-2.6-26.1L656.1,545.4L936,300c18.3-16,32.7-35.3,42.8-57.2
	c9.8-21.1,15.1-43.6,15.8-66.9S991.5,129.8,983.2,108.1z"/>
</svg>
