<?xml version="1.0" encoding="utf-8"?>
<!-- Generator: Adobe Illustrator 27.3.1, SVG Export Plug-In . SVG Version: 6.00 Build 0)  -->
<svg version="1.1" id="Layer_1" xmlns="http://www.w3.org/2000/svg" xmlns:xlink="http://www.w3.org/1999/xlink" x="0px" y="0px"
	 viewBox="0 0 883.8 296" style="enable-background:new 0 0 883.8 296;" xml:space="preserve">
<style type="text/css">
	.st0{fill:#FFFFFF;}
</style>
<g>
	<g>
		<path class="st0" d="M372.1,221.1c1.2,3.3,2.8,6.2,4.8,8.6c2,2.5,4.3,4.5,6.9,6.2c2.6,1.7,5.5,2.9,8.6,3.8s6.5,1.2,10,1.2
			c2.7,0,5.3-0.4,7.9-1.1c2.6-0.7,4.9-1.8,6.9-3.2s3.7-3.3,5-5.5s1.9-4.8,1.9-7.8c0-3.2-0.7-5.8-2.2-7.8s-3.4-3.6-5.9-4.8
			s-5.2-2.2-8.4-2.9c-3.2-0.7-6.5-1.4-10-2c-4.5-0.8-8.9-1.7-13.3-2.9c-4.5-1.1-8.5-2.8-12-5.1s-6.5-5.5-8.7-9.5s-3.3-9.3-3.3-15.9
			c0-5.5,1.1-10.3,3.4-14.5c2.3-4.2,5.3-7.6,9-10.4c3.7-2.8,7.9-4.9,12.7-6.3s9.6-2.1,14.6-2.1c4.6,0,9,0.5,13.3,1.4
			c4.2,1,8.2,2.5,11.8,4.6c3.6,2.1,6.9,4.7,9.7,7.9s5.2,7,7,11.5l-16.3,7.4c-2.5-5.1-5.9-9.1-10.3-11.9c-4.4-2.9-9.5-4.3-15.4-4.3
			c-2.4,0-4.6,0.3-6.9,0.8c-2.2,0.5-4.2,1.4-6,2.6s-3.2,2.8-4.2,4.7c-1.1,1.9-1.6,4.3-1.6,7.1c0,3.1,0.7,5.6,2,7.5
			c1.4,1.9,3.2,3.5,5.5,4.7c2.3,1.2,5,2.2,8.1,2.9c3.1,0.7,6.4,1.4,9.9,2c3,0.5,6.1,1.1,9.1,1.7s6,1.4,8.9,2.5s5.6,2.3,8.1,3.8
			c2.5,1.5,4.7,3.4,6.6,5.7s3.4,5.1,4.4,8.4s1.6,7.1,1.6,11.6c0,5.8-1.2,10.9-3.7,15.4c-2.5,4.4-5.7,8.2-9.8,11.2s-8.6,5.3-13.8,6.8
			c-5.1,1.5-10.4,2.3-15.7,2.3c-5.2,0-10.3-0.5-15.3-1.5c-5-1-9.6-2.6-13.9-4.9c-4.3-2.2-8-5.2-11.3-8.9c-3.2-3.7-5.6-8.2-7.2-13.5
			L372.1,221.1z"/>
		<path class="st0" d="M518.2,242.5c-1.3,2.6-2.9,4.8-4.9,6.6c-2,1.9-4.1,3.4-6.5,4.6c-2.4,1.2-5,2.1-7.7,2.7
			c-2.8,0.6-5.6,0.9-8.5,0.9c-4.8,0-9.1-0.8-12.8-2.3c-3.7-1.5-6.8-3.7-9.3-6.5c-2.5-2.8-4.4-6.1-5.6-10c-1.3-3.9-1.9-8.2-1.9-13
			v-53.8h20.1V223c0,5.8,1.4,10.3,4.1,13.6s7,4.9,12.9,4.9c3.1,0,6-0.5,8.4-1.4c2.5-1,4.6-2.3,6.4-4.1c1.8-1.8,3.1-3.9,4-6.4
			c0.9-2.5,1.4-5.2,1.4-8.2v-49.8h20v84h-20L518.2,242.5L518.2,242.5z"/>
		<path class="st0" d="M560.3,171.6h20.1v15.8c2.8-5.8,6.5-10.1,11.1-12.9c4.6-2.8,10.1-4.2,16.5-4.2V189c-4.1,0-7.8,0.4-11.2,1.1
			c-3.4,0.7-6.3,2-8.7,3.8s-4.3,4.2-5.7,7.2s-2,6.7-2,11.2v43.4h-20.1V171.6z"/>
		<path class="st0" d="M615.8,171.6h21.5l21.7,63.6l21.5-63.6h19.6l-30.3,84h-23.5L615.8,171.6z"/>
		<path class="st0" d="M784.4,237.4c-1.7,3.7-3.9,6.8-6.6,9.4c-2.7,2.5-5.7,4.6-9,6.1s-6.8,2.7-10.5,3.3c-3.7,0.7-7.5,1-11.4,1
			c-6.6,0-12.6-1.1-18-3.2c-5.3-2.1-9.9-5.1-13.6-8.9c-3.7-3.8-6.6-8.5-8.6-13.9s-3-11.4-3-17.9c0-6.2,1-11.9,3.1-17.2
			s4.9-9.9,8.6-13.8s8.2-7,13.3-9.2c5.2-2.2,10.9-3.3,17.3-3.3c13.6,0,23.7,4,30.4,12s10,20.1,10,36.3h-62.2c0,3.6,0.5,6.8,1.5,9.9
			c1,3,2.5,5.6,4.5,7.8s4.5,3.9,7.4,5.1c2.9,1.2,6.3,1.8,10.1,1.8c4.6,0,8.7-1,12.3-2.9s6.5-5.1,8.7-9.3L784.4,237.4z M766.3,204.9
			c-0.3-6.4-2.3-11.4-5.8-15c-3.6-3.6-8.4-5.4-14.3-5.4c-3.1,0-6,0.5-8.5,1.6c-2.5,1.1-4.7,2.5-6.5,4.3s-3.3,4-4.4,6.5
			c-1.2,2.5-1.9,5.2-2.3,8.1L766.3,204.9L766.3,204.9z"/>
		<path class="st0" d="M826.5,247.1l-33-75.5h21.5l22,53.7l20.6-53.7h19.5L831,284.5h-19.7L826.5,247.1z"/>
	</g>
	<g>
		<g>
			<path class="st0" d="M363.4,104.4l37-53.4h-33.2V40.5h50.6v5.2l-36.1,53.4h35v10.5h-53.3L363.4,104.4L363.4,104.4z"/>
			<path class="st0" d="M421.1,84.5c0-4,0.8-7.6,2.3-10.8c1.5-3.3,3.6-6.1,6.2-8.4c2.6-2.3,5.6-4.1,9-5.4s7-1.9,10.9-1.9
				c3.8,0,7.4,0.6,10.7,1.9c3.3,1.3,6.2,3.1,8.6,5.4s4.4,5.1,5.7,8.3c1.4,3.2,2.1,6.8,2.1,10.7c0,4-0.7,7.6-2.2,10.8
				c-1.5,3.2-3.4,6-5.9,8.3c-2.5,2.3-5.4,4.1-8.8,5.3c-3.4,1.3-7,1.9-10.8,1.9c-3.8,0-7.5-0.6-10.9-1.9c-3.4-1.3-6.3-3.1-8.8-5.4
				c-2.5-2.3-4.5-5.1-5.9-8.2C421.8,91.9,421.1,88.3,421.1,84.5z M449.2,101.3c2.5,0,4.7-0.5,6.5-1.4s3.3-2.2,4.5-3.8
				c1.2-1.6,2-3.4,2.6-5.4c0.5-2.1,0.8-4.2,0.8-6.4c0-2.3-0.3-4.5-0.9-6.6c-0.6-2.1-1.5-3.9-2.7-5.4c-1.2-1.6-2.7-2.8-4.6-3.7
				s-4-1.3-6.5-1.3c-2.5,0-4.7,0.5-6.5,1.4s-3.3,2.2-4.4,3.8c-1.1,1.6-2,3.4-2.5,5.5c-0.5,2.1-0.8,4.3-0.8,6.6
				c0,2.2,0.3,4.4,0.9,6.4s1.5,3.8,2.7,5.3c1.2,1.5,2.7,2.7,4.5,3.6C444.6,100.9,446.8,101.3,449.2,101.3z"/>
			<path class="st0" d="M485.5,36.1h12.1v31c0.8-1.6,1.8-2.9,3-4.1c1.2-1.2,2.5-2.1,4-2.8c1.5-0.7,3-1.3,4.7-1.7s3.4-0.5,5.1-0.5
				c3,0,5.7,0.5,7.9,1.5s4.2,2.4,5.7,4.2c1.5,1.8,2.7,3.9,3.4,6.3c0.8,2.4,1.1,5.1,1.1,8v31.7h-12.2V79.2c0-3.7-0.9-6.4-2.8-8.4
				s-4.5-2.9-8.1-2.9c-3.9,0-6.9,1.1-9,3.3s-3.1,5.1-3.1,8.7v29.7h-12.1L485.5,36.1L485.5,36.1z"/>
			<path class="st0" d="M540.5,84.5c0-4,0.8-7.6,2.3-10.8c1.5-3.3,3.6-6.1,6.2-8.4c2.6-2.3,5.6-4.1,9-5.4s7-1.9,10.8-1.9
				c3.8,0,7.4,0.6,10.7,1.9c3.3,1.3,6.2,3.1,8.6,5.4s4.4,5.1,5.7,8.3c1.4,3.2,2.1,6.8,2.1,10.7c0,4-0.7,7.6-2.2,10.8
				c-1.5,3.2-3.4,6-5.9,8.3c-2.5,2.3-5.4,4.1-8.8,5.3c-3.4,1.3-7,1.9-10.8,1.9c-3.8,0-7.5-0.6-10.8-1.9c-3.4-1.3-6.3-3.1-8.8-5.4
				c-2.5-2.3-4.5-5.1-5.9-8.2C541.2,91.9,540.5,88.3,540.5,84.5z M568.6,101.3c2.5,0,4.7-0.5,6.5-1.4s3.3-2.2,4.5-3.8
				c1.2-1.6,2-3.4,2.6-5.4c0.5-2.1,0.8-4.2,0.8-6.4c0-2.3-0.3-4.5-0.9-6.6c-0.6-2.1-1.5-3.9-2.7-5.4c-1.2-1.6-2.7-2.8-4.6-3.7
				s-4-1.3-6.5-1.3c-2.5,0-4.7,0.5-6.5,1.4s-3.3,2.2-4.4,3.8c-1.1,1.6-2,3.4-2.5,5.5c-0.5,2.1-0.8,4.3-0.8,6.6
				c0,2.2,0.3,4.4,0.9,6.4s1.5,3.8,2.7,5.3c1.2,1.5,2.7,2.7,4.5,3.6C564,100.9,566.1,101.3,568.6,101.3z"/>
		</g>
	</g>
</g>
<g>
	<g>
		<g>
			<path class="st0" d="M154.2,59.6c-15.6,0-28.3-12.7-28.3-28.3S138.6,3,154.2,3s28.3,12.7,28.3,28.3S169.8,59.6,154.2,59.6z
				 M154.2,20c-6.3,0-11.3,5.1-11.3,11.3s5.1,11.3,11.3,11.3s11.3-5.1,11.3-11.3S160.4,20,154.2,20z"/>
		</g>
		<g>
			<path class="st0" d="M154.2,59.6c-15.6,0-28.3-12.7-28.3-28.3S138.6,3,154.2,3s28.3,12.7,28.3,28.3S169.8,59.6,154.2,59.6z
				 M154.2,20c-6.3,0-11.3,5.1-11.3,11.3s5.1,11.3,11.3,11.3s11.3-5.1,11.3-11.3S160.4,20,154.2,20z"/>
		</g>
	</g>
	<g>
		<g>
			<path class="st0" d="M270.5,144.9c-15.6,0-28.4-12.7-28.4-28.4s12.7-28.4,28.4-28.4c15.6,0,28.4,12.7,28.4,28.4
				S286.2,144.9,270.5,144.9z M270.5,105.2c-6.3,0-11.4,5.1-11.4,11.4s5.1,11.4,11.4,11.4c6.3,0,11.4-5.1,11.4-11.4
				S276.8,105.2,270.5,105.2z"/>
		</g>
		<g>
			<path class="st0" d="M270.5,144.9c-15.6,0-28.4-12.7-28.4-28.4s12.7-28.4,28.4-28.4c15.6,0,28.4,12.7,28.4,28.4
				S286.2,144.9,270.5,144.9z M270.5,105.2c-6.3,0-11.4,5.1-11.4,11.4s5.1,11.4,11.4,11.4c6.3,0,11.4-5.1,11.4-11.4
				S276.8,105.2,270.5,105.2z"/>
		</g>
	</g>
	<g>
		<path class="st0" d="M225.9,279.4c-15.6,0-28.4-12.7-28.4-28.4c0-15.6,12.7-28.4,28.4-28.4c15.6,0,28.4,12.7,28.4,28.4
			S241.6,279.4,225.9,279.4z M225.9,239.6c-6.3,0-11.4,5.1-11.4,11.4c0,6.3,5.1,11.4,11.4,11.4c6.3,0,11.4-5.1,11.4-11.4
			S232.2,239.6,225.9,239.6z"/>
	</g>
	<g>
		<g>
			<path class="st0" d="M83.1,280c-15.6,0-28.4-12.7-28.4-28.4c0-15.6,12.7-28.4,28.4-28.4s28.4,12.7,28.4,28.4
				C111.4,267.3,98.7,280,83.1,280z M83.1,240.2c-6.3,0-11.4,5.1-11.4,11.4c0,6.3,5.1,11.4,11.4,11.4c6.3,0,11.4-5.1,11.4-11.4
				C94.4,245.3,89.3,240.2,83.1,240.2z"/>
		</g>
		<g>
			<path class="st0" d="M83.1,280c-15.6,0-28.4-12.7-28.4-28.4c0-15.6,12.7-28.4,28.4-28.4s28.4,12.7,28.4,28.4
				C111.4,267.3,98.7,280,83.1,280z M83.1,240.2c-6.3,0-11.4,5.1-11.4,11.4c0,6.3,5.1,11.4,11.4,11.4c6.3,0,11.4-5.1,11.4-11.4
				C94.4,245.3,89.3,240.2,83.1,240.2z"/>
		</g>
	</g>
	<g>
		<g>
			<path class="st0" d="M37.8,144.8c-15.7,0-28.4-12.7-28.4-28.3S22.2,88,37.8,88s28.4,12.7,28.4,28.4S53.5,144.8,37.8,144.8z
				 M37.8,105c-6.3,0-11.4,5.1-11.4,11.4s5.1,11.4,11.4,11.4s11.4-5.1,11.4-11.4S44.1,105,37.8,105z"/>
		</g>
		<g>
			<path class="st0" d="M37.8,144.8c-15.7,0-28.4-12.7-28.4-28.3S22.2,88,37.8,88s28.4,12.7,28.4,28.4S53.5,144.8,37.8,144.8z
				 M37.8,105c-6.3,0-11.4,5.1-11.4,11.4s5.1,11.4,11.4,11.4s11.4-5.1,11.4-11.4S44.1,105,37.8,105z"/>
		</g>
	</g>
	<g>
		<path class="st0" d="M60.5,175.7c-2.4,0-4.8-1-6.5-3c-3-3.6-2.6-8.9,1-12l34-28.8L68.7,48.8c-1.1-4.6,1.7-9.2,6.2-10.3
			s9.2,1.7,10.3,6.2l21.7,88.2c0.8,3.1-0.3,6.4-2.8,8.5L66,173.7C64.4,175,62.5,175.7,60.5,175.7z"/>
	</g>
	<g>
		<g>
			<path class="st0" d="M138.6,254.8c-3.3,0-6.5-2-7.9-5.3l-16.8-41.1l-85.4-6.3c-4.7-0.3-8.2-4.4-7.8-9.1s4.4-8.2,9.1-7.8l90.7,6.7
				c3.2,0.2,6,2.3,7.2,5.3l18.7,46c1.8,4.3-0.3,9.3-4.6,11.1C140.7,254.6,139.6,254.8,138.6,254.8z"/>
		</g>
		<g>
			<path class="st0" d="M138.6,254.8c-3.3,0-6.5-2-7.9-5.3l-16.8-41.1l-85.4-6.3c-4.7-0.3-8.2-4.4-7.8-9.1s4.4-8.2,9.1-7.8l90.7,6.7
				c3.2,0.2,6,2.3,7.2,5.3l18.7,46c1.8,4.3-0.3,9.3-4.6,11.1C140.7,254.6,139.6,254.8,138.6,254.8z"/>
		</g>
	</g>
	<g>
		<g>
			<path class="st0" d="M154.2,293c-1.1,0-2.1-0.2-3.2-0.6c-4.3-1.8-6.4-6.7-4.6-11.1l34.3-84.2c1.2-3,4-5,7.2-5.3l49.4-3.6
				c4.7-0.3,8.8,3.2,9.1,7.8s-3.2,8.8-7.8,9.1l-44.1,3.2L162,287.7C160.7,291,157.5,293,154.2,293z"/>
		</g>
		<g>
			<path class="st0" d="M154.2,293c-1.1,0-2.1-0.2-3.2-0.6c-4.3-1.8-6.4-6.7-4.6-11.1l34.3-84.2c1.2-3,4-5,7.2-5.3l49.4-3.6
				c4.7-0.3,8.8,3.2,9.1,7.8s-3.2,8.8-7.8,9.1l-44.1,3.2L162,287.7C160.7,291,157.5,293,154.2,293z"/>
		</g>
	</g>
	<g>
		<g>
			<path class="st0" d="M279.2,202.2c-1.9,0-3.9-0.6-5.5-2l-69.5-58.7c-2.5-2.1-3.5-5.4-2.8-8.5l11.9-48.3c1.1-4.6,5.7-7.3,10.3-6.2
				c4.6,1.1,7.3,5.7,6.2,10.3l-10.6,43.2l65.4,55.2c3.6,3,4,8.4,1,12C284,201.2,281.6,202.2,279.2,202.2z"/>
		</g>
		<g>
			<path class="st0" d="M279.2,202.2c-1.9,0-3.9-0.6-5.5-2l-69.5-58.7c-2.5-2.1-3.5-5.4-2.8-8.5l11.9-48.3c1.1-4.6,5.7-7.3,10.3-6.2
				c4.6,1.1,7.3,5.7,6.2,10.3l-10.6,43.2l65.4,55.2c3.6,3,4,8.4,1,12C284,201.2,281.6,202.2,279.2,202.2z"/>
		</g>
	</g>
	<g>
		<g>
			<path class="st0" d="M154.2,103.1c-1.6,0-3.1-0.4-4.5-1.3l-42.1-26.1c-4-2.5-5.2-7.7-2.8-11.7c2.5-4,7.7-5.2,11.7-2.8l37.6,23.3
				l72.8-45.1c4-2.5,9.2-1.2,11.7,2.8c2.5,4,1.2,9.2-2.8,11.7l-77.3,47.9C157.3,102.7,155.7,103.1,154.2,103.1z"/>
		</g>
		<g>
			<path class="st0" d="M154.2,103.1c-1.6,0-3.1-0.4-4.5-1.3l-42.1-26.1c-4-2.5-5.2-7.7-2.8-11.7c2.5-4,7.7-5.2,11.7-2.8l37.6,23.3
				l72.8-45.1c4-2.5,9.2-1.2,11.7,2.8c2.5,4,1.2,9.2-2.8,11.7l-77.3,47.9C157.3,102.7,155.7,103.1,154.2,103.1z"/>
		</g>
	</g>
</g>
</svg>
