<?xml version="1.0" encoding="UTF-8"?>
<svg id="Layer_1" data-name="Layer 1" xmlns="http://www.w3.org/2000/svg" viewBox="0 0 1024 1024">
  <defs>
    <style>
      .cls-1 {
        fill: #226db4;
      }

      .cls-2 {
        fill: #089949;
      }
    </style>
  </defs>
  <path class="cls-2" d="M625.94,910.19c-16.57,0-30-13.43-30-30,0-53.74,10.51-105.88,31.25-154.99,20.02-47.42,48.68-90,85.18-126.56,36.5-36.56,79.01-65.27,126.36-85.33,1.04-.44,2.09-.88,3.13-1.31-1.04-.43-2.09-.87-3.13-1.31-47.35-20.06-89.86-48.77-126.36-85.33-36.5-36.56-65.15-79.14-85.18-126.56-3.66-8.67-7-17.43-10.02-26.28l-77.6,248.43c-4.94,15.81-21.76,24.63-37.58,19.69-15.81-4.94-24.63-21.77-19.69-37.58l115.01-368.19c4.42-14.15,18.51-22.95,33.16-20.71,14.65,2.24,25.48,14.84,25.48,29.66,0,90.34,35.12,175.28,98.89,239.16,63.75,63.86,148.51,99.04,238.67,99.04,16.57,0,30,13.43,30,30s-13.43,30-30,30c-90.16,0-174.92,35.17-238.67,99.04-63.77,63.88-98.89,148.81-98.89,239.16,0,16.57-13.43,30-30,30Z"/>
  <path class="cls-1" d="M398.08,910.19c-1.48,0-2.97-.11-4.47-.33-14.69-2.2-25.55-14.82-25.55-29.67,0-90.34-35.12-175.28-98.89-239.16-63.75-63.86-148.52-99.04-238.67-99.04-16.57,0-30-13.43-30-30s13.43-30,30-30c90.15,0,174.92-35.17,238.67-99.04,63.77-63.88,98.89-148.81,98.89-239.16,0-16.57,13.43-30,30-30s30,13.43,30,30c0,53.74-10.51,105.88-31.25,154.99-20.02,47.42-48.68,90-85.18,126.56-36.5,36.56-79.01,65.27-126.36,85.33-1.04.44-2.09.88-3.13,1.31,1.04.43,2.09.87,3.13,1.31,47.35,20.06,89.86,48.77,126.36,85.33,36.5,36.56,65.16,79.14,85.18,126.56,3.51,8.32,6.73,16.72,9.65,25.21l75.78-247.2c4.86-15.84,21.63-24.75,37.48-19.89,15.84,4.86,24.75,21.63,19.89,37.48l-112.87,368.19c-3.91,12.75-15.67,21.21-28.66,21.21Z"/>
</svg>