<?xml version="1.0" encoding="utf-8"?>
<!-- Generator: Adobe Illustrator 27.5.0, SVG Export Plug-In . SVG Version: 6.00 Build 0)  -->
<svg version="1.1" id="Layer_1" xmlns="http://www.w3.org/2000/svg" xmlns:xlink="http://www.w3.org/1999/xlink" x="0px" y="0px"
	 viewBox="0 0 1024 1024" style="enable-background:new 0 0 1024 1024;" xml:space="preserve">
<style type="text/css">
	.st0{fill:#226DB4;}
</style>
<path class="st0" d="M904.8,182.1H523.6c-12.7,0-25.2-4.2-35.4-11.8l-86.5-64.6C381.3,90.4,355.9,82,330.4,82H119.2
	C53.5,82,0,135.5,0,201.2v621.6C0,888.5,53.5,942,119.2,942h59.7c16.6,0,30-13.4,30-30s-13.4-30-30-30h-59.7
	C86.6,882,60,855.5,60,822.8V201.2c0-32.6,26.6-59.2,59.2-59.3h211.2c12.7,0,25.2,4.2,35.4,11.8l86.5,64.6
	c20.4,15.3,45.8,23.7,71.3,23.7h381.2c32.6,0,59.2,26.5,59.2,59.2v172.5c-2.3-52.1-45.3-93.8-98-93.8c-54.1,0-98.1,44-98.1,98.1
	c0,26,10.2,49.7,26.8,67.3l-21,7.8c-6.1,2.3-12.1,5-17.8,8c0.1-1.4,0.1-2.7,0.1-4.1c0-52.4-42.6-95-95-95s-95,42.6-95,95
	c0,24.4,9.2,46.6,24.3,63.4l-14.7,5.5c-7.4,2.7-14.5,6-21.3,9.7c0-0.5,0-1.1,0-1.6c0-49.6-40.4-90-90-90c-49.6,0-90,40.4-90,90
	c0,21.9,7.9,42,20.9,57.6l-25.8,9.6C340,712,315.1,731.3,297.2,757c-17.9,25.7-27.3,55.8-27.3,87.1V912c0,16.6,13.4,30,30,30h604.9
	c65.7,0,119.2-53.5,119.2-119.1V301.3C1024,235.6,970.5,182.1,904.8,182.1z M866,439.8c21,0,38.1,17.1,38.1,38.1S887,516,866,516
	s-38.1-17.1-38.1-38.1S845,439.8,866,439.8z M661,522c19.3,0,35,15.7,35,35s-15.7,35-35,35s-35-15.7-35-35S641.7,522,661,522z
	 M596.5,682.2l89.1-33c-3.3,12.1-5,24.7-5,37.5V882H536.2V768.8C536.2,730.4,560.4,695.6,596.5,682.2z M464.3,604
	c16.5,0,30,13.5,30,30s-13.5,30-30,30s-30-13.5-30-30S447.8,604,464.3,604z M390.3,757.5l92.7-34.4c-4.6,14.7-6.9,30-6.9,45.7V882
	H330v-37.9C330,805.7,354.2,770.9,390.3,757.5z M904.8,882H740.7V686.8c0-34.4,21.7-65.5,53.9-77.4l104.5-38.7
	c1.5-0.6,3-1.3,4.4-2.1c34.3-14.3,58.8-47.4,60.5-86.3v340.5C964,855.4,937.5,882,904.8,882z"/>
</svg>
