<?xml version="1.0" encoding="utf-8"?>
<!-- Generator: Adobe Illustrator 27.3.1, SVG Export Plug-In . SVG Version: 6.00 Build 0)  -->
<svg version="1.1" id="Layer_1" xmlns="http://www.w3.org/2000/svg" xmlns:xlink="http://www.w3.org/1999/xlink" x="0px" y="0px"
	 viewBox="0 0 880 296" style="enable-background:new 0 0 880 296;" xml:space="preserve">
<style type="text/css">
	.st0{fill:#FFFFFF;}
	.st1{enable-background:new    ;}
</style>
<g>
	<g>
		<path class="st0" d="M378.1,140.8h22.6l21.7,84.1l23.5-84.1h18.7l23.9,84.5l21.8-84.5H531l-30.4,114.9h-22.1l-24-83.3L430,255.7
			h-21.3L378.1,140.8z"/>
		<path class="st0" d="M542.9,171.6H563v15.8c5.7-11.5,14.8-17,27.6-17V189c-16.2,0-27.6,5.3-27.6,23.3v43.4h-20.1V171.6z"/>
		<path class="st0" d="M617.3,136.1c6.5,0,11.7,4.8,11.7,11.5c0,6.6-5,11.4-11.6,11.4c-6.5,0-12-4.9-12-11.5
			C605.3,140.8,610.7,136.1,617.3,136.1z M607.1,171.8h20.1v83.9h-20.1V171.8z"/>
		<path class="st0" d="M692.5,255.1c-4.3,1.3-8.8,2-13.8,2c-16,0-25.5-8.3-25.5-25v-45.7h-11.3v-14.8h11.3v-17.3l20.1-8.7v26.1h18.5
			v14.8h-18.5v43.9c0,6.6,2.8,10.7,10.2,10.7c2.8,0,6-0.6,9-1.6V255.1z"/>
		<path class="st0" d="M782.8,237.4c-7,14.8-22,19.8-37.5,19.8c-26.5,0-43.2-17.7-43.2-43.9c0-24.6,17-43.6,42.3-43.6
			c27.2,0,40.4,15.9,40.4,48.3h-62.2c0,14.2,8.2,24.6,23.5,24.6c9.1,0,16.6-3.7,21-12.2L782.8,237.4z M764.7,204.9
			c-0.6-12.7-8.3-20.5-20.2-20.5c-12.6,0-20,8.9-21.7,20.5H764.7z"/>
		<path class="st0" d="M800.9,171.6H821v15.8c5.7-11.5,14.8-17,27.6-17V189c-16.2,0-27.6,5.3-27.6,23.3v43.4h-20.1V171.6z"/>
	</g>
	<g>
		<path class="st0" d="M382.2,104.4l37-53.4H386V40.5h50.6v5.2l-36.1,53.4h35v10.5h-53.3L382.2,104.4L382.2,104.4z"/>
		<path class="st0" d="M468.3,58c15.4,0,27.2,10.8,27.2,26.3c0,15.9-12.4,26.4-27.7,26.4c-15.4,0-27.8-10.7-27.8-26.1
			C440,68.6,453,58,468.3,58z M482.5,84.3c0-9.3-4.7-17.1-14.6-17.1c-10.2,0-14.3,8.1-14.3,17.4c0,9,4.8,16.6,14.6,16.6
			C478.2,101.3,482.5,93.2,482.5,84.3z"/>
		<path class="st0" d="M504.3,36.1h12.1v31c3.3-6.3,9.9-9.1,16.9-9.1c12.1,0,18.2,8.5,18.2,20v31.7h-12.2V79.2
			c0-7.3-3.8-11.2-10.8-11.2c-7.8,0-12,4.8-12,12v29.7h-12.1L504.3,36.1L504.3,36.1z"/>
		<path class="st0" d="M587.6,58c15.4,0,27.2,10.8,27.2,26.3c0,15.9-12.4,26.4-27.7,26.4c-15.4,0-27.8-10.7-27.8-26.1
			C559.3,68.6,572.4,58,587.6,58z M601.8,84.3c0-9.3-4.7-17.1-14.7-17.1c-10.2,0-14.3,8.1-14.3,17.4c0,9,4.8,16.6,14.6,16.6
			C597.6,101.3,601.8,93.2,601.8,84.3z"/>
	</g>
</g>
<g>
	<g class="st1">
		<path class="st0" d="M118.9,105.2H87.3c-4.7,0-8.5-3.8-8.5-8.5s3.8-8.5,8.5-8.5h31.6c4.7,0,8.5,3.8,8.5,8.5
			C127.4,101.3,123.6,105.2,118.9,105.2z"/>
	</g>
	<g class="st1">
		<path class="st0" d="M253.2,275.9h-200c-14.1,0-25.5-11.5-25.5-25.5V45.6c0-14.1,11.5-25.5,25.5-25.5h216.9c4.7,0,8.5,3.8,8.5,8.5
			s-3.8,8.5-8.5,8.5H53.2c-4.7,0-8.5,3.8-8.5,8.5v204.8c0,4.7,3.8,8.5,8.5,8.5h200c4.7,0,8.5-3.8,8.5-8.5v-86.3
			c0-4.7,3.8-8.5,8.5-8.5s8.5,3.8,8.5,8.5v86.3C278.7,264.5,267.2,275.9,253.2,275.9z"/>
	</g>
	<g class="st1">
		<path class="st0" d="M87,156.9c-4.7,0-8.5-3.8-8.5-8.5s3.8-8.5,8.5-8.5l80.9-0.1l0,0c4.7,0,8.5,3.8,8.5,8.5s-3.8,8.5-8.5,8.5
			L87,156.9L87,156.9z"/>
	</g>
	<g class="st1">
		<path class="st0" d="M87,207.7c-4.7,0-8.5-3.8-8.5-8.5s3.8-8.5,8.5-8.5l80.9-0.1l0,0c4.7,0,8.5,3.8,8.5,8.5s-3.8,8.5-8.5,8.5
			L87,207.7L87,207.7z"/>
	</g>
	<g class="st1">
		<path class="st0" d="M309.1,157.3c-1.4,0-2.8-0.3-4.1-1.1l-47.3-26.1c0,0-0.1,0-0.1,0l-46.2-26c-2.7-1.5-4.3-4.3-4.4-7.4
			c0-3.1,1.6-5.9,4.3-7.4l47.3-27.2l46.1-27.2c2.6-1.6,5.9-1.6,8.6-0.1c2.6,1.5,4.3,4.3,4.3,7.4v106.5c0,3-1.6,5.8-4.2,7.3
			C312.1,156.9,310.6,157.3,309.1,157.3z M265.9,115.2l34.7,19.1V57.2l-33.3,19.6c0,0-0.1,0-0.1,0.1l-34.4,19.7L265.9,115.2z"/>
	</g>
</g>
</svg>
