<?xml version="1.0" encoding="UTF-8"?>
<svg id="Layer_1" data-name="Layer 1" xmlns="http://www.w3.org/2000/svg" viewBox="0 0 1024 1024">
  <defs><style>.cls-1{fill:#e42527;}.cls-2{fill:#226db4;}</style></defs>
  <path class="cls-2" d="M442.54,822.49c-29.78,0-58.89-8.84-84.13-25.86l-.88-.59c-13.74-9.27-17.36-27.92-8.09-41.65,9.27-13.74,27.92-17.36,41.65-8.09l.88.59c20.15,13.59,44.39,18.52,68.26,13.89,23.86-4.64,44.49-18.29,58.09-38.45l114.73-170.1c9.27-13.74,27.91-17.36,41.65-8.1,13.74,9.27,17.36,27.91,8.1,41.65l-114.73,170.1c-22.56,33.44-56.79,56.1-96.38,63.8-9.71,1.89-19.46,2.82-29.13,2.82Z"/>
  <path class="cls-1" d="M873.27,822.49c-9.68,0-19.42-.93-29.12-2.82-39.6-7.7-73.83-30.36-96.39-63.8l-114.73-170.1c-9.27-13.74-5.64-32.39,8.1-41.65,13.74-9.27,32.39-5.64,41.65,8.1l114.73,170.1c13.59,20.16,34.22,33.81,58.09,38.45,23.86,4.64,48.11-.29,68.26-13.89,41.66-28.1,52.68-84.78,24.64-126.38l-214.91-318.8c-17.19-25.5-44.68-40.13-75.44-40.14h-.03c-30.74,0-58.23,14.61-75.43,40.09l-283.01,419.2c-9.27,13.73-27.92,17.35-41.66,8.08-13.73-9.27-17.35-27.92-8.08-41.66l283.01-419.2c28.12-41.65,74.91-66.52,125.16-66.52h.05c50.27.02,97.07,24.92,125.17,66.6l214.91,318.8c46.54,69.03,28.25,163.08-40.77,209.63-25.29,17.06-54.42,25.9-84.21,25.91Z"/>
  <path class="cls-2" d="M150.77,822.33c-6.08,0-12.14-.36-18.16-1.1-23.49-2.87-46.34-11.42-66.07-24.73-69.05-46.58-87.33-140.65-40.76-209.7l214.93-318.66c22.56-33.45,56.8-56.11,96.4-63.81,39.61-7.7,79.84.49,113.29,23.05,1.07.72,2.12,1.45,3.16,2.19,13.5,9.61,16.66,28.34,7.05,41.84-9.61,13.5-28.34,16.66-41.84,7.05-.63-.45-1.27-.9-1.92-1.33-20.16-13.6-44.41-18.53-68.28-13.89-23.87,4.64-44.51,18.3-58.11,38.46l-214.93,318.66c-28.07,41.62-17.05,98.32,24.57,126.4,23.95,16.15,53.37,20,80.72,10.55,15.66-5.41,32.74,2.9,38.15,18.56,5.41,15.66-2.9,32.75-18.56,38.15-15.92,5.5-32.8,8.3-49.64,8.3Z"/>
</svg>
